<svg width="76" height="77" viewBox="0 0 76 77" fill="none" xmlns="http://www.w3.org/2000/svg">
	<circle cx="38.0674" cy="40.7226" r="35.3819" fill="#61981C" stroke="black" stroke-width="1.37101" />
	<circle cx="38.0674" cy="38.0674" r="36.89" fill="#0094FF" stroke="black" stroke-width="1.64521" />
	<circle cx="38.1231" cy="38.5655" r="27.9356" fill="#00FFFF" />
	<circle cx="38.0672" cy="37.6248" r="27.659" fill="black" />
	<circle cx="38.0682" cy="38.9524" r="26.8846" fill="#1559DC" />
	<g filter="url(#filter0_d_1106_15719)">
		<path d="M26.9473 46.3477L27.0449 42.5C26.8366 42.4609 26.625 42.4154 26.4102 42.3633C26.1953 42.3047 25.9837 42.2461 25.7754 42.1875C25.5736 42.1224 25.3783 42.0573 25.1895 41.9922C25.0007 41.9271 24.8314 41.862 24.6816 41.7969L25.0137 39.3945C25.4238 39.6029 25.8828 39.7591 26.3906 39.8633C26.8984 39.9674 27.403 40.0195 27.9043 40.0195C27.9954 40.0195 28.1061 40.0163 28.2363 40.0098C28.373 40.0033 28.5033 39.987 28.627 39.9609C28.7507 39.9284 28.8548 39.8796 28.9395 39.8145C29.0306 39.7493 29.0762 39.6615 29.0762 39.5508C29.0762 39.4336 29.0111 39.3457 28.8809 39.2871C28.7572 39.222 28.6074 39.1764 28.4316 39.1504C28.2624 39.1178 28.0898 39.0983 27.9141 39.0918C27.7383 39.0853 27.6048 39.082 27.5137 39.082C27.0905 39.082 26.7064 39.0267 26.3613 38.916C26.0163 38.8053 25.7168 38.6491 25.4629 38.4473C25.2155 38.2389 25.0234 37.9915 24.8867 37.7051C24.75 37.4186 24.6816 37.0964 24.6816 36.7383C24.6816 36.4062 24.737 36.097 24.8477 35.8105C24.9648 35.5241 25.1243 35.2637 25.3262 35.0293C25.5345 34.7949 25.7786 34.5898 26.0586 34.4141C26.3451 34.2318 26.6543 34.082 26.9863 33.9648L26.8301 29.8438L27.8848 29.9414V33.7305C27.9759 33.7109 28.0638 33.6979 28.1484 33.6914C28.2331 33.6784 28.321 33.6654 28.4121 33.6523L28.3926 29.8438L29.4473 29.8633L29.3105 33.6523C29.7402 33.6654 30.1732 33.7077 30.6094 33.7793C31.0456 33.8444 31.446 33.9518 31.8105 34.1016L31.5566 36.582C31.2116 36.4909 30.8568 36.4128 30.4922 36.3477C30.1276 36.2826 29.7793 36.25 29.4473 36.25C29.3431 36.25 29.2031 36.2533 29.0273 36.2598C28.8581 36.2663 28.6888 36.2858 28.5195 36.3184C28.3568 36.3509 28.2135 36.3997 28.0898 36.4648C27.9727 36.5299 27.9173 36.6211 27.9238 36.7383C27.9303 36.8359 27.9727 36.9108 28.0508 36.9629C28.1289 37.0085 28.2266 37.0443 28.3438 37.0703C28.4674 37.0898 28.6042 37.0996 28.7539 37.0996C28.9036 37.0996 29.0469 37.0964 29.1836 37.0898C29.3268 37.0833 29.4603 37.0768 29.584 37.0703C29.7077 37.0638 29.8053 37.0638 29.877 37.0703C30.2676 37.0898 30.6191 37.1582 30.9316 37.2754C31.2441 37.3926 31.5111 37.5521 31.7324 37.7539C31.9538 37.9492 32.123 38.1836 32.2402 38.457C32.3574 38.7305 32.416 39.0299 32.416 39.3555C32.416 39.8112 32.3379 40.2148 32.1816 40.5664C32.0319 40.918 31.8203 41.224 31.5469 41.4844C31.2734 41.7383 30.9447 41.9499 30.5605 42.1191C30.1829 42.2819 29.7663 42.4023 29.3105 42.4805L29.4668 46.3281L28.5098 46.4258L28.4707 42.5781C28.3796 42.5911 28.2884 42.5977 28.1973 42.5977C28.1061 42.5977 28.015 42.5977 27.9238 42.5977H27.8848L27.9043 46.4062L26.9473 46.3477ZM39.8086 30.957L39.2422 44.8438L34.9844 44.6484L35.2188 35.4102L33.6562 36.4844L32.1914 33.1445L35.375 30.7617L39.8086 30.957ZM52.6309 38.0078C52.6309 38.5807 52.5658 39.1504 52.4355 39.7168C52.3118 40.2832 52.1296 40.8268 51.8887 41.3477C51.6478 41.8685 51.3516 42.3535 51 42.8027C50.6549 43.252 50.2578 43.6426 49.8086 43.9746C49.3594 44.3066 48.8646 44.5671 48.3242 44.7559C47.7904 44.9447 47.2142 45.0391 46.5957 45.0391C45.9707 45.0391 45.388 44.9447 44.8477 44.7559C44.3073 44.5671 43.8125 44.3066 43.3633 43.9746C42.9206 43.6426 42.5234 43.252 42.1719 42.8027C41.8203 42.3535 41.5241 41.8685 41.2832 41.3477C41.0423 40.8268 40.8568 40.2832 40.7266 39.7168C40.6029 39.1439 40.541 38.5742 40.541 38.0078C40.541 37.4414 40.6029 36.8717 40.7266 36.2988C40.8568 35.7259 41.0423 35.179 41.2832 34.6582C41.5241 34.1374 41.8203 33.6523 42.1719 33.2031C42.5234 32.7474 42.9206 32.3535 43.3633 32.0215C43.8125 31.6895 44.3073 31.429 44.8477 31.2402C45.3945 31.0514 45.9772 30.957 46.5957 30.957C47.2142 30.957 47.7904 31.0514 48.3242 31.2402C48.8646 31.429 49.3594 31.6895 49.8086 32.0215C50.2578 32.3535 50.6549 32.7474 51 33.2031C51.3516 33.6523 51.6478 34.1374 51.8887 34.6582C52.1296 35.179 52.3118 35.7259 52.4355 36.2988C52.5658 36.8717 52.6309 37.4414 52.6309 38.0078ZM48.5098 38.3008C48.5098 38.0143 48.4707 37.6953 48.3926 37.3438C48.3145 36.9922 48.194 36.6634 48.0312 36.3574C47.8685 36.0514 47.6602 35.7943 47.4062 35.5859C47.1523 35.3776 46.8496 35.2734 46.498 35.2734C46.14 35.2734 45.834 35.3776 45.5801 35.5859C45.3262 35.7943 45.1146 36.0514 44.9453 36.3574C44.7826 36.6634 44.6621 36.9922 44.584 37.3438C44.5059 37.6953 44.4668 38.0143 44.4668 38.3008C44.4668 38.5872 44.5059 38.9062 44.584 39.2578C44.6621 39.6094 44.7826 39.9382 44.9453 40.2441C45.1146 40.5501 45.3262 40.8073 45.5801 41.0156C45.834 41.224 46.14 41.3281 46.498 41.3281C46.8496 41.3281 47.1523 41.224 47.4062 41.0156C47.6602 40.8073 47.8685 40.5501 48.0312 40.2441C48.194 39.9382 48.3145 39.6094 48.3926 39.2578C48.4707 38.9062 48.5098 38.5872 48.5098 38.3008Z" fill="white" />
	</g>
	<path d="M39 24V18M36 21H42" stroke="white" stroke-width="1.5" stroke-linecap="round" stroke-linejoin="round" />
	<path opacity="0.8" d="M45.4798 76.0277C43.0875 76.5274 40.6082 76.7901 38.0676 76.7901C35.566 76.7901 33.1238 76.5354 30.7656 76.0505V73.3604H45.4802V76.0156L45.4798 76.0277Z" fill="#C4C4C4" />
	<path opacity="0.8" d="M11.7361 65.3705C8.36443 61.77 5.68805 58.4244 4.04688 54.3677V50.0713L11.7361 62.6838V65.3705Z" fill="#C4C4C4" />
	<path opacity="0.8" d="M64.3987 65.3706C67.7703 61.7701 70.2256 58.4244 72.0695 54.7366L72.0879 50.0714L64.3987 62.6839V65.3706Z" fill="#C4C4C4" />
	<path d="M12.8153 18.4519C13.5041 17.5664 13.3424 16.265 12.411 15.6396L10.7454 14.5212C7.50208 18.2812 5.02176 22.7179 3.54492 27.5908L5.27934 28.4413C6.31805 28.9506 7.56153 28.391 7.95099 27.3016C9.10212 24.0818 10.755 21.1005 12.8153 18.4519Z" fill="white" />
	<path d="M30.7687 4.73463C30.8456 5.8696 31.9187 6.66347 33.0424 6.4861C34.6793 6.22771 36.3576 6.09354 38.0671 6.09354C39.8125 6.09354 41.5252 6.2334 43.1947 6.5025C44.3204 6.68395 45.398 5.88962 45.4751 4.75202L45.6081 2.78955C43.1761 2.27221 40.6534 2 38.0671 2C35.5195 2 33.0336 2.26414 30.6352 2.76651L30.7687 4.73463Z" fill="white" />
	<path d="M63.7611 15.6885C62.831 16.313 62.6683 17.6122 63.3546 18.4978C65.4076 21.1468 67.0536 24.1271 68.1988 27.3449C68.587 28.436 69.8317 28.9973 70.8715 28.4874L72.6037 27.638C71.1347 22.7669 68.6633 18.3304 65.4294 14.5683L63.7611 15.6885Z" fill="white" />
	<path d="M70.3001 49.1374C69.2944 48.6442 68.0882 49.1526 67.6633 50.1889C66.3844 53.3082 64.6268 56.1804 62.4818 58.7143C61.7356 59.5958 61.8741 60.9495 62.833 61.5933L64.4392 62.6718C67.8036 59.0673 70.4377 54.7724 72.1058 50.0228L70.3001 49.1374Z" fill="white" />
	<path d="M45.3563 71.4016C45.2794 70.2668 44.2067 69.473 43.0832 69.65C41.449 69.9075 39.7737 70.0412 38.0671 70.0412C36.3963 70.0412 34.7555 69.9131 33.1538 69.666C32.0324 69.4931 30.9642 70.2864 30.8874 71.4185L30.7536 73.3928C33.1153 73.8792 35.5614 74.1348 38.0671 74.1348C40.6115 74.1348 43.0943 73.8713 45.4898 73.3702L45.3563 71.4016Z" fill="white" />
	<path d="M13.3414 61.6407C14.3015 60.996 14.439 59.64 13.6902 58.7587C11.5378 56.2255 9.77331 53.3524 8.48841 50.2313C8.06246 49.1967 6.85742 48.6899 5.85279 49.1825L4.04473 50.0691C5.72077 54.8203 8.36389 59.1152 11.7377 62.7174L13.3414 61.6407Z" fill="white" />
	<defs>
		<filter id="filter0_d_1106_15719" x="24.6816" y="29.8438" width="27.9492" height="18.322" filterUnits="userSpaceOnUse" color-interpolation-filters="sRGB">
			<feFlood flood-opacity="0" result="BackgroundImageFix" />
			<feColorMatrix in="SourceAlpha" type="matrix" values="0 0 0 0 0 0 0 0 0 0 0 0 0 0 0 0 0 0 127 0" result="hardAlpha" />
			<feOffset dy="1.74" />
			<feComposite in2="hardAlpha" operator="out" />
			<feColorMatrix type="matrix" values="0 0 0 0 0 0 0 0 0 0 0 0 0 0 0 0 0 0 0.25 0" />
			<feBlend mode="normal" in2="BackgroundImageFix" result="effect1_dropShadow_1106_15719" />
			<feBlend mode="normal" in="SourceGraphic" in2="effect1_dropShadow_1106_15719" result="shape" />
		</filter>
	</defs>
</svg>
