<svg width="77" height="77" viewBox="0 0 77 77" fill="none" xmlns="http://www.w3.org/2000/svg">
	<circle cx="38.4717" cy="40.7226" r="35.3819" fill="#61981C" stroke="black" stroke-width="1.37101" />
	<circle cx="38.4717" cy="38.0674" r="36.89" fill="#E4C629" stroke="black" stroke-width="1.64521" />
	<circle cx="38.5274" cy="38.5655" r="27.9356" fill="#FFF374" />
	<circle cx="38.4715" cy="37.6248" r="27.659" fill="#AC8C1C" />
	<circle cx="38.4725" cy="38.9524" r="26.8846" fill="#D3A811" />
	<g filter="url(#filter0_d_1106_15695)">
		<path d="M20.1191 46.3477L20.2168 42.5C20.0085 42.4609 19.7969 42.4154 19.582 42.3633C19.3672 42.3047 19.1556 42.2461 18.9473 42.1875C18.7454 42.1224 18.5501 42.0573 18.3613 41.9922C18.1725 41.9271 18.0033 41.862 17.8535 41.7969L18.1855 39.3945C18.5957 39.6029 19.0547 39.7591 19.5625 39.8633C20.0703 39.9674 20.5749 40.0195 21.0762 40.0195C21.1673 40.0195 21.278 40.0163 21.4082 40.0098C21.5449 40.0033 21.6751 39.987 21.7988 39.9609C21.9225 39.9284 22.0267 39.8796 22.1113 39.8145C22.2025 39.7493 22.248 39.6615 22.248 39.5508C22.248 39.4336 22.1829 39.3457 22.0527 39.2871C21.929 39.222 21.7793 39.1764 21.6035 39.1504C21.4342 39.1178 21.2617 39.0983 21.0859 39.0918C20.9102 39.0853 20.7767 39.082 20.6855 39.082C20.2624 39.082 19.8783 39.0267 19.5332 38.916C19.1882 38.8053 18.8887 38.6491 18.6348 38.4473C18.3874 38.2389 18.1953 37.9915 18.0586 37.7051C17.9219 37.4186 17.8535 37.0964 17.8535 36.7383C17.8535 36.4062 17.9089 36.097 18.0195 35.8105C18.1367 35.5241 18.2962 35.2637 18.498 35.0293C18.7064 34.7949 18.9505 34.5898 19.2305 34.4141C19.5169 34.2318 19.8262 34.082 20.1582 33.9648L20.002 29.8438L21.0566 29.9414V33.7305C21.1478 33.7109 21.2357 33.6979 21.3203 33.6914C21.4049 33.6784 21.4928 33.6654 21.584 33.6523L21.5645 29.8438L22.6191 29.8633L22.4824 33.6523C22.9121 33.6654 23.3451 33.7077 23.7812 33.7793C24.2174 33.8444 24.6178 33.9518 24.9824 34.1016L24.7285 36.582C24.3835 36.4909 24.0286 36.4128 23.6641 36.3477C23.2995 36.2826 22.9512 36.25 22.6191 36.25C22.515 36.25 22.375 36.2533 22.1992 36.2598C22.0299 36.2663 21.8607 36.2858 21.6914 36.3184C21.5286 36.3509 21.3854 36.3997 21.2617 36.4648C21.1445 36.5299 21.0892 36.6211 21.0957 36.7383C21.1022 36.8359 21.1445 36.9108 21.2227 36.9629C21.3008 37.0085 21.3984 37.0443 21.5156 37.0703C21.6393 37.0898 21.776 37.0996 21.9258 37.0996C22.0755 37.0996 22.2188 37.0964 22.3555 37.0898C22.4987 37.0833 22.6322 37.0768 22.7559 37.0703C22.8796 37.0638 22.9772 37.0638 23.0488 37.0703C23.4395 37.0898 23.791 37.1582 24.1035 37.2754C24.416 37.3926 24.6829 37.5521 24.9043 37.7539C25.1257 37.9492 25.2949 38.1836 25.4121 38.457C25.5293 38.7305 25.5879 39.0299 25.5879 39.3555C25.5879 39.8112 25.5098 40.2148 25.3535 40.5664C25.2038 40.918 24.9922 41.224 24.7188 41.4844C24.4453 41.7383 24.1165 41.9499 23.7324 42.1191C23.3548 42.2819 22.9382 42.4023 22.4824 42.4805L22.6387 46.3281L21.6816 46.4258L21.6426 42.5781C21.5514 42.5911 21.4603 42.5977 21.3691 42.5977C21.278 42.5977 21.1868 42.5977 21.0957 42.5977H21.0566L21.0762 46.4062L20.1191 46.3477ZM32.9805 30.957L32.4141 44.8438L28.1562 44.6484L28.3906 35.4102L26.8281 36.4844L25.3633 33.1445L28.5469 30.7617L32.9805 30.957ZM45.8027 38.0078C45.8027 38.5807 45.7376 39.1504 45.6074 39.7168C45.4837 40.2832 45.3014 40.8268 45.0605 41.3477C44.8197 41.8685 44.5234 42.3535 44.1719 42.8027C43.8268 43.252 43.4297 43.6426 42.9805 43.9746C42.5312 44.3066 42.0365 44.5671 41.4961 44.7559C40.9622 44.9447 40.3861 45.0391 39.7676 45.0391C39.1426 45.0391 38.5599 44.9447 38.0195 44.7559C37.4792 44.5671 36.9844 44.3066 36.5352 43.9746C36.0924 43.6426 35.6953 43.252 35.3438 42.8027C34.9922 42.3535 34.696 41.8685 34.4551 41.3477C34.2142 40.8268 34.0286 40.2832 33.8984 39.7168C33.7747 39.1439 33.7129 38.5742 33.7129 38.0078C33.7129 37.4414 33.7747 36.8717 33.8984 36.2988C34.0286 35.7259 34.2142 35.179 34.4551 34.6582C34.696 34.1374 34.9922 33.6523 35.3438 33.2031C35.6953 32.7474 36.0924 32.3535 36.5352 32.0215C36.9844 31.6895 37.4792 31.429 38.0195 31.2402C38.5664 31.0514 39.1491 30.957 39.7676 30.957C40.3861 30.957 40.9622 31.0514 41.4961 31.2402C42.0365 31.429 42.5312 31.6895 42.9805 32.0215C43.4297 32.3535 43.8268 32.7474 44.1719 33.2031C44.5234 33.6523 44.8197 34.1374 45.0605 34.6582C45.3014 35.179 45.4837 35.7259 45.6074 36.2988C45.7376 36.8717 45.8027 37.4414 45.8027 38.0078ZM41.6816 38.3008C41.6816 38.0143 41.6426 37.6953 41.5645 37.3438C41.4863 36.9922 41.3659 36.6634 41.2031 36.3574C41.0404 36.0514 40.832 35.7943 40.5781 35.5859C40.3242 35.3776 40.0215 35.2734 39.6699 35.2734C39.3118 35.2734 39.0059 35.3776 38.752 35.5859C38.498 35.7943 38.2865 36.0514 38.1172 36.3574C37.9544 36.6634 37.834 36.9922 37.7559 37.3438C37.6777 37.6953 37.6387 38.0143 37.6387 38.3008C37.6387 38.5872 37.6777 38.9062 37.7559 39.2578C37.834 39.6094 37.9544 39.9382 38.1172 40.2441C38.2865 40.5501 38.498 40.8073 38.752 41.0156C39.0059 41.224 39.3118 41.3281 39.6699 41.3281C40.0215 41.3281 40.3242 41.224 40.5781 41.0156C40.832 40.8073 41.0404 40.5501 41.2031 40.2441C41.3659 39.9382 41.4863 39.6094 41.5645 39.2578C41.6426 38.9062 41.6816 38.5872 41.6816 38.3008ZM58.459 38.0078C58.459 38.5807 58.3939 39.1504 58.2637 39.7168C58.14 40.2832 57.9577 40.8268 57.7168 41.3477C57.4759 41.8685 57.1797 42.3535 56.8281 42.8027C56.4831 43.252 56.0859 43.6426 55.6367 43.9746C55.1875 44.3066 54.6927 44.5671 54.1523 44.7559C53.6185 44.9447 53.0423 45.0391 52.4238 45.0391C51.7988 45.0391 51.2161 44.9447 50.6758 44.7559C50.1354 44.5671 49.6406 44.3066 49.1914 43.9746C48.7487 43.6426 48.3516 43.252 48 42.8027C47.6484 42.3535 47.3522 41.8685 47.1113 41.3477C46.8704 40.8268 46.6849 40.2832 46.5547 39.7168C46.431 39.1439 46.3691 38.5742 46.3691 38.0078C46.3691 37.4414 46.431 36.8717 46.5547 36.2988C46.6849 35.7259 46.8704 35.179 47.1113 34.6582C47.3522 34.1374 47.6484 33.6523 48 33.2031C48.3516 32.7474 48.7487 32.3535 49.1914 32.0215C49.6406 31.6895 50.1354 31.429 50.6758 31.2402C51.2227 31.0514 51.8053 30.957 52.4238 30.957C53.0423 30.957 53.6185 31.0514 54.1523 31.2402C54.6927 31.429 55.1875 31.6895 55.6367 32.0215C56.0859 32.3535 56.4831 32.7474 56.8281 33.2031C57.1797 33.6523 57.4759 34.1374 57.7168 34.6582C57.9577 35.179 58.14 35.7259 58.2637 36.2988C58.3939 36.8717 58.459 37.4414 58.459 38.0078ZM54.3379 38.3008C54.3379 38.0143 54.2988 37.6953 54.2207 37.3438C54.1426 36.9922 54.0221 36.6634 53.8594 36.3574C53.6966 36.0514 53.4883 35.7943 53.2344 35.5859C52.9805 35.3776 52.6777 35.2734 52.3262 35.2734C51.9681 35.2734 51.6621 35.3776 51.4082 35.5859C51.1543 35.7943 50.9427 36.0514 50.7734 36.3574C50.6107 36.6634 50.4902 36.9922 50.4121 37.3438C50.334 37.6953 50.2949 38.0143 50.2949 38.3008C50.2949 38.5872 50.334 38.9062 50.4121 39.2578C50.4902 39.6094 50.6107 39.9382 50.7734 40.2441C50.9427 40.5501 51.1543 40.8073 51.4082 41.0156C51.6621 41.224 51.9681 41.3281 52.3262 41.3281C52.6777 41.3281 52.9805 41.224 53.2344 41.0156C53.4883 40.8073 53.6966 40.5501 53.8594 40.2441C54.0221 39.9382 54.1426 39.6094 54.2207 39.2578C54.2988 38.9062 54.3379 38.5872 54.3379 38.3008Z" fill="white" />
	</g>
	<path d="M39 24V18M36 21H42" stroke="white" stroke-width="1.5" stroke-linecap="round" stroke-linejoin="round" />
	<path opacity="0.8" d="M45.8841 76.0277C43.4918 76.5274 41.0125 76.7901 38.4719 76.7901C35.9703 76.7901 33.5281 76.5354 31.1699 76.0505V73.3604H45.8845V76.0156L45.8841 76.0277Z" fill="#C4C4C4" />
	<path opacity="0.8" d="M12.1404 65.3705C8.76872 61.77 6.09235 58.4244 4.45117 54.3677V50.0713L12.1404 62.6838V65.3705Z" fill="#C4C4C4" />
	<path opacity="0.8" d="M64.803 65.3706C68.1746 61.7701 70.6299 58.4244 72.4738 54.7366L72.4922 50.0714L64.803 62.6839V65.3706Z" fill="#C4C4C4" />
	<path d="M13.2196 18.4519C13.9084 17.5664 13.7467 16.265 12.8153 15.6396L11.1497 14.5212C7.90638 18.2812 5.42606 22.7179 3.94922 27.5908L5.68363 28.4413C6.72235 28.9506 7.96583 28.391 8.35528 27.3016C9.50642 24.0818 11.1593 21.1005 13.2196 18.4519Z" fill="white" />
	<path d="M31.173 4.73463C31.2499 5.8696 32.323 6.66347 33.4467 6.4861C35.0836 6.22771 36.7619 6.09354 38.4714 6.09354C40.2168 6.09354 41.9295 6.2334 43.599 6.5025C44.7247 6.68395 45.8022 5.88962 45.8794 4.75202L46.0124 2.78955C43.5804 2.27221 41.0577 2 38.4714 2C35.9238 2 33.4379 2.26414 31.0395 2.76651L31.173 4.73463Z" fill="white" />
	<path d="M64.1654 15.6885C63.2353 16.313 63.0726 17.6122 63.7589 18.4978C65.8119 21.1468 67.4579 24.1271 68.6031 27.3449C68.9913 28.436 70.236 28.9973 71.2758 28.4874L73.008 27.638C71.539 22.7669 69.0676 18.3304 65.8337 14.5683L64.1654 15.6885Z" fill="white" />
	<path d="M70.7044 49.1374C69.6987 48.6442 68.4925 49.1526 68.0676 50.1889C66.7887 53.3082 65.0311 56.1804 62.8861 58.7143C62.1399 59.5958 62.2784 60.9495 63.2373 61.5933L64.8435 62.6718C68.2079 59.0673 70.842 54.7724 72.5101 50.0228L70.7044 49.1374Z" fill="white" />
	<path d="M45.7606 71.4016C45.6837 70.2668 44.611 69.473 43.4875 69.65C41.8533 69.9075 40.178 70.0412 38.4714 70.0412C36.8006 70.0412 35.1598 69.9131 33.5581 69.666C32.4367 69.4931 31.3685 70.2864 31.2917 71.4185L31.1579 73.3928C33.5196 73.8792 35.9657 74.1348 38.4714 74.1348C41.0158 74.1348 43.4986 73.8713 45.8941 73.3702L45.7606 71.4016Z" fill="white" />
	<path d="M13.7457 61.6407C14.7058 60.996 14.8433 59.64 14.0945 58.7587C11.9421 56.2255 10.1776 53.3524 8.89271 50.2313C8.46676 49.1967 7.26171 48.6899 6.25708 49.1825L4.44903 50.0691C6.12507 54.8203 8.76818 59.1152 12.142 62.7174L13.7457 61.6407Z" fill="white" />
	<defs>
		<filter id="filter0_d_1106_15695" x="17.8535" y="29.8438" width="40.6055" height="18.322" filterUnits="userSpaceOnUse" color-interpolation-filters="sRGB">
			<feFlood flood-opacity="0" result="BackgroundImageFix" />
			<feColorMatrix in="SourceAlpha" type="matrix" values="0 0 0 0 0 0 0 0 0 0 0 0 0 0 0 0 0 0 127 0" result="hardAlpha" />
			<feOffset dy="1.74" />
			<feComposite in2="hardAlpha" operator="out" />
			<feColorMatrix type="matrix" values="0 0 0 0 0 0 0 0 0 0 0 0 0 0 0 0 0 0 0.25 0" />
			<feBlend mode="normal" in2="BackgroundImageFix" result="effect1_dropShadow_1106_15695" />
			<feBlend mode="normal" in="SourceGraphic" in2="effect1_dropShadow_1106_15695" result="shape" />
		</filter>
	</defs>
</svg>
