<svg width="77" height="77" viewBox="0 0 77 77" fill="none" xmlns="http://www.w3.org/2000/svg">
	<g filter="url(#filter0_d_1106_15707)">
		<circle cx="38.2021" cy="40.7226" r="35.3819" fill="#61981C" stroke="black" stroke-width="1.37101" />
		<circle cx="38.2021" cy="38.0674" r="36.89" fill="#FF4B4B" stroke="black" stroke-width="1.64521" />
		<circle cx="38.2579" cy="38.5655" r="27.9356" fill="#FF9C9C" />
		<circle cx="38.202" cy="37.6248" r="27.659" fill="#9B0D0D" />
		<circle cx="38.2029" cy="38.9524" r="26.8846" fill="#DD3636" />
		<g filter="url(#filter1_d_1106_15707)">
			<path d="M25.0703 46.3477L25.168 42.5C24.9596 42.4609 24.748 42.4154 24.5332 42.3633C24.3184 42.3047 24.1068 42.2461 23.8984 42.1875C23.6966 42.1224 23.5013 42.0573 23.3125 41.9922C23.1237 41.9271 22.9544 41.862 22.8047 41.7969L23.1367 39.3945C23.5469 39.6029 24.0059 39.7591 24.5137 39.8633C25.0215 39.9674 25.526 40.0195 26.0273 40.0195C26.1185 40.0195 26.2292 40.0163 26.3594 40.0098C26.4961 40.0033 26.6263 39.987 26.75 39.9609C26.8737 39.9284 26.9779 39.8796 27.0625 39.8145C27.1536 39.7493 27.1992 39.6615 27.1992 39.5508C27.1992 39.4336 27.1341 39.3457 27.0039 39.2871C26.8802 39.222 26.7305 39.1764 26.5547 39.1504C26.3854 39.1178 26.2129 39.0983 26.0371 39.0918C25.8613 39.0853 25.7279 39.082 25.6367 39.082C25.2135 39.082 24.8294 39.0267 24.4844 38.916C24.1393 38.8053 23.8398 38.6491 23.5859 38.4473C23.3385 38.2389 23.1465 37.9915 23.0098 37.7051C22.873 37.4186 22.8047 37.0964 22.8047 36.7383C22.8047 36.4062 22.86 36.097 22.9707 35.8105C23.0879 35.5241 23.2474 35.2637 23.4492 35.0293C23.6576 34.7949 23.9017 34.5898 24.1816 34.4141C24.4681 34.2318 24.7773 34.082 25.1094 33.9648L24.9531 29.8438L26.0078 29.9414V33.7305C26.099 33.7109 26.1868 33.6979 26.2715 33.6914C26.3561 33.6784 26.444 33.6654 26.5352 33.6523L26.5156 29.8438L27.5703 29.8633L27.4336 33.6523C27.8633 33.6654 28.2962 33.7077 28.7324 33.7793C29.1686 33.8444 29.569 33.9518 29.9336 34.1016L29.6797 36.582C29.3346 36.4909 28.9798 36.4128 28.6152 36.3477C28.2507 36.2826 27.9023 36.25 27.5703 36.25C27.4661 36.25 27.3262 36.2533 27.1504 36.2598C26.9811 36.2663 26.8118 36.2858 26.6426 36.3184C26.4798 36.3509 26.3366 36.3997 26.2129 36.4648C26.0957 36.5299 26.0404 36.6211 26.0469 36.7383C26.0534 36.8359 26.0957 36.9108 26.1738 36.9629C26.252 37.0085 26.3496 37.0443 26.4668 37.0703C26.5905 37.0898 26.7272 37.0996 26.877 37.0996C27.0267 37.0996 27.1699 37.0964 27.3066 37.0898C27.4499 37.0833 27.5833 37.0768 27.707 37.0703C27.8307 37.0638 27.9284 37.0638 28 37.0703C28.3906 37.0898 28.7422 37.1582 29.0547 37.2754C29.3672 37.3926 29.6341 37.5521 29.8555 37.7539C30.0768 37.9492 30.2461 38.1836 30.3633 38.457C30.4805 38.7305 30.5391 39.0299 30.5391 39.3555C30.5391 39.8112 30.4609 40.2148 30.3047 40.5664C30.1549 40.918 29.9434 41.224 29.6699 41.4844C29.3965 41.7383 29.0677 41.9499 28.6836 42.1191C28.306 42.2819 27.8893 42.4023 27.4336 42.4805L27.5898 46.3281L26.6328 46.4258L26.5938 42.5781C26.5026 42.5911 26.4115 42.5977 26.3203 42.5977C26.2292 42.5977 26.138 42.5977 26.0469 42.5977H26.0078L26.0273 46.4062L25.0703 46.3477ZM40.7832 35.8008C40.7832 36.3216 40.6888 36.8197 40.5 37.2949C40.3112 37.7637 40.0605 38.2064 39.748 38.623C39.4421 39.0332 39.0905 39.4141 38.6934 39.7656C38.3027 40.1107 37.9056 40.4232 37.502 40.7031H40.5879L40.3535 44.7656L31.2129 44.4531V40.8984C31.5579 40.7812 31.9193 40.6413 32.2969 40.4785C32.681 40.3092 33.0553 40.1172 33.4199 39.9023C33.791 39.6875 34.1393 39.4466 34.4648 39.1797C34.7969 38.9128 35.0866 38.623 35.334 38.3105C35.5879 37.9915 35.7865 37.6465 35.9297 37.2754C36.0794 36.9043 36.1543 36.5039 36.1543 36.0742C36.1543 35.8268 36.1087 35.6087 36.0176 35.4199C35.9329 35.2311 35.8125 35.0749 35.6562 34.9512C35.5 34.821 35.3177 34.7266 35.1094 34.668C34.9076 34.6029 34.6895 34.5703 34.4551 34.5703C34.2598 34.5703 34.0612 34.5931 33.8594 34.6387C33.6576 34.6777 33.459 34.7363 33.2637 34.8145C33.0684 34.8926 32.8828 34.9902 32.707 35.1074C32.5378 35.2181 32.3848 35.3451 32.248 35.4883L31.3887 31.6602C31.6296 31.4193 31.9062 31.2174 32.2188 31.0547C32.5312 30.8919 32.86 30.7617 33.2051 30.6641C33.5501 30.5599 33.9017 30.485 34.2598 30.4395C34.6178 30.3939 34.9694 30.3711 35.3145 30.3711C36.0827 30.3711 36.7988 30.5111 37.4629 30.791C38.127 31.0645 38.7031 31.4453 39.1914 31.9336C39.6862 32.4154 40.0736 32.9883 40.3535 33.6523C40.64 34.3164 40.7832 35.0326 40.7832 35.8008ZM53.5078 38.0078C53.5078 38.5807 53.4427 39.1504 53.3125 39.7168C53.1888 40.2832 53.0065 40.8268 52.7656 41.3477C52.5247 41.8685 52.2285 42.3535 51.877 42.8027C51.5319 43.252 51.1348 43.6426 50.6855 43.9746C50.2363 44.3066 49.7415 44.5671 49.2012 44.7559C48.6673 44.9447 48.0911 45.0391 47.4727 45.0391C46.8477 45.0391 46.265 44.9447 45.7246 44.7559C45.1842 44.5671 44.6895 44.3066 44.2402 43.9746C43.7975 43.6426 43.4004 43.252 43.0488 42.8027C42.6973 42.3535 42.401 41.8685 42.1602 41.3477C41.9193 40.8268 41.7337 40.2832 41.6035 39.7168C41.4798 39.1439 41.418 38.5742 41.418 38.0078C41.418 37.4414 41.4798 36.8717 41.6035 36.2988C41.7337 35.7259 41.9193 35.179 42.1602 34.6582C42.401 34.1374 42.6973 33.6523 43.0488 33.2031C43.4004 32.7474 43.7975 32.3535 44.2402 32.0215C44.6895 31.6895 45.1842 31.429 45.7246 31.2402C46.2715 31.0514 46.8542 30.957 47.4727 30.957C48.0911 30.957 48.6673 31.0514 49.2012 31.2402C49.7415 31.429 50.2363 31.6895 50.6855 32.0215C51.1348 32.3535 51.5319 32.7474 51.877 33.2031C52.2285 33.6523 52.5247 34.1374 52.7656 34.6582C53.0065 35.179 53.1888 35.7259 53.3125 36.2988C53.4427 36.8717 53.5078 37.4414 53.5078 38.0078ZM49.3867 38.3008C49.3867 38.0143 49.3477 37.6953 49.2695 37.3438C49.1914 36.9922 49.071 36.6634 48.9082 36.3574C48.7454 36.0514 48.5371 35.7943 48.2832 35.5859C48.0293 35.3776 47.7266 35.2734 47.375 35.2734C47.0169 35.2734 46.7109 35.3776 46.457 35.5859C46.2031 35.7943 45.9915 36.0514 45.8223 36.3574C45.6595 36.6634 45.5391 36.9922 45.4609 37.3438C45.3828 37.6953 45.3438 38.0143 45.3438 38.3008C45.3438 38.5872 45.3828 38.9062 45.4609 39.2578C45.5391 39.6094 45.6595 39.9382 45.8223 40.2441C45.9915 40.5501 46.2031 40.8073 46.457 41.0156C46.7109 41.224 47.0169 41.3281 47.375 41.3281C47.7266 41.3281 48.0293 41.224 48.2832 41.0156C48.5371 40.8073 48.7454 40.5501 48.9082 40.2441C49.071 39.9382 49.1914 39.6094 49.2695 39.2578C49.3477 38.9062 49.3867 38.5872 49.3867 38.3008Z" fill="white" />
		</g>
		<path d="M39 24V18M36 21H42" stroke="white" stroke-width="1.5" stroke-linecap="round" stroke-linejoin="round" />
		<path opacity="0.8" d="M45.6145 76.0277C43.2223 76.5274 40.743 76.7901 38.2024 76.7901C35.7007 76.7901 33.2586 76.5354 30.9004 76.0505V73.3604H45.615V76.0156L45.6145 76.0277Z" fill="#C4C4C4" />
		<path opacity="0.8" d="M11.8709 65.3705C8.49919 61.77 5.82282 58.4244 4.18164 54.3677V50.0713L11.8709 62.6838V65.3705Z" fill="#C4C4C4" />
		<path opacity="0.8" d="M64.5334 65.3706C67.9051 61.7701 70.3604 58.4244 72.2043 54.7366L72.2227 50.0714L64.5334 62.6839V65.3706Z" fill="#C4C4C4" />
		<path d="M12.9501 18.4519C13.6389 17.5664 13.4772 16.265 12.5458 15.6396L10.8801 14.5212C7.63685 18.2812 5.15653 22.7179 3.67969 27.5908L5.4141 28.4413C6.45282 28.9506 7.6963 28.391 8.08575 27.3016C9.23689 24.0818 10.8897 21.1005 12.9501 18.4519Z" fill="white" />
		<path d="M30.9034 4.73463C30.9804 5.8696 32.0535 6.66347 33.1771 6.4861C34.8141 6.22771 36.4923 6.09354 38.2019 6.09354C39.9473 6.09354 41.66 6.2334 43.3295 6.5025C44.4551 6.68395 45.5327 5.88962 45.6098 4.75202L45.7429 2.78955C43.3109 2.27221 40.7882 2 38.2019 2C35.6543 2 33.1683 2.26414 30.77 2.76651L30.9034 4.73463Z" fill="white" />
		<path d="M63.8959 15.6885C62.9657 16.313 62.803 17.6122 63.4893 18.4978C65.5424 21.1468 67.1884 24.1271 68.3335 27.3449C68.7218 28.436 69.9665 28.9973 71.0062 28.4874L72.7384 27.638C71.2694 22.7669 68.7981 18.3304 65.5642 14.5683L63.8959 15.6885Z" fill="white" />
		<path d="M70.4349 49.1374C69.4292 48.6442 68.223 49.1526 67.7981 50.1889C66.5192 53.3082 64.7616 56.1804 62.6166 58.7143C61.8703 59.5958 62.0089 60.9495 62.9678 61.5933L64.574 62.6718C67.9384 59.0673 70.5725 54.7724 72.2406 50.0228L70.4349 49.1374Z" fill="white" />
		<path d="M45.4911 71.4016C45.4142 70.2668 44.3415 69.473 43.218 69.65C41.5838 69.9075 39.9085 70.0412 38.2019 70.0412C36.5311 70.0412 34.8902 69.9131 33.2886 69.666C32.1672 69.4931 31.099 70.2864 31.0222 71.4185L30.8883 73.3928C33.2501 73.8792 35.6962 74.1348 38.2019 74.1348C40.7463 74.1348 43.2291 73.8713 45.6246 73.3702L45.4911 71.4016Z" fill="white" />
		<path d="M13.4762 61.6407C14.4363 60.996 14.5737 59.64 13.825 58.7587C11.6726 56.2255 9.90808 53.3524 8.62318 50.2313C8.19723 49.1967 6.99218 48.6899 5.98755 49.1825L4.17949 50.0691C5.85554 54.8203 8.49865 59.1152 11.8725 62.7174L13.4762 61.6407Z" fill="white" />
	</g>
	<defs>
		<filter id="filter1_d_1106_15707" x="22.8047" y="29.8438" width="30.7031" height="18.322" filterUnits="userSpaceOnUse" color-interpolation-filters="sRGB">
			<feFlood flood-opacity="0" result="BackgroundImageFix" />
			<feColorMatrix in="SourceAlpha" type="matrix" values="0 0 0 0 0 0 0 0 0 0 0 0 0 0 0 0 0 0 127 0" result="hardAlpha" />
			<feOffset dy="1.74" />
			<feComposite in2="hardAlpha" operator="out" />
			<feColorMatrix type="matrix" values="0 0 0 0 0 0 0 0 0 0 0 0 0 0 0 0 0 0 0.25 0" />
			<feBlend mode="normal" in2="BackgroundImageFix" result="effect1_dropShadow_1106_15707" />
			<feBlend mode="normal" in="SourceGraphic" in2="effect1_dropShadow_1106_15707" result="shape" />
		</filter>
	</defs>
</svg>
