<svg width="77" height="77" viewBox="0 0 77 77" fill="none" xmlns="http://www.w3.org/2000/svg">
	<circle cx="38.3369" cy="40.7226" r="35.3819" fill="#61981C" stroke="black" stroke-width="1.37101" />
	<circle cx="38.3369" cy="38.0674" r="36.89" fill="#A5D73A" stroke="black" stroke-width="1.64521" />
	<circle cx="38.3926" cy="38.5655" r="27.9356" fill="#B5EC42" />
	<circle cx="38.3368" cy="37.6248" r="27.659" fill="#4A8402" />
	<circle cx="38.3377" cy="38.9524" r="26.8846" fill="#75B91E" />
	<g filter="url(#filter0_d_1106_15731)">
		<path d="M25.3555 46.3477L25.4531 42.5C25.2448 42.4609 25.0332 42.4154 24.8184 42.3633C24.6035 42.3047 24.3919 42.2461 24.1836 42.1875C23.9818 42.1224 23.7865 42.0573 23.5977 41.9922C23.4089 41.9271 23.2396 41.862 23.0898 41.7969L23.4219 39.3945C23.832 39.6029 24.291 39.7591 24.7988 39.8633C25.3066 39.9674 25.8112 40.0195 26.3125 40.0195C26.4036 40.0195 26.5143 40.0163 26.6445 40.0098C26.7812 40.0033 26.9115 39.987 27.0352 39.9609C27.1589 39.9284 27.263 39.8796 27.3477 39.8145C27.4388 39.7493 27.4844 39.6615 27.4844 39.5508C27.4844 39.4336 27.4193 39.3457 27.2891 39.2871C27.1654 39.222 27.0156 39.1764 26.8398 39.1504C26.6706 39.1178 26.498 39.0983 26.3223 39.0918C26.1465 39.0853 26.013 39.082 25.9219 39.082C25.4987 39.082 25.1146 39.0267 24.7695 38.916C24.4245 38.8053 24.125 38.6491 23.8711 38.4473C23.6237 38.2389 23.4316 37.9915 23.2949 37.7051C23.1582 37.4186 23.0898 37.0964 23.0898 36.7383C23.0898 36.4062 23.1452 36.097 23.2559 35.8105C23.373 35.5241 23.5326 35.2637 23.7344 35.0293C23.9427 34.7949 24.1868 34.5898 24.4668 34.4141C24.7533 34.2318 25.0625 34.082 25.3945 33.9648L25.2383 29.8438L26.293 29.9414V33.7305C26.3841 33.7109 26.472 33.6979 26.5566 33.6914C26.6413 33.6784 26.7292 33.6654 26.8203 33.6523L26.8008 29.8438L27.8555 29.8633L27.7188 33.6523C28.1484 33.6654 28.5814 33.7077 29.0176 33.7793C29.4538 33.8444 29.8542 33.9518 30.2188 34.1016L29.9648 36.582C29.6198 36.4909 29.265 36.4128 28.9004 36.3477C28.5358 36.2826 28.1875 36.25 27.8555 36.25C27.7513 36.25 27.6113 36.2533 27.4355 36.2598C27.2663 36.2663 27.097 36.2858 26.9277 36.3184C26.765 36.3509 26.6217 36.3997 26.498 36.4648C26.3809 36.5299 26.3255 36.6211 26.332 36.7383C26.3385 36.8359 26.3809 36.9108 26.459 36.9629C26.5371 37.0085 26.6348 37.0443 26.752 37.0703C26.8757 37.0898 27.0124 37.0996 27.1621 37.0996C27.3118 37.0996 27.4551 37.0964 27.5918 37.0898C27.735 37.0833 27.8685 37.0768 27.9922 37.0703C28.1159 37.0638 28.2135 37.0638 28.2852 37.0703C28.6758 37.0898 29.0273 37.1582 29.3398 37.2754C29.6523 37.3926 29.9193 37.5521 30.1406 37.7539C30.362 37.9492 30.5312 38.1836 30.6484 38.457C30.7656 38.7305 30.8242 39.0299 30.8242 39.3555C30.8242 39.8112 30.7461 40.2148 30.5898 40.5664C30.4401 40.918 30.2285 41.224 29.9551 41.4844C29.6816 41.7383 29.3529 41.9499 28.9688 42.1191C28.5911 42.2819 28.1745 42.4023 27.7188 42.4805L27.875 46.3281L26.918 46.4258L26.8789 42.5781C26.7878 42.5911 26.6966 42.5977 26.6055 42.5977C26.5143 42.5977 26.4232 42.5977 26.332 42.5977H26.293L26.3125 46.4062L25.3555 46.3477ZM41.6348 40.0781C41.6348 40.9245 41.4818 41.6602 41.1758 42.2852C40.8763 42.9102 40.4661 43.4277 39.9453 43.8379C39.4245 44.248 38.8125 44.554 38.1094 44.7559C37.4062 44.9577 36.6543 45.0586 35.8535 45.0586C35.4694 45.0586 35.0918 45.0326 34.7207 44.9805C34.3496 44.9219 33.9818 44.847 33.6172 44.7559C33.2591 44.6582 32.901 44.5475 32.543 44.4238C32.1914 44.3001 31.8366 44.1667 31.4785 44.0234L31.8496 40.1367C32.084 40.2669 32.3346 40.3874 32.6016 40.498C32.8685 40.6087 33.1419 40.7031 33.4219 40.7812C33.7083 40.8594 33.9948 40.9212 34.2812 40.9668C34.5742 41.0124 34.8574 41.0352 35.1309 41.0352C35.2936 41.0352 35.4922 41.0221 35.7266 40.9961C35.9609 40.9635 36.1855 40.9082 36.4004 40.8301C36.6152 40.7454 36.7975 40.6348 36.9473 40.498C37.1035 40.3548 37.1816 40.1693 37.1816 39.9414C37.1816 39.7266 37.1198 39.541 36.9961 39.3848C36.8789 39.2285 36.7227 39.1016 36.5273 39.0039C36.3385 38.8997 36.1237 38.8184 35.8828 38.7598C35.6419 38.7012 35.3978 38.6556 35.1504 38.623C34.9095 38.5905 34.6784 38.571 34.457 38.5645C34.2422 38.5579 34.0632 38.5547 33.9199 38.5547C33.627 38.5547 33.3275 38.5677 33.0215 38.5938C32.722 38.6198 32.429 38.6719 32.1426 38.75L32.5332 30.8594L40.4434 30.6445L40.6582 34.7266L35.7559 34.4531L35.6582 36.1914C35.9512 36.1198 36.2441 36.0677 36.5371 36.0352C36.8301 35.9961 37.123 35.9766 37.416 35.9766C38.0085 35.9766 38.5586 36.0742 39.0664 36.2695C39.5807 36.4583 40.0267 36.7318 40.4043 37.0898C40.7884 37.4479 41.0879 37.8809 41.3027 38.3887C41.5241 38.89 41.6348 39.4531 41.6348 40.0781ZM54.2227 38.0078C54.2227 38.5807 54.1576 39.1504 54.0273 39.7168C53.9036 40.2832 53.7214 40.8268 53.4805 41.3477C53.2396 41.8685 52.9434 42.3535 52.5918 42.8027C52.2467 43.252 51.8496 43.6426 51.4004 43.9746C50.9512 44.3066 50.4564 44.5671 49.916 44.7559C49.3822 44.9447 48.806 45.0391 48.1875 45.0391C47.5625 45.0391 46.9798 44.9447 46.4395 44.7559C45.8991 44.5671 45.4043 44.3066 44.9551 43.9746C44.5124 43.6426 44.1152 43.252 43.7637 42.8027C43.4121 42.3535 43.1159 41.8685 42.875 41.3477C42.6341 40.8268 42.4486 40.2832 42.3184 39.7168C42.1947 39.1439 42.1328 38.5742 42.1328 38.0078C42.1328 37.4414 42.1947 36.8717 42.3184 36.2988C42.4486 35.7259 42.6341 35.179 42.875 34.6582C43.1159 34.1374 43.4121 33.6523 43.7637 33.2031C44.1152 32.7474 44.5124 32.3535 44.9551 32.0215C45.4043 31.6895 45.8991 31.429 46.4395 31.2402C46.9863 31.0514 47.569 30.957 48.1875 30.957C48.806 30.957 49.3822 31.0514 49.916 31.2402C50.4564 31.429 50.9512 31.6895 51.4004 32.0215C51.8496 32.3535 52.2467 32.7474 52.5918 33.2031C52.9434 33.6523 53.2396 34.1374 53.4805 34.6582C53.7214 35.179 53.9036 35.7259 54.0273 36.2988C54.1576 36.8717 54.2227 37.4414 54.2227 38.0078ZM50.1016 38.3008C50.1016 38.0143 50.0625 37.6953 49.9844 37.3438C49.9062 36.9922 49.7858 36.6634 49.623 36.3574C49.4603 36.0514 49.252 35.7943 48.998 35.5859C48.7441 35.3776 48.4414 35.2734 48.0898 35.2734C47.7318 35.2734 47.4258 35.3776 47.1719 35.5859C46.918 35.7943 46.7064 36.0514 46.5371 36.3574C46.3743 36.6634 46.2539 36.9922 46.1758 37.3438C46.0977 37.6953 46.0586 38.0143 46.0586 38.3008C46.0586 38.5872 46.0977 38.9062 46.1758 39.2578C46.2539 39.6094 46.3743 39.9382 46.5371 40.2441C46.7064 40.5501 46.918 40.8073 47.1719 41.0156C47.4258 41.224 47.7318 41.3281 48.0898 41.3281C48.4414 41.3281 48.7441 41.224 48.998 41.0156C49.252 40.8073 49.4603 40.5501 49.623 40.2441C49.7858 39.9382 49.9062 39.6094 49.9844 39.2578C50.0625 38.9062 50.1016 38.5872 50.1016 38.3008Z" fill="white" />
	</g>
	<path d="M39 24V18M36 21H42" stroke="white" stroke-width="1.5" stroke-linecap="round" stroke-linejoin="round" />
	<path opacity="0.8" d="M45.7493 76.0277C43.3571 76.5274 40.8778 76.7901 38.3371 76.7901C35.8355 76.7901 33.3933 76.5354 31.0352 76.0505V73.3604H45.7498V76.0156L45.7493 76.0277Z" fill="#C4C4C4" />
	<path opacity="0.8" d="M12.0056 65.3705C8.63396 61.77 5.95758 58.4244 4.31641 54.3677V50.0713L12.0056 62.6838V65.3705Z" fill="#C4C4C4" />
	<path opacity="0.8" d="M64.6682 65.3706C68.0399 61.7701 70.4951 58.4244 72.3391 54.7366L72.3574 50.0714L64.6682 62.6839V65.3706Z" fill="#C4C4C4" />
	<path d="M13.0849 18.4519C13.7737 17.5664 13.6119 16.265 12.6806 15.6396L11.0149 14.5212C7.77161 18.2812 5.29129 22.7179 3.81445 27.5908L5.54887 28.4413C6.58758 28.9506 7.83106 28.391 8.22052 27.3016C9.37165 24.0818 11.0245 21.1005 13.0849 18.4519Z" fill="white" />
	<path d="M31.0382 4.73463C31.1151 5.8696 32.1882 6.66347 33.3119 6.4861C34.9489 6.22771 36.6271 6.09354 38.3367 6.09354C40.082 6.09354 41.7948 6.2334 43.4642 6.5025C44.5899 6.68395 45.6675 5.88962 45.7446 4.75202L45.8777 2.78955C43.4456 2.27221 40.923 2 38.3367 2C35.789 2 33.3031 2.26414 30.9048 2.76651L31.0382 4.73463Z" fill="white" />
	<path d="M64.0307 15.6885C63.1005 16.313 62.9378 17.6122 63.6241 18.4978C65.6771 21.1468 67.3231 24.1271 68.4683 27.3449C68.8566 28.436 70.1012 28.9973 71.141 28.4874L72.8732 27.638C71.4042 22.7669 68.9329 18.3304 65.699 14.5683L64.0307 15.6885Z" fill="white" />
	<path d="M70.5696 49.1374C69.564 48.6442 68.3577 49.1526 67.9328 50.1889C66.654 53.3082 64.8963 56.1804 62.7513 58.7143C62.0051 59.5958 62.1436 60.9495 63.1025 61.5933L64.7088 62.6718C68.0731 59.0673 70.7072 54.7724 72.3754 50.0228L70.5696 49.1374Z" fill="white" />
	<path d="M45.6259 71.4016C45.5489 70.2668 44.4762 69.473 43.3528 69.65C41.7186 69.9075 40.0432 70.0412 38.3367 70.0412C36.6659 70.0412 35.025 69.9131 33.4234 69.666C32.3019 69.4931 31.2337 70.2864 31.157 71.4185L31.0231 73.3928C33.3848 73.8792 35.8309 74.1348 38.3367 74.1348C40.881 74.1348 43.3639 73.8713 45.7593 73.3702L45.6259 71.4016Z" fill="white" />
	<path d="M13.6109 61.6407C14.571 60.996 14.7085 59.64 13.9597 58.7587C11.8074 56.2255 10.0428 53.3524 8.75795 50.2313C8.33199 49.1967 7.12695 48.6899 6.12232 49.1825L4.31426 50.0691C5.99031 54.8203 8.63342 59.1152 12.0072 62.7174L13.6109 61.6407Z" fill="white" />
	<defs>
		<filter id="filter0_d_1106_15731" x="23.0898" y="29.8438" width="31.1328" height="18.322" filterUnits="userSpaceOnUse" color-interpolation-filters="sRGB">
			<feFlood flood-opacity="0" result="BackgroundImageFix" />
			<feColorMatrix in="SourceAlpha" type="matrix" values="0 0 0 0 0 0 0 0 0 0 0 0 0 0 0 0 0 0 127 0" result="hardAlpha" />
			<feOffset dy="1.74" />
			<feComposite in2="hardAlpha" operator="out" />
			<feColorMatrix type="matrix" values="0 0 0 0 0 0 0 0 0 0 0 0 0 0 0 0 0 0 0.25 0" />
			<feBlend mode="normal" in2="BackgroundImageFix" result="effect1_dropShadow_1106_15731" />
			<feBlend mode="normal" in="SourceGraphic" in2="effect1_dropShadow_1106_15731" result="shape" />
		</filter>
	</defs>
</svg>
