<svg width="18" height="23" viewBox="0 0 18 23" fill="none" xmlns="http://www.w3.org/2000/svg">
	<g filter="url(#filter0_d_641_1181)">
		<path d="M13.9392 16.0605C14.5249 16.6462 15.4747 16.6462 16.0605 16.0605C16.6463 15.4747 16.6463 14.5249 16.0605 13.9391L11.1212 8.99991L16.0605 4.06069C16.6462 3.4749 16.6462 2.52515 16.0605 1.93937C15.4747 1.35358 14.5249 1.35358 13.9391 1.93937L8.99992 6.87859L4.06068 1.93934C3.47489 1.35355 2.52514 1.35355 1.93936 1.93934C1.35357 2.52513 1.35357 3.47487 1.93936 4.06066L6.8786 8.99991L1.93934 13.9392C1.35355 14.525 1.35355 15.4747 1.93934 16.0605C2.52513 16.6463 3.47487 16.6463 4.06066 16.0605L8.99992 11.1212L13.9392 16.0605Z" fill="white" />
		<path d="M13.5856 1.58581L13.9355 1.93572L13.5856 1.58581L8.99992 6.17148L4.41423 1.58579C3.63318 0.804738 2.36685 0.804738 1.5858 1.58579C0.804756 2.36683 0.804757 3.63317 1.5858 4.41421L6.1715 8.99991L1.58579 13.5856C0.804738 14.3667 0.804738 15.633 1.58579 16.414L1.93934 16.0605L1.58579 16.414C2.36683 17.1951 3.63317 17.1951 4.41421 16.414L8.99992 11.8283L13.5856 16.414C14.3667 17.1951 15.633 17.1951 16.414 16.414C17.1951 15.633 17.1951 14.3666 16.414 13.5856L11.8284 8.99991L16.414 4.41424C17.1951 3.63319 17.1951 2.36686 16.414 1.58582L16.0605 1.93937L16.414 1.58581C15.633 0.804766 14.3666 0.804766 13.5856 1.58581Z" stroke="black" />
	</g>
	<defs>
		<filter id="filter0_d_641_1181" x="0.5" y="0.5" width="16.9998" height="21.8" filterUnits="userSpaceOnUse" color-interpolation-filters="sRGB">
			<feFlood flood-opacity="0" result="BackgroundImageFix" />
			<feColorMatrix in="SourceAlpha" type="matrix" values="0 0 0 0 0 0 0 0 0 0 0 0 0 0 0 0 0 0 127 0" result="hardAlpha" />
			<feOffset dy="4.8" />
			<feComposite in2="hardAlpha" operator="out" />
			<feColorMatrix type="matrix" values="0 0 0 0 0 0 0 0 0 0 0 0 0 0 0 0 0 0 1 0" />
			<feBlend mode="normal" in2="BackgroundImageFix" result="effect1_dropShadow_641_1181" />
			<feBlend mode="normal" in="SourceGraphic" in2="effect1_dropShadow_641_1181" result="shape" />
		</filter>
	</defs>
</svg>
