<svg width="135" height="75" viewBox="0 0 135 75" fill="none" xmlns="http://www.w3.org/2000/svg">
	<path d="M67.4211 13.6895C68.1416 11.6889 70.2637 10.5362 72.4782 10.8776L128.456 19.507C130.671 19.8484 132.347 21.5866 132.432 23.7113C132.553 26.7715 132.383 29.9175 131.892 33.1038C128.436 55.5197 110.573 71.0425 92.2919 68.2244C74.011 65.4062 61.6518 45.2244 65.1074 22.8085C65.5986 19.6222 66.3833 16.5709 67.4211 13.6895Z" fill="white" stroke="black" stroke-width="2" />
	<path d="M73.9679 12.6419C73.0599 12.502 72.1686 12.9968 71.8458 13.857C70.8154 16.6026 70.0337 19.5586 69.5542 22.6695C66.8827 39.9991 74.5991 55.571 86.7892 57.4502C98.9794 59.3294 111.027 46.8043 113.699 29.4746C114.178 26.3638 114.323 23.3096 114.167 20.3811C114.119 19.4637 113.418 18.7234 112.51 18.5834L73.9679 12.6419Z" fill="#C8FD7B" />
	<path d="M85.9792 13.355C84.3431 17.0146 83.1092 21.2481 82.4522 25.8263C80.233 41.2931 85.4406 54.8367 94.0838 56.077C100.956 57.0632 107.932 49.9732 111.617 39.2511L97.4722 27.0279L114.153 26.5185C114.362 23.4184 114.271 20.4359 113.914 17.6614L85.9792 13.355Z" fill="black" />
	<path d="M9.66194 4.78549C10.3825 2.78493 12.5046 1.63224 14.7191 1.97363L70.6969 10.603C72.9114 10.9444 74.5879 12.6826 74.6725 14.8073C74.7943 17.8675 74.6237 21.0135 74.1325 24.1998C70.6769 46.6157 52.8136 62.1385 34.5327 59.3204C16.2518 56.5022 3.89268 36.3204 7.34825 13.9045C7.83944 10.7182 8.62413 7.66689 9.66194 4.78549Z" fill="white" stroke="black" stroke-width="2" />
	<path d="M14.1351 4.29311C13.2271 4.15314 12.3358 4.64802 12.013 5.50814C10.9826 8.25381 10.2009 11.2098 9.72135 14.3206C7.04986 31.6503 14.7663 47.2222 26.9564 49.1014C39.1465 50.9806 51.1943 38.4555 53.8658 21.1258C54.3453 18.015 54.4902 14.9608 54.3345 12.0323C54.2857 11.1149 53.5848 10.3746 52.6768 10.2346L14.1351 4.29311Z" fill="#C8FD7B" />
	<path d="M28.2201 4.45101C26.5841 8.11056 25.3501 12.3441 24.6931 16.9223C22.4739 32.3891 27.6815 45.9327 36.3247 47.173C43.1974 48.1592 50.1729 41.0692 53.858 30.3471L39.7131 18.124L56.3939 17.6145C56.6029 14.5144 56.5118 11.5319 56.1553 8.75742L28.2201 4.45101Z" fill="black" />
</svg>
