<svg width="128" height="115" viewBox="0 0 128 115" fill="none" xmlns="http://www.w3.org/2000/svg">
	<path d="M37.7312 106.131L3.06583 58.0425C1.79999 56.2865 2.15968 53.8377 3.90445 52.5564C38.2904 27.3053 77.0699 15.8088 95.3095 12.6188C97.1519 12.2965 98.9264 13.3633 99.5863 15.1134L117.347 62.2161C118.119 64.2624 117.105 66.5453 115.084 67.38C86.8136 79.0529 57.5014 97.3165 43.3084 107.086C41.4947 108.335 39.0187 107.917 37.7312 106.131Z" fill="#78E381" stroke="black" stroke-width="2" />
	<path d="M60.0358 54.4064C64.8101 60.0528 67.82 66.2098 68.8624 71.5633C69.912 76.9535 68.9395 81.2901 66.1261 83.6689C63.3128 86.0477 58.8749 86.286 53.7341 84.3551C48.6283 82.4373 43.0573 78.446 38.283 72.7995C33.5086 67.1531 30.4988 60.9962 29.4563 55.6426C28.4067 50.2524 29.3793 45.9159 32.1926 43.537C35.006 41.1582 39.4438 40.92 44.5846 42.8509C49.6904 44.7686 55.2615 48.76 60.0358 54.4064Z" fill="#F6ACFF" stroke="black" stroke-width="2" />
	<path d="M93.7286 42C96.4694 48.0549 97.5569 54.1133 97.1438 58.9883C96.7275 63.9006 94.8265 67.3739 91.8509 68.7208C88.8753 70.0677 85.0111 69.2041 81.0455 66.2752C77.11 63.3686 73.2757 58.5536 70.5349 52.4987C67.7942 46.4438 66.7067 40.3854 67.1198 35.5104C67.536 30.5981 69.4371 27.1248 72.4127 25.7779C75.3883 24.431 79.2525 25.2946 83.218 28.2235C87.1535 31.1302 90.9879 35.9452 93.7286 42Z" fill="#F6ACFF" stroke="black" stroke-width="2" />
	<path d="M72.213 37.9159L81.1905 32.4388C81.7395 32.1039 82.4397 32.5187 82.4098 33.1611L82.0188 41.5443C81.9888 42.1867 82.6891 42.6015 83.2381 42.2665L87.9031 39.4204C88.4377 39.0943 89.1232 39.4791 89.1232 40.1053L89.1227 62.7029C89.1226 63.6227 87.8266 63.8191 87.5541 62.9405L84.0591 51.6717C83.875 51.0781 83.115 50.9102 82.698 51.371L77.4295 57.1926C76.995 57.6727 76.2001 57.4668 76.0533 56.8362L71.8494 38.7828C71.7709 38.4456 71.9175 38.0962 72.213 37.9159Z" fill="#FBFF2A" stroke="black" stroke-width="2" />
	<path d="M39.7994 55.0703L48.7769 49.5932C49.3259 49.2583 50.0261 49.6731 49.9962 50.3155L49.6052 58.6987C49.5752 59.3411 50.2754 59.7559 50.8244 59.4209L55.4895 56.5748C56.0241 56.2487 56.7096 56.6335 56.7096 57.2597L56.709 79.8573C56.709 80.7771 55.413 80.9735 55.1405 80.0949L51.6455 68.8261C51.4614 68.2325 50.7014 68.0646 50.2844 68.5254L45.0159 74.347C44.5814 74.8271 43.7865 74.6212 43.6397 73.9906L39.4358 55.9372C39.3573 55.6001 39.5039 55.2506 39.7994 55.0703Z" fill="#FBFF2A" stroke="black" stroke-width="2" />
</svg>
