<svg width="1440" height="320" viewBox="0 0 1440 320" fill="none" xmlns="http://www.w3.org/2000/svg">
<g clip-path="url(#clip0_44_2)">
<g filter="url(#filter0_d_44_2)">
<path fill-rule="evenodd" clip-rule="evenodd" d="M358.832 21.5257C776.627 91.4068 1199.19 336.699 1579.88 804.991L1269.5 1057.31C938.205 649.773 597.284 466.966 292.844 416.045C-12.9976 364.889 -303.613 443.122 -540.72 596.304L-757.781 260.322C-447.927 60.141 -57.561 -48.121 358.832 21.5257Z" fill="#8C53EF"/>
<path d="M358.634 22.7092C775.812 92.4871 1197.85 337.313 1578.19 804.817L1269.67 1055.62C938.468 648.555 597.59 465.801 293.042 414.862C-12.6976 363.723 -303.222 441.752 -540.363 594.646L-756.122 260.679C-446.647 61.0553 -56.9758 -46.8064 358.634 22.7092Z" stroke="black" stroke-width="2.4"/>
</g>
<path d="M0 320H1440.69V107.685H900.673L653.622 138.297L345.346 107.685L0 111.511V320Z" fill="black"/>
</g>
<defs>
<filter id="filter0_d_44_2" x="-757.782" y="0.381512" width="2337.66" height="1061.73" filterUnits="userSpaceOnUse" color-interpolation-filters="sRGB">
<feFlood flood-opacity="0" result="BackgroundImageFix"/>
<feColorMatrix in="SourceAlpha" type="matrix" values="0 0 0 0 0 0 0 0 0 0 0 0 0 0 0 0 0 0 127 0" result="hardAlpha"/>
<feOffset dy="4.8"/>
<feComposite in2="hardAlpha" operator="out"/>
<feColorMatrix type="matrix" values="0 0 0 0 0 0 0 0 0 0 0 0 0 0 0 0 0 0 1 0"/>
<feBlend mode="normal" in2="BackgroundImageFix" result="effect1_dropShadow_44_2"/>
<feBlend mode="normal" in="SourceGraphic" in2="effect1_dropShadow_44_2" result="shape"/>
</filter>
<clipPath id="clip0_44_2">
<rect width="1440" height="320" fill="white"/>
</clipPath>
</defs>
</svg>
