<svg width="16" height="17" viewBox="0 0 16 17" fill="none" xmlns="http://www.w3.org/2000/svg">
<g filter="url(#filter0_d_68_28189)">
<path d="M7.10445 1.80245C7.47215 1.06239 8.52785 1.06239 8.89555 1.80245L10.1281 4.28322C10.2737 4.57628 10.5535 4.77956 10.8772 4.82748L13.6175 5.23313C14.4349 5.35414 14.7612 6.35818 14.171 6.93657L12.1925 8.87542C11.9588 9.10447 11.8519 9.43338 11.9064 9.75606L12.3673 12.4875C12.5049 13.3024 11.6508 13.9229 10.9183 13.5403L8.46298 12.2578C8.17292 12.1063 7.82708 12.1063 7.53702 12.2578L5.08169 13.5403C4.34922 13.9229 3.49513 13.3024 3.63265 12.4875L4.09363 9.75606C4.14809 9.43338 4.04122 9.10447 3.8075 8.87542L1.82903 6.93657C1.23882 6.35818 1.56506 5.35414 2.38252 5.23313L5.12276 4.82748C5.44647 4.77956 5.72626 4.57628 5.87187 4.28322L7.10445 1.80245Z" fill="#B8FA2C"/>
<path d="M3.45754 9.23253L3.8075 8.87542L3.45754 9.23254C3.5744 9.34706 3.62784 9.51151 3.60061 9.67285L3.13962 12.4043C2.93335 13.6266 4.21447 14.5574 5.31317 13.9835L7.76851 12.701C7.91354 12.6253 8.08646 12.6253 8.23149 12.701L10.6868 13.9835C11.7855 14.5574 13.0667 13.6266 12.8604 12.4043L12.3994 9.67285C12.3722 9.51151 12.4256 9.34706 12.5425 9.23253L14.5209 7.29368C15.4062 6.42609 14.9169 4.92004 13.6907 4.73852L10.9505 4.33287C10.7886 4.30891 10.6487 4.20727 10.5759 4.06074L9.34333 1.57997C8.79178 0.469882 7.20822 0.469882 6.65667 1.57997L5.42409 4.06074C5.35129 4.20727 5.2114 4.30891 5.04954 4.33287L2.3093 4.73852C1.0831 4.92004 0.593759 6.42609 1.47907 7.29368L3.45754 9.23253Z" stroke="black"/>
</g>
<defs>
<filter id="filter0_d_68_28189" x="0.526855" y="0.247314" width="14.9463" height="16.4109" filterUnits="userSpaceOnUse" color-interpolation-filters="sRGB">
<feFlood flood-opacity="0" result="BackgroundImageFix"/>
<feColorMatrix in="SourceAlpha" type="matrix" values="0 0 0 0 0 0 0 0 0 0 0 0 0 0 0 0 0 0 127 0" result="hardAlpha"/>
<feOffset dy="2"/>
<feComposite in2="hardAlpha" operator="out"/>
<feColorMatrix type="matrix" values="0 0 0 0 0 0 0 0 0 0 0 0 0 0 0 0 0 0 1 0"/>
<feBlend mode="normal" in2="BackgroundImageFix" result="effect1_dropShadow_68_28189"/>
<feBlend mode="normal" in="SourceGraphic" in2="effect1_dropShadow_68_28189" result="shape"/>
</filter>
</defs>
</svg>
