<svg width="27" height="32" viewBox="0 0 27 32" fill="none" xmlns="http://www.w3.org/2000/svg">
	<g filter="url(#filter0_d_833_19636)">
		<circle cx="13.0994" cy="12.99" r="12.0994" fill="#61981C" />
		<circle cx="13.0994" cy="12.99" r="11.0994" stroke="black" stroke-width="2" />
	</g>
	<circle cx="13.0994" cy="12.0992" r="12.0994" fill="#A5D73A" />
	<circle cx="13.0994" cy="12.0992" r="12.0994" stroke="black" />
	<circle cx="13" cy="11.9999" r="8" fill="#B5EC42" />
	<circle cx="13" cy="11.9999" r="8" fill="#4A8402" />
	<circle cx="13" cy="12.9999" r="7" fill="#75B91E" />
	<path opacity="0.8" d="M15.5865 24.8336C14.784 25.0013 13.9523 25.0894 13.1 25.0894C12.2607 25.0894 11.4415 25.004 10.6504 24.8413V23.9388H15.5866V24.8296L15.5865 24.8336Z" fill="#C4C4C4" />
	<path opacity="0.8" d="M4.26501 21.2585C3.13394 20.0506 2.2361 18.9283 1.68555 17.5674V16.1261L4.26501 20.3572V21.2585Z" fill="#C4C4C4" />
	<path opacity="0.8" d="M21.9323 21.2585C23.0633 20.0506 23.887 18.9283 24.5056 17.6911L24.5117 16.1261L21.9323 20.3572V21.2585Z" fill="#C4C4C4" />
	<path d="M4.2311 6.06272C4.64374 5.45774 4.54106 4.60854 3.93308 4.20033C2.84507 5.46167 2.01301 6.95002 1.51758 8.58471C2.16868 8.90398 2.94705 8.55126 3.23224 7.88452C3.5068 7.24263 3.84217 6.63295 4.2311 6.06272Z" fill="white" />
	<path d="M10.6054 0.257016C10.6548 0.984388 11.3436 1.49095 12.0694 1.42186C12.4081 1.38961 12.7514 1.37312 13.0986 1.37312C13.4583 1.37312 13.8138 1.39083 14.1644 1.42541C14.8894 1.49693 15.5791 0.991571 15.6283 0.264745C14.8125 0.0911966 13.9662 -0.00012207 13.0986 -0.00012207C12.244 -0.00012207 11.41 0.0884873 10.6054 0.257016Z" fill="white" />
	<path d="M22.2777 4.21611C21.6695 4.6245 21.566 5.47368 21.9777 6.07972C22.3647 6.64949 22.6983 7.25847 22.9713 7.89947C23.2554 8.56643 24.0335 8.91972 24.6844 8.60055C24.1916 6.96645 23.3626 5.47816 22.2777 4.21611Z" fill="white" />
	<path d="M24.5174 16.1099C23.8594 15.7872 23.0719 16.1222 22.7516 16.7813C22.4533 17.3952 22.0982 17.9763 21.6931 18.5179C21.2586 19.0987 21.3433 19.9488 21.9455 20.3532C23.0742 19.144 23.9578 17.7032 24.5174 16.1099Z" fill="white" />
	<path d="M15.5886 23.9421C15.5393 23.2147 14.8505 22.708 14.1247 22.7769C13.787 22.809 13.4447 22.8254 13.0986 22.8254C12.765 22.8254 12.435 22.8101 12.1091 22.7803C11.3825 22.7139 10.6945 23.2217 10.6451 23.9497C11.4374 24.1129 12.258 24.1986 13.0986 24.1986C13.9521 24.1986 14.785 24.1102 15.5886 23.9421Z" fill="white" />
	<path d="M4.26597 20.3685C4.86795 19.9643 4.95191 19.1141 4.51648 18.5343C4.10946 17.9924 3.75258 17.4106 3.45272 16.7959C3.13129 16.137 2.3435 15.8026 1.68525 16.1254C2.2475 17.7193 3.13417 19.1601 4.26597 20.3685Z" fill="white" />
	<defs>
		<filter id="filter0_d_833_19636" x="0" y="0.890625" width="26.1982" height="30.1987" filterUnits="userSpaceOnUse" color-interpolation-filters="sRGB">
			<feFlood flood-opacity="0" result="BackgroundImageFix" />
			<feColorMatrix in="SourceAlpha" type="matrix" values="0 0 0 0 0 0 0 0 0 0 0 0 0 0 0 0 0 0 127 0" result="hardAlpha" />
			<feOffset dy="5" />
			<feGaussianBlur stdDeviation="0.5" />
			<feComposite in2="hardAlpha" operator="out" />
			<feColorMatrix type="matrix" values="0 0 0 0 0 0 0 0 0 0 0 0 0 0 0 0 0 0 0.45 0" />
			<feBlend mode="normal" in2="BackgroundImageFix" result="effect1_dropShadow_833_19636" />
			<feBlend mode="normal" in="SourceGraphic" in2="effect1_dropShadow_833_19636" result="shape" />
		</filter>
	</defs>
</svg>
