<svg width="20" height="23" viewBox="0 0 20 23" fill="none" xmlns="http://www.w3.org/2000/svg">
<g filter="url(#filter0_d_94_1489)">
<circle cx="9.81848" cy="9.50646" r="8.85461" fill="#61981C"/>
<circle cx="9.81848" cy="9.50646" r="8.12278" stroke="black" stroke-width="1.46365"/>
</g>
<circle cx="9.81848" cy="8.85461" r="8.85461" fill="#A5D73A"/>
<circle cx="9.81848" cy="8.85461" r="8.85461" stroke="black"/>
<circle cx="9.74571" cy="8.78184" r="5.85459" fill="#B5EC42"/>
<circle cx="9.74571" cy="8.78184" r="5.85459" fill="#4A8402"/>
<circle cx="9.74582" cy="9.51388" r="5.12277" fill="#75B91E"/>
<path opacity="0.8" d="M11.6382 18.1739C11.0509 18.2966 10.4423 18.361 9.81853 18.361C9.20437 18.361 8.60481 18.2985 8.02588 18.1795V17.519H11.6383V18.1709L11.6382 18.1739Z" fill="#C4C4C4"/>
<path opacity="0.8" d="M3.35451 15.5577C2.52676 14.6738 1.86971 13.8525 1.4668 12.8565V11.8018L3.35451 14.8982V15.5577Z" fill="#C4C4C4"/>
<path opacity="0.8" d="M16.2822 15.5577C17.11 14.6738 17.7127 13.8525 18.1654 12.9471L18.1699 11.8018L16.2822 14.8982V15.5577Z" fill="#C4C4C4"/>
<path d="M3.32908 4.43694C3.63106 3.9942 3.55592 3.37273 3.11099 3.07399C2.31475 3.99707 1.70583 5.08629 1.34326 6.28259C1.81975 6.51624 2.38939 6.25811 2.59809 5.77017C2.79902 5.30042 3.04445 4.85424 3.32908 4.43694Z" fill="white"/>
<path d="M7.99399 0.18818C8.03007 0.720489 8.5342 1.0912 9.06533 1.04064C9.31321 1.01704 9.56446 1.00497 9.81853 1.00497C10.0818 1.00497 10.342 1.01793 10.5985 1.04324C11.1291 1.09558 11.6338 0.725745 11.6699 0.193836C11.0728 0.0668292 10.4535 0 9.81853 0C9.19308 0 8.58278 0.0648465 7.99399 0.18818Z" fill="white"/>
<path d="M16.536 3.08554C16.0909 3.38441 16.0152 4.00586 16.3164 4.44937C16.5997 4.86635 16.8438 5.31201 17.0436 5.78111C17.2515 6.26921 17.821 6.52776 18.2973 6.29418C17.9367 5.09831 17.33 4.00914 16.536 3.08554Z" fill="white"/>
<path d="M18.1751 11.7897C17.6935 11.5536 17.1172 11.7987 16.8828 12.2811C16.6645 12.7303 16.4046 13.1556 16.1082 13.5519C15.7902 13.977 15.8522 14.5991 16.2929 14.895C17.1189 14.0101 17.7656 12.9557 18.1751 11.7897Z" fill="white"/>
<path d="M11.6408 17.5215C11.6047 16.9892 11.1006 16.6184 10.5695 16.6688C10.3223 16.6922 10.0718 16.7042 9.81853 16.7042C9.5744 16.7042 9.33287 16.6931 9.09442 16.6713C8.56267 16.6227 8.05916 16.9943 8.02304 17.5271C8.60285 17.6465 9.20337 17.7092 9.81853 17.7092C10.4432 17.7092 11.0527 17.6445 11.6408 17.5215Z" fill="white"/>
<path d="M3.3546 14.9062C3.79515 14.6105 3.85659 13.9883 3.53793 13.564C3.24006 13.1674 2.97889 12.7416 2.75945 12.2918C2.52421 11.8096 1.94769 11.5648 1.46597 11.801C1.87744 12.9675 2.52633 14.0219 3.3546 14.9062Z" fill="white"/>
<defs>
<filter id="filter0_d_94_1489" x="0.232043" y="0.651855" width="19.1726" height="22.0999" filterUnits="userSpaceOnUse" color-interpolation-filters="sRGB">
<feFlood flood-opacity="0" result="BackgroundImageFix"/>
<feColorMatrix in="SourceAlpha" type="matrix" values="0 0 0 0 0 0 0 0 0 0 0 0 0 0 0 0 0 0 127 0" result="hardAlpha"/>
<feOffset dy="3.65912"/>
<feGaussianBlur stdDeviation="0.365912"/>
<feComposite in2="hardAlpha" operator="out"/>
<feColorMatrix type="matrix" values="0 0 0 0 0 0 0 0 0 0 0 0 0 0 0 0 0 0 0.45 0"/>
<feBlend mode="normal" in2="BackgroundImageFix" result="effect1_dropShadow_94_1489"/>
<feBlend mode="normal" in="SourceGraphic" in2="effect1_dropShadow_94_1489" result="shape"/>
</filter>
</defs>
</svg>
