<svg width="348" height="121" viewBox="0 0 348 121" fill="none" xmlns="http://www.w3.org/2000/svg">
	<g opacity="0.7" filter="url(#filter0_f_1098_9292)">
		<path fill-rule="evenodd" clip-rule="evenodd" d="M329.92 75.8118C334.129 71.271 335.801 64.9609 334.934 56.8815L331.522 25.0686C331.444 24.3392 331.015 23.5058 330.235 22.5683C329.146 21.3804 326.839 20.9767 323.315 21.357C319.175 21.8037 315.571 22.7601 312.503 24.2263C309.491 25.6865 308.06 27.118 308.211 28.5206L310.499 49.8534L302.792 47.6366L300.727 28.3917C300.649 27.6623 300.192 26.8319 299.357 25.9004C298.211 24.7186 295.96 24.3088 292.604 24.671C288.97 25.0631 285.759 25.8354 282.971 26.9879C282.91 26.5351 282.839 26.1217 282.76 25.7478C282.478 24.1677 281.916 23.3777 281.072 23.3777H235.415C234.29 23.3777 233.39 24.6474 232.714 27.1868C232.69 27.2775 232.666 27.3687 232.642 27.4603L302.792 47.6366L303.418 53.4716C303.576 54.9478 303.734 56.3071 303.892 57.5495L280.228 58.0587L278.832 45.0472H269.257V58.2948L245.711 58.8014V45.0472H233.98C233.503 45.0472 233.075 44.5765 232.698 43.635C231.624 45.0108 230.659 45.6427 229.804 45.5305C229.58 45.5012 228.888 45.1543 227.726 44.4896C224.256 42.3839 221.294 41.17 218.839 40.848C216.44 40.5333 214.765 40.5412 213.814 40.8717C212.919 41.2096 212.41 41.8541 212.285 42.8053C212.169 43.7006 212.684 44.5365 213.831 45.313C214.985 46.0336 216.422 46.7628 218.142 47.5006C219.924 48.1897 221.81 49.1769 223.798 50.4622C225.85 51.6989 227.709 53.1095 229.375 54.6939C230.648 55.8569 231.701 57.3206 232.534 59.085L205.069 59.676C204.909 59.6052 204.746 59.5351 204.581 59.4656C202.813 58.6645 200.906 57.6177 198.862 56.325C196.873 55.0397 195.039 53.6608 193.359 52.1883C191.678 50.7158 190.37 48.7799 189.435 46.3807C189.173 45.6888 188.964 44.9788 188.806 44.2507L190.042 29.6221C190.123 28.6662 189.236 27.798 187.382 27.0174C185.585 26.2416 182.724 25.687 178.799 25.3534C174.875 25.0198 171.209 25.3028 167.802 26.2025C164.455 27.0507 162.522 28.2172 162.001 29.702L154.823 50.4993L154.066 50.4349L150.229 27.682C150.044 26.5336 149.153 25.3818 147.557 24.2267C145.961 23.0716 143.2 22.3273 139.276 21.9937C135.352 21.6601 131.619 21.7392 128.076 22.2309C124.595 22.6712 122.799 23.538 122.69 24.8313L120.017 56.4661C117.61 48.3751 114.564 38.1921 110.881 25.9171C110.375 24.2241 107.674 23.3777 102.779 23.3777C97.9409 23.3777 93.3836 23.6316 89.1077 24.1395C84.888 24.5909 82.6376 25.1835 82.3562 25.9171C81.6248 28.3436 78.7555 37.5419 73.7481 53.5119C72.1161 58.6987 70.75 63.1121 69.6499 66.7523L66.4684 25.1592C66.2747 22.6273 63.5413 21.5642 58.2682 21.97C54.4535 22.2635 50.9366 23.1284 47.7172 24.5647C44.5496 25.9404 43.0196 27.3315 43.1272 28.7382L44.4119 45.5335L36.9229 46.1098L35.5027 27.5421C35.309 25.0101 32.5476 23.9492 27.2183 24.3593C23.4037 24.6528 19.9148 25.5156 16.7515 26.9475C13.5839 28.3232 12.054 29.7144 12.1616 31.121L16.1318 83.0261C16.1964 83.8701 16.7205 84.4524 17.7043 84.7728C18.7442 85.089 20.9751 85.1154 24.397 84.8521C27.8751 84.5845 31.2798 84.0961 34.6112 83.3869C37.9987 82.6735 39.6645 81.951 39.6085 81.2196L38.1302 61.8923L45.6191 61.316L47.0975 80.6433C47.1621 81.4873 47.6862 82.0695 48.67 82.39C49.7099 82.7062 51.9408 82.7326 55.3627 82.4693C58.7846 82.2059 62.1894 81.7176 65.5769 81.0041C66.0392 80.9067 66.4694 80.8092 66.8676 80.7115C67.5237 81.3399 68.692 81.8948 70.3724 82.3764C73.1855 83.11 76.6738 83.4768 80.8372 83.4768C85.0006 83.4768 87.8699 83.1664 89.4453 82.5457C91.0769 81.9249 91.9489 80.7963 92.0615 79.1598L92.4834 74.4196H100.585L101.176 79.9216C101.401 82.2917 106.493 83.4768 116.451 83.4768C121.121 83.4768 124.243 82.856 125.819 81.6145C125.984 81.4768 126.128 81.339 126.253 81.2012L130.936 81.5993C137.958 82.0263 141.531 81.5088 141.655 80.0469C142.011 75.8297 142.174 67.8865 142.144 56.2175L142.9 56.2818L145.581 78.6817C145.669 79.6519 145.95 80.3271 146.426 80.7074C146.959 81.0924 148.43 81.3874 150.841 81.5923C153.251 81.7972 155.062 81.7529 156.272 81.4594C157.539 81.1706 158.292 80.6116 158.531 79.7825L164.764 58.1404L165.521 58.2047C163.608 69.482 162.464 77.3418 162.089 81.7839C161.951 83.4146 164.181 84.4253 168.778 84.8161C173.375 85.2068 177.29 85.3131 180.524 85.1349C183.757 84.9567 185.405 84.5021 185.466 83.7711L185.942 78.1468C187.681 79.0632 190.091 80.0204 193.173 81.0183C197.311 82.3579 201.723 83.3351 206.409 83.9499C211.151 84.572 215.051 84.6853 218.11 84.2899C221.232 83.8458 223.71 83.118 225.544 82.1066C227.379 81.0952 228.935 79.8197 230.214 78.2801C232.301 75.7652 233.563 72.8292 234.001 69.4719C234.417 66.2825 234.168 63.4043 233.255 60.8372C233.036 60.2234 232.796 59.6394 232.534 59.085L245.711 58.8014V81.4453C245.711 82.1789 246.161 82.715 247.061 83.0535C248.018 83.3357 250.212 83.4768 253.644 83.4768C257.132 83.4768 260.592 83.3075 264.024 82.9689C267.513 82.5739 269.257 82.066 269.257 81.4453V58.2948L280.228 58.0587L280.729 62.7308C281.596 70.8102 284.595 76.6163 289.727 80.1489C294.854 83.6255 301.78 84.8929 310.507 83.9513C319.289 83.0035 325.76 80.2904 329.92 75.8118ZM188.951 60.0228L205.069 59.676C206.624 60.3637 207.915 61.1103 208.942 61.9159C210.082 62.7484 210.593 63.6122 210.477 64.5075C210.36 65.4028 209.934 66.0583 209.199 66.4741C208.471 66.8339 206.991 66.8674 204.76 66.5746C202.528 66.2819 199.308 65.091 195.097 63.002C191.895 61.4133 189.847 60.4202 188.951 60.0228ZM188.951 60.0228L187.47 60.0547C187.8 59.8591 188.126 59.7824 188.448 59.8247C188.501 59.8317 188.669 59.8977 188.951 60.0228ZM303.892 57.5495L311.258 57.391C311.583 61.2594 311.662 63.9476 311.493 65.4556C311.312 67.4616 310.439 68.5491 308.873 68.7181C307.306 68.8871 306.163 67.9889 305.443 66.0234C304.929 64.4678 304.412 61.6431 303.892 57.5495ZM311.258 57.391L334.934 56.8815L310.499 49.8534L310.792 52.5907C310.982 54.3537 311.137 55.9538 311.258 57.391ZM97.547 43.1003L98.8129 58.3367H94.2557L95.6904 43.1003H97.547Z" fill="#010101" />
	</g>
	<g opacity="0.4" filter="url(#filter1_f_1098_9292)">
		<path fill-rule="evenodd" clip-rule="evenodd" d="M329.92 85.8119C334.129 81.2711 335.801 74.961 334.934 66.8816L331.522 35.0688C331.444 34.3394 331.015 33.5059 330.235 32.5684C329.146 31.3806 326.839 30.9768 323.315 31.3571C319.175 31.8038 315.571 32.7602 312.503 34.2265C309.491 35.6867 308.06 37.1181 308.211 38.5208L310.499 59.8535L302.792 57.6368L300.727 38.3918C300.649 37.6624 300.192 36.832 299.357 35.9005C298.211 34.7187 295.96 34.3089 292.604 34.6711C288.97 35.0632 285.759 35.8356 282.971 36.9881C282.91 36.5352 282.839 36.1218 282.76 35.7479C282.478 34.1678 281.916 33.3778 281.072 33.3778H235.415C234.29 33.3778 233.39 34.6475 232.714 37.1869C232.69 37.2776 232.666 37.3688 232.642 37.4604L302.792 57.6368L303.418 63.4718C303.576 64.9479 303.734 66.3072 303.892 67.5496L280.228 68.0588L278.832 55.0473H269.257V68.2949L245.711 68.8016V55.0473H233.98C233.503 55.0473 233.075 54.5766 232.698 53.6351C231.624 55.011 230.659 55.6428 229.804 55.5306C229.58 55.5013 228.888 55.1544 227.726 54.4898C224.256 52.384 221.294 51.1701 218.839 50.8481C216.44 50.5334 214.765 50.5413 213.814 50.8718C212.919 51.2097 212.41 51.8542 212.285 52.8054C212.169 53.7007 212.684 54.5366 213.831 55.3131C214.985 56.0337 216.422 56.7629 218.142 57.5007C219.924 58.1898 221.81 59.1771 223.798 60.4624C225.85 61.699 227.709 63.1096 229.375 64.694C230.648 65.8571 231.701 67.3207 232.534 69.0851L205.069 69.6761C204.909 69.6054 204.746 69.5352 204.581 69.4657C202.813 68.6646 200.906 67.6178 198.862 66.3252C196.873 65.0399 195.039 63.6609 193.359 62.1884C191.678 60.7159 190.37 58.78 189.435 56.3808C189.173 55.6889 188.964 54.9789 188.806 54.2509L190.042 39.6222C190.123 38.6663 189.236 37.7981 187.382 37.0176C185.585 36.2418 182.724 35.6871 178.799 35.3535C174.875 35.0199 171.209 35.3029 167.802 36.2026C164.455 37.0508 162.522 38.2173 162.001 39.7021L154.823 60.4994L154.066 60.4351L150.229 37.6821C150.044 36.5337 149.153 35.3819 147.557 34.2268C145.961 33.0717 143.2 32.3274 139.276 31.9938C135.352 31.6602 131.619 31.7393 128.076 32.231C124.595 32.6713 122.799 33.5381 122.69 34.8314L120.017 66.4663C117.61 58.3753 114.564 48.1922 110.881 35.9172C110.375 34.2243 107.674 33.3778 102.779 33.3778C97.9409 33.3778 93.3836 33.6317 89.1077 34.1396C84.888 34.5911 82.6376 35.1836 82.3562 35.9172C81.6248 38.3437 78.7555 47.542 73.7481 63.512C72.1161 68.6988 70.75 73.1123 69.6499 76.7524L66.4684 35.1594C66.2747 32.6274 63.5413 31.5643 58.2682 31.9701C54.4535 32.2636 50.9366 33.1285 47.7172 34.5648C44.5496 35.9405 43.0196 37.3316 43.1272 38.7383L44.4119 55.5336L36.9229 56.1099L35.5027 37.5422C35.309 35.0102 32.5476 33.9493 27.2183 34.3594C23.4037 34.6529 19.9148 35.5157 16.7515 36.9476C13.5839 38.3233 12.054 39.7145 12.1616 41.1211L16.1318 93.0263C16.1964 93.8703 16.7205 94.4525 17.7043 94.773C18.7442 95.0891 20.9751 95.1155 24.397 94.8522C27.8751 94.5846 31.2798 94.0962 34.6112 93.3871C37.9987 92.6736 39.6645 91.9512 39.6085 91.2197L38.1302 71.8924L45.6191 71.3162L47.0975 90.6434C47.1621 91.4874 47.6862 92.0697 48.67 92.3901C49.7099 92.7063 51.9408 92.7327 55.3627 92.4694C58.7846 92.2061 62.1894 91.7177 65.5769 91.0042C66.0392 90.9069 66.4694 90.8093 66.8676 90.7116C67.5237 91.34 68.692 91.8949 70.3724 92.3765C73.1855 93.1101 76.6738 93.4769 80.8372 93.4769C85.0006 93.4769 87.8699 93.1665 89.4453 92.5458C91.0769 91.925 91.9489 90.7964 92.0615 89.1599L92.4834 84.4197H100.585L101.176 89.9217C101.401 92.2919 106.493 93.4769 116.451 93.4769C121.121 93.4769 124.243 92.8562 125.819 91.6147C125.984 91.4769 126.128 91.3391 126.253 91.2013L130.936 91.5994C137.958 92.0264 141.531 91.509 141.655 90.047C142.011 85.8298 142.174 77.8866 142.144 66.2176L142.9 66.2819L145.581 88.6818C145.669 89.652 145.95 90.3272 146.426 90.7075C146.959 91.0925 148.43 91.3875 150.841 91.5924C153.251 91.7973 155.062 91.753 156.272 91.4595C157.539 91.1707 158.292 90.6118 158.531 89.7826L164.764 68.1405L165.521 68.2048C163.608 79.4822 162.464 87.3419 162.089 91.784C161.951 93.4147 164.181 94.4254 168.778 94.8162C173.375 95.2069 177.29 95.3132 180.524 95.135C183.757 94.9568 185.405 94.5022 185.466 93.7713L185.942 88.1469C187.681 89.0633 190.091 90.0205 193.173 91.0184C197.311 92.358 201.723 93.3352 206.409 93.95C211.151 94.5721 215.051 94.6855 218.11 94.29C221.232 93.8459 223.71 93.1182 225.544 92.1067C227.379 91.0953 228.935 89.8198 230.214 88.2802C232.301 85.7654 233.563 82.8293 234.001 79.472C234.417 76.2826 234.168 73.4044 233.255 70.8373C233.036 70.2236 232.796 69.6395 232.534 69.0851L245.711 68.8016V91.4454C245.711 92.179 246.161 92.7151 247.061 93.0537C248.018 93.3358 250.212 93.4769 253.644 93.4769C257.132 93.4769 260.592 93.3076 264.024 92.969C267.513 92.574 269.257 92.0661 269.257 91.4454V68.2949L280.228 68.0588L280.729 72.7309C281.596 80.8103 284.595 86.6164 289.727 90.1491C294.854 93.6256 301.78 94.8931 310.507 93.9514C319.289 93.0037 325.76 90.2905 329.92 85.8119ZM188.951 70.023L205.069 69.6761C206.624 70.3638 207.915 71.1105 208.942 71.916C210.082 72.7485 210.593 73.6124 210.477 74.5076C210.36 75.4029 209.934 76.0584 209.199 76.4742C208.471 76.834 206.991 76.8675 204.76 76.5747C202.528 76.282 199.308 75.0911 195.097 73.0021C191.895 71.4134 189.847 70.4203 188.951 70.023ZM188.951 70.023L187.47 70.0548C187.8 69.8592 188.126 69.7825 188.448 69.8248C188.501 69.8318 188.669 69.8978 188.951 70.023ZM303.892 67.5496L311.258 67.3911C311.583 71.2596 311.662 73.9478 311.493 75.4557C311.312 77.4617 310.439 78.5492 308.873 78.7182C307.306 78.8873 306.163 77.989 305.443 76.0235C304.929 74.4679 304.412 71.6433 303.892 67.5496ZM311.258 67.3911L334.934 66.8816L310.499 59.8535L310.792 62.5908C310.982 64.3538 311.137 65.9539 311.258 67.3911ZM97.547 53.1005L98.8129 68.3368H94.2557L95.6904 53.1005H97.547Z" fill="#010101" />
	</g>
	<path d="M334.291 43.6762C335.155 51.7019 333.489 57.9701 329.295 62.4807C325.15 66.9296 318.703 69.6247 309.953 70.5661C301.258 71.5016 294.357 70.2425 289.249 66.7891C284.136 63.2799 281.148 57.5124 280.284 49.4866L276.983 18.8047C276.833 17.4114 278.259 15.9894 281.26 14.5389C284.317 13.0825 287.936 12.1294 292.116 11.6796C295.46 11.3199 297.702 11.7269 298.844 12.9009C299.676 13.8262 300.131 14.6511 300.209 15.3756L302.89 40.289C303.567 46.587 304.24 50.7431 304.908 52.7573C305.625 54.7098 306.764 55.6021 308.325 55.4342C309.885 55.2663 310.756 54.186 310.936 52.1933C311.166 50.1389 310.933 45.8791 310.238 39.4139L307.665 15.5037C307.515 14.1104 308.941 12.6885 311.942 11.238C314.999 9.78149 318.59 8.83138 322.714 8.38765C326.225 8.00989 328.524 8.41098 329.609 9.59094C330.386 10.5222 330.813 11.3501 330.891 12.0747L334.291 43.6762Z" fill="#AA421C" />
	<path d="M333.598 37.2333C334.461 45.2591 332.796 51.5273 328.602 56.0378C324.457 60.4867 318.01 63.1818 309.259 64.1233C300.565 65.0587 293.664 63.7997 288.556 60.3462C283.443 56.837 280.454 51.0695 279.591 43.0437L276.29 12.3619C276.14 10.9685 277.565 9.54656 280.567 8.09608C283.624 6.63959 287.242 5.68649 291.422 5.23677C294.766 4.87699 297.009 5.28408 298.15 6.45804C298.983 7.38331 299.438 8.20822 299.516 8.93277L302.196 33.8461C302.874 40.1441 303.546 44.3002 304.214 46.3144C304.932 48.2669 306.071 49.1592 307.631 48.9913C309.192 48.8234 310.062 47.7431 310.243 45.7504C310.473 43.696 310.24 39.4362 309.544 32.971L306.972 9.06088C306.822 7.66751 308.247 6.24558 311.249 4.7951C314.306 3.33861 317.896 2.38851 322.021 1.94478C325.532 1.56701 327.83 1.96811 328.916 3.14807C329.693 4.07933 330.12 4.90724 330.198 5.63179L333.598 37.2333Z" fill="#FFF8A7" />
	<path d="M333.08 37.2333C333.944 45.2591 332.278 51.5273 328.084 56.0378C323.94 60.4867 317.492 63.1818 308.742 64.1233C300.047 65.0587 293.146 63.7997 288.039 60.3462C282.925 56.837 279.937 51.0695 279.073 43.0437L275.772 12.3619C275.622 10.9685 277.048 9.54656 280.049 8.09608C283.106 6.63959 286.725 5.68649 290.905 5.23677C294.249 4.87699 296.491 5.28408 297.633 6.45804C298.465 7.38331 298.92 8.20822 298.998 8.93277L301.679 33.8461C302.356 40.1441 303.029 44.3002 303.697 46.3144C304.414 48.2669 305.553 49.1592 307.114 48.9913C308.674 48.8234 309.545 47.7431 309.725 45.7504C309.955 43.696 309.722 39.4362 309.027 32.971L306.454 9.06088C306.304 7.66751 307.73 6.24558 310.731 4.7951C313.788 3.33862 317.379 2.38851 321.503 1.94478C325.014 1.56702 327.313 1.96811 328.398 3.14807C329.175 4.07933 329.602 4.90724 329.68 5.63179L333.08 37.2333Z" fill="url(#paint0_linear_1098_9292)" />
	<path d="M268.855 68.0771C268.855 68.6937 267.117 69.1982 263.642 69.5906C260.222 69.927 256.775 70.0951 253.3 70.0951C249.88 70.0951 247.694 69.955 246.741 69.6747C245.844 69.3384 245.396 68.8058 245.396 68.0771V31.9209H233.708C233.091 31.9209 232.559 31.1361 232.11 29.5665C231.662 27.9969 231.438 25.6706 231.438 22.5875C231.438 19.4483 231.774 16.6455 232.447 14.1791C233.119 11.6565 234.016 10.3953 235.137 10.3953H280.627C281.468 10.3953 282.028 11.18 282.309 12.7496C282.645 14.3192 282.813 16.5895 282.813 19.5605C282.813 22.5314 282.505 25.3342 281.888 27.9689C281.272 30.6035 280.431 31.9209 279.366 31.9209H268.855V68.0771Z" fill="#AA421C" />
	<path d="M268.855 61.5971C268.855 62.2137 267.117 62.7183 263.642 63.1106C260.222 63.447 256.775 63.6152 253.3 63.6152C249.88 63.6152 247.694 63.475 246.741 63.1947C245.844 62.8584 245.396 62.3259 245.396 61.5971V25.4409H233.708C233.091 25.4409 232.559 24.6561 232.11 23.0865C231.662 21.5169 231.438 19.1906 231.438 16.1075C231.438 12.9684 231.774 10.1656 232.447 7.69908C233.119 5.17655 234.016 3.91528 235.137 3.91528H280.627C281.468 3.91528 282.028 4.70007 282.309 6.26964C282.645 7.83922 282.813 10.1095 282.813 13.0805C282.813 16.0515 282.505 18.8543 281.888 21.4889C281.272 24.1236 280.431 25.4409 279.366 25.4409H268.855V61.5971Z" fill="#FFF8A7" />
	<path d="M268.338 61.5971C268.338 62.2137 266.6 62.7183 263.124 63.1106C259.705 63.447 256.257 63.6152 252.782 63.6152C249.362 63.6152 247.176 63.475 246.223 63.1947C245.326 62.8584 244.878 62.3259 244.878 61.5971V25.4409H233.19C232.574 25.4409 232.041 24.6561 231.593 23.0865C231.144 21.5169 230.92 19.1906 230.92 16.1075C230.92 12.9684 231.256 10.1656 231.929 7.69908C232.602 5.17655 233.499 3.91528 234.62 3.91528H280.109C280.95 3.91528 281.511 4.70007 281.791 6.26964C282.127 7.83922 282.296 10.1095 282.296 13.0805C282.296 16.0515 281.987 18.8543 281.371 21.4889C280.754 24.1236 279.913 25.4409 278.848 25.4409H268.338V61.5971Z" fill="url(#paint1_linear_1098_9292)" />
	<path d="M131.039 68.2296C129.643 68.1112 127.604 67.9384 124.923 67.7112C122.297 67.4887 120.527 67.1417 119.61 66.6703C118.694 66.1988 118.271 65.5441 118.342 64.7063L122.823 11.8386C122.932 10.5539 124.72 9.6929 128.189 9.25554C131.719 8.76706 135.438 8.6885 139.348 9.01987C143.258 9.35124 146.008 10.0906 147.599 11.2381C149.189 12.3855 150.077 13.5296 150.261 14.6704L154.084 37.2722L154.838 37.3361L161.99 16.677C162.509 15.202 164.435 14.0433 167.769 13.2007C171.164 12.307 174.817 12.0259 178.727 12.3573C182.637 12.6886 185.487 13.2396 187.278 14.0103C189.125 14.7856 190.009 15.6481 189.928 16.5976L185.369 70.3869C185.308 71.1131 183.666 71.5646 180.445 71.7417C177.223 71.9187 173.322 71.8131 168.742 71.4249C164.162 71.0367 161.94 70.0327 162.077 68.4129C162.451 64.0003 163.591 56.1928 165.497 44.9903L164.743 44.9264L158.533 66.4248C158.294 67.2484 157.544 67.8037 156.282 68.0905C155.076 68.3821 153.272 68.4261 150.87 68.2226C148.468 68.019 147.002 67.726 146.472 67.3435C145.998 66.9658 145.717 66.295 145.63 65.3313L142.959 43.0802L142.205 43.0163C142.235 54.6079 142.073 62.4982 141.718 66.6874C141.595 68.1397 138.035 68.6537 131.039 68.2296Z" fill="#AA421C" />
	<path d="M131.586 61.7735C130.189 61.6552 128.151 61.4824 125.47 61.2551C122.844 61.0327 121.073 60.6857 120.157 60.2142C119.241 59.7427 118.818 59.0881 118.889 58.2502L123.37 5.38256C123.478 4.09787 125.267 3.23685 128.736 2.79948C132.265 2.311 135.985 2.23244 139.895 2.56382C143.805 2.89519 146.555 3.63458 148.146 4.78201C149.736 5.92943 150.624 7.07354 150.808 8.21433L154.631 30.8162L155.385 30.8801L162.537 10.221C163.055 8.74598 164.982 7.58721 168.316 6.74466C171.711 5.85098 175.364 5.56983 179.274 5.9012C183.184 6.23257 186.034 6.78357 187.825 7.5542C189.672 8.32957 190.556 9.19204 190.475 10.1416L185.916 63.9309C185.855 64.657 184.213 65.1086 180.992 65.2856C177.77 65.4626 173.869 65.357 169.289 64.9689C164.709 64.5807 162.487 63.5767 162.624 61.9569C162.998 57.5442 164.138 49.7367 166.044 38.5343L165.29 38.4704L159.08 59.9688C158.841 60.7924 158.091 61.3476 156.829 61.6345C155.623 61.9261 153.819 61.9701 151.417 61.7665C149.015 61.563 147.549 61.2699 147.019 60.8875C146.545 60.5097 146.264 59.839 146.177 58.8752L143.506 36.6242L142.752 36.5603C142.782 48.1518 142.62 56.0422 142.265 60.2314C142.142 61.6836 138.582 62.1977 131.586 61.7735Z" fill="#FFF8A7" />
	<path d="M131.064 61.7725C129.668 61.6542 127.629 61.4814 124.948 61.2542C122.323 61.0317 120.552 60.6847 119.636 60.2132C118.719 59.7418 118.296 59.0871 118.367 58.2493L122.848 5.38158C122.957 4.09689 124.746 3.23587 128.215 2.79851C131.744 2.31002 135.464 2.23147 139.373 2.56284C143.283 2.89421 146.034 3.63361 147.624 4.78103C149.215 5.92846 150.102 7.07256 150.287 8.21335L154.109 30.8152L154.863 30.8791L162.015 10.22C162.534 8.745 164.46 7.58624 167.795 6.74368C171.19 5.85001 174.842 5.56885 178.752 5.90022C182.662 6.2316 185.513 6.7826 187.304 7.55323C189.151 8.3286 190.034 9.19106 189.954 10.1406L185.395 63.9299C185.333 64.656 183.692 65.1076 180.47 65.2846C177.248 65.4616 173.347 65.3561 168.767 64.9679C164.187 64.5797 161.966 63.5757 162.103 61.9559C162.477 57.5433 163.617 49.7357 165.523 38.5333L164.768 38.4694L158.558 59.9678C158.32 60.7914 157.569 61.3467 156.308 61.6335C155.101 61.9251 153.297 61.9691 150.896 61.7655C148.494 61.562 147.028 61.269 146.498 60.8865C146.023 60.5088 145.743 59.838 145.656 58.8742L142.985 36.6232L142.23 36.5593C142.261 48.1508 142.098 56.0412 141.743 60.2304C141.62 61.6826 138.061 62.1967 131.064 61.7725Z" fill="url(#paint2_linear_1098_9292)" />
	<path d="M92.308 65.8066C92.1959 67.4322 91.327 68.5533 89.7014 69.17C88.1318 69.7866 85.2729 70.0949 81.1248 70.0949C76.9766 70.0949 73.5011 69.7305 70.6983 69.0018C67.9515 68.217 66.5781 67.236 66.5781 66.0588C66.5781 64.7135 69.0726 56.1369 74.0617 40.329C79.0507 24.4651 81.9096 15.328 82.6383 12.9176C82.9186 12.1888 85.1608 11.6002 89.3651 11.1518C93.6254 10.6473 98.1659 10.395 102.987 10.395C107.864 10.395 110.554 11.2359 111.059 12.9176C121.654 48.1209 126.951 66.0028 126.951 66.5634C126.951 67.1239 126.615 67.6845 125.942 68.245C124.372 69.4783 121.261 70.0949 116.608 70.0949C106.687 70.0949 101.613 68.9177 101.389 66.5634L100.801 61.0979H92.7285L92.308 65.8066ZM99.0348 45.1218L97.7735 29.9867H95.9237L94.4942 45.1218H99.0348Z" fill="#AA421C" />
	<path d="M92.308 59.3266C92.1959 60.9522 91.327 62.0734 89.7014 62.69C88.1318 63.3066 85.2729 63.6149 81.1248 63.6149C76.9766 63.6149 73.5011 63.2505 70.6983 62.5218C67.9515 61.737 66.5781 60.756 66.5781 59.5789C66.5781 58.2335 69.0726 49.6569 74.0617 33.8491C79.0507 17.9852 81.9096 8.84799 82.6383 6.43757C82.9186 5.70884 85.1608 5.12025 89.3651 4.6718C93.6254 4.16729 98.1659 3.91504 102.987 3.91504C107.864 3.91504 110.554 4.75588 111.059 6.43757C121.654 41.6409 126.951 59.5228 126.951 60.0834C126.951 60.6439 126.615 61.2045 125.942 61.7651C124.372 62.9983 121.261 63.6149 116.608 63.6149C106.687 63.6149 101.613 62.4377 101.389 60.0834L100.801 54.6179H92.7285L92.308 59.3266ZM99.0348 38.6419L97.7735 23.5067H95.9237L94.4942 38.6419H99.0348Z" fill="#FFF8A7" />
	<path d="M91.7905 59.5858C91.6783 61.2114 90.8095 62.3325 89.1838 62.9491C87.6142 63.5658 84.7554 63.8741 80.6072 63.8741C76.459 63.8741 72.9835 63.5097 70.1807 62.781C67.4339 61.9962 66.0605 61.0152 66.0605 59.838C66.0605 58.4927 68.5551 49.9161 73.5441 34.1082C78.5331 18.2443 81.392 9.10714 82.1207 6.69673C82.401 5.968 84.6433 5.3794 88.8475 4.93095C93.1078 4.42645 97.6483 4.17419 102.469 4.17419C107.346 4.17419 110.037 5.01504 110.541 6.69673C121.136 41.9 126.433 59.782 126.433 60.3425C126.433 60.9031 126.097 61.4636 125.424 62.0242C123.855 63.2574 120.744 63.8741 116.091 63.8741C106.169 63.8741 101.096 62.6969 100.872 60.3425L100.283 54.877H92.2109L91.7905 59.5858ZM98.5172 38.901L97.256 23.7658H95.4061L93.9767 38.901H98.5172Z" fill="url(#paint3_linear_1098_9292)" />
	<path d="M179.598 61.7826C178.665 63.8562 181.023 64.893 182.319 65.1522L183.227 71.5025C183.875 71.2865 185.197 70.7509 185.3 70.3361C185.404 69.9214 185.689 66.3618 185.819 64.6338L183.616 54.7842C182.665 56.253 180.531 59.709 179.598 61.7826Z" fill="black" fill-opacity="0.3" />
	<path d="M73.4541 63.0783L70.214 46.6191L69.1772 49.3407L66.7148 66.3183C67.0259 68.2882 70.1276 69.0399 71.6397 69.1695L73.4541 63.0783Z" fill="black" fill-opacity="0.3" />
	<path d="M225.302 68.7334C223.475 69.7381 221.006 70.461 217.895 70.9022C214.847 71.295 210.961 71.1824 206.237 70.5644C201.568 69.9537 197.172 68.983 193.049 67.6523C188.927 66.3216 186.01 65.0638 184.3 63.879C182.589 62.6942 181.792 61.6571 181.908 60.7678C182.315 57.6551 183.182 54.4895 184.507 51.2708C185.84 47.9966 187.118 46.4395 188.341 46.5994C188.563 46.6285 190.772 47.6806 194.966 49.7557C199.161 51.8308 202.37 53.0138 204.593 53.3046C206.817 53.5954 208.291 53.5621 209.016 53.2047C209.749 52.7917 210.173 52.1405 210.289 51.2512C210.406 50.3619 209.896 49.5037 208.76 48.6768C207.632 47.7943 206.184 46.9829 204.415 46.2428C202.653 45.447 200.754 44.4071 198.717 43.1231C196.736 41.8463 194.908 40.4766 193.234 39.0138C191.56 37.5511 190.256 35.6281 189.324 33.2448C188.4 30.806 188.126 28.1414 188.504 25.2511C190.118 12.9117 198.29 7.70537 213.02 9.63202C218.522 10.3518 223.227 11.3347 227.135 12.5807C231.05 13.7712 233.755 14.9165 235.25 16.0167C236.809 17.0685 237.533 18.0113 237.424 18.8451C237.046 21.7354 235.944 24.7571 234.119 27.9103C232.348 31.0708 230.824 32.5674 229.546 32.4002C229.323 32.3711 228.633 32.0265 227.476 31.3663C224.018 29.2746 221.067 28.0687 218.621 27.7488C216.231 27.4362 214.562 27.4441 213.615 27.7724C212.723 28.108 212.215 28.7483 212.092 29.6932C211.975 30.5825 212.489 31.4128 213.631 32.1842C214.781 32.9 216.213 33.6243 217.926 34.3572C219.702 35.0418 221.581 36.0225 223.562 37.2992C225.607 38.5277 227.459 39.9289 229.118 41.5028C230.785 43.0211 232.074 45.0553 232.984 47.6053C233.894 50.1553 234.142 53.0144 233.728 56.1826C233.292 59.5176 232.034 62.4341 229.954 64.9323C228.68 66.4617 227.129 67.7287 225.302 68.7334Z" fill="#AA421C" />
	<path d="M226.142 62.3086C224.314 63.3133 221.845 64.0362 218.735 64.4774C215.687 64.8702 211.801 64.7576 207.077 64.1396C202.408 63.5289 198.012 62.5582 193.889 61.2275C189.767 59.8968 186.85 58.639 185.14 57.4542C183.429 56.2694 182.632 55.2323 182.748 54.343C183.155 51.2303 184.022 48.0647 185.347 44.846C186.68 41.5718 187.958 40.0147 189.181 40.1746C189.403 40.2037 191.611 41.2558 195.806 43.3309C200.001 45.406 203.21 46.589 205.433 46.8798C207.657 47.1706 209.131 47.1373 209.856 46.7799C210.588 46.3669 211.013 45.7157 211.129 44.8264C211.246 43.9371 210.736 43.0789 209.6 42.252C208.472 41.3695 207.023 40.5581 205.255 39.8179C203.493 39.0222 201.594 37.9823 199.557 36.6983C197.576 35.4215 195.748 34.0518 194.074 32.589C192.399 31.1263 191.096 29.2033 190.164 26.82C189.239 24.3812 188.966 21.7166 189.344 18.8263C190.958 6.48692 199.13 1.28056 213.859 3.20722C219.362 3.92699 224.067 4.90989 227.975 6.15594C231.889 7.3464 234.595 8.49171 236.09 9.59188C237.649 10.6437 238.373 11.5865 238.264 12.4203C237.886 15.3106 236.784 18.3323 234.958 21.4855C233.188 24.646 231.664 26.1426 230.386 25.9754C230.163 25.9463 229.473 25.6017 228.316 24.9415C224.858 22.8498 221.907 21.6439 219.461 21.324C217.071 21.0114 215.402 21.0193 214.455 21.3476C213.563 21.6832 213.055 22.3235 212.931 23.2684C212.815 24.1577 213.328 24.988 214.471 25.7594C215.621 26.4752 217.053 27.1995 218.766 27.9324C220.542 28.617 222.421 29.5977 224.402 30.8744C226.446 32.1029 228.298 33.5041 229.958 35.078C231.625 36.5963 232.914 38.6305 233.824 41.1805C234.734 43.7305 234.982 46.5896 234.568 49.7578C234.131 53.0928 232.874 56.0093 230.794 58.5075C229.52 60.0368 227.969 61.3039 226.142 62.3086Z" fill="#FFF8A7" />
	<path d="M225.624 62.3086C223.797 63.3133 221.328 64.0362 218.217 64.4774C215.17 64.8702 211.283 64.7576 206.559 64.1396C201.89 63.5289 197.494 62.5582 193.372 61.2275C189.249 59.8968 186.333 58.639 184.622 57.4542C182.911 56.2694 182.114 55.2323 182.231 54.343C182.638 51.2303 183.504 48.0647 184.83 44.846C186.162 41.5718 187.44 40.0147 188.663 40.1746C188.885 40.2037 191.094 41.2558 195.289 43.3309C199.483 45.406 202.692 46.589 204.916 46.8798C207.139 47.1706 208.613 47.1373 209.338 46.7799C210.071 46.3669 210.495 45.7157 210.612 44.8264C210.728 43.9371 210.218 43.0789 209.083 42.252C207.954 41.3695 206.506 40.5581 204.737 39.8179C202.976 39.0222 201.076 37.9823 199.039 36.6983C197.058 35.4215 195.23 34.0518 193.556 32.589C191.882 31.1263 190.579 29.2033 189.647 26.82C188.722 24.3812 188.449 21.7166 188.827 18.8263C190.441 6.48692 198.612 1.28056 213.342 3.20722C218.845 3.92699 223.55 4.90989 227.457 6.15594C231.372 7.3464 234.077 8.49171 235.573 9.59188C237.131 10.6437 237.856 11.5865 237.747 12.4203C237.369 15.3106 236.267 18.3323 234.441 21.4855C232.671 24.646 231.146 26.1426 229.868 25.9754C229.646 25.9463 228.956 25.6017 227.798 24.9415C224.341 22.8498 221.389 21.6439 218.943 21.324C216.553 21.0114 214.885 21.0193 213.937 21.3476C213.045 21.6832 212.537 22.3235 212.414 23.2684C212.298 24.1577 212.811 24.988 213.954 25.7594C215.104 26.4752 216.535 27.1995 218.249 27.9324C220.025 28.617 221.903 29.5977 223.885 30.8744C225.929 32.1029 227.781 33.5041 229.441 35.078C231.108 36.5963 232.396 38.6305 233.306 41.1805C234.217 43.7305 234.464 46.5896 234.05 49.7578C233.614 53.0928 232.356 56.0093 230.277 58.5075C229.002 60.0368 227.452 61.3039 225.624 62.3086Z" fill="url(#paint4_linear_1098_9292)" />
	<path d="M40.0465 67.8524C40.1023 68.579 38.4426 69.2967 35.0675 70.0054C31.7482 70.7098 28.356 71.195 24.8907 71.4608C21.4812 71.7224 19.2585 71.6961 18.2224 71.3821C17.2422 71.0637 16.72 70.4854 16.6557 69.647L12.6999 18.0866C12.5927 16.6893 14.1171 15.3074 17.2731 13.9409C20.4248 12.5184 23.901 11.6614 27.7016 11.3698C33.0114 10.9625 35.7627 12.0164 35.9557 14.5315L37.3708 32.9759L44.8324 32.4034L43.5524 15.7196C43.4452 14.3223 44.9696 12.9404 48.1256 11.5739C51.3332 10.1472 54.8373 9.28799 58.638 8.99641C63.8918 8.59333 66.6152 9.64936 66.8082 12.1645L70.899 65.4854C70.9548 66.212 69.2951 66.9297 65.9199 67.6384C62.5448 68.3471 59.1526 68.8322 55.7431 69.0938C52.3337 69.3554 50.111 69.3291 49.0749 69.0151C48.0947 68.6967 47.5725 68.1184 47.5081 67.28L46.0352 48.0811L38.5736 48.6536L40.0465 67.8524Z" fill="#AA421C" />
	<path d="M39.5485 61.392C39.6042 62.1186 37.9445 62.8362 34.5694 63.5449C31.2502 64.2494 27.8579 64.7345 24.3926 65.0004C20.9832 65.2619 18.7604 65.2357 17.7244 64.9216C16.7442 64.6033 16.2219 64.0249 16.1576 63.1865L12.2019 11.6262C12.0947 10.2289 13.6191 8.84698 16.775 7.48043C19.9267 6.05799 23.4029 5.20098 27.2036 4.90939C32.5133 4.50203 35.2647 5.55592 35.4577 8.07106L36.8727 26.5154L44.3343 25.943L43.0543 9.25919C42.9471 7.8619 44.4715 6.47998 47.6275 5.11343C50.8351 3.6867 54.3392 2.82755 58.1399 2.53596C63.3938 2.13288 66.1172 3.18891 66.3101 5.70405L70.401 59.025C70.4567 59.7516 68.797 60.4692 65.4219 61.1779C62.0468 61.8866 58.6545 62.3718 55.2451 62.6334C51.8357 62.8949 49.6129 62.8687 48.5768 62.5546C47.5967 62.2363 47.0744 61.6579 47.0101 60.8195L45.5371 41.6206L38.0755 42.1931L39.5485 61.392Z" fill="#FFF8A7" />
	<path d="M38.7711 60.8734C38.8269 61.6 37.1672 62.3177 33.7921 63.0264C30.4729 63.7308 27.0806 64.216 23.6153 64.4818C20.2058 64.7434 17.9831 64.7171 16.947 64.4031C15.9668 64.0847 15.4446 63.5064 15.3803 62.668L11.4245 11.1076C11.3173 9.71035 12.8417 8.32842 15.9977 6.96188C19.1494 5.53944 22.6256 4.68243 26.4262 4.39084C31.736 3.98347 34.4874 5.03736 34.6803 7.5525L36.0954 25.9969L43.557 25.4244L42.277 8.74064C42.1698 7.34334 43.6942 5.96142 46.8502 4.59488C50.0578 3.16815 53.5619 2.30899 57.3626 2.0174C62.6164 1.61433 65.3398 2.67036 65.5328 5.1855L69.6236 58.5064C69.6794 59.233 68.0197 59.9507 64.6446 60.6594C61.2694 61.3681 57.8772 61.8532 54.4677 62.1148C51.0583 62.3764 48.8356 62.3501 47.7995 62.0361C46.8193 61.7177 46.2971 61.1394 46.2327 60.301L44.7598 41.1021L37.2982 41.6745L38.7711 60.8734Z" fill="url(#paint5_linear_1098_9292)" />
	<path d="M277.585 86.3538C277.492 87.808 277.407 89.2467 277.33 90.67C277.253 92.0932 277.152 93.532 277.028 94.9862L267.189 95.4967L266.957 98.4206H273.872L273.362 105.614L266.4 105.846L266.168 109.234H271.923H276.007C275.914 110.936 275.814 112.63 275.706 114.316C275.613 115.987 275.528 117.666 275.45 119.352L255.447 119.816L256.19 86.3538H277.585Z" fill="#150C24" />
	<path d="M254.332 86.6321L254.1 96.4712L247.185 96.7496L245.421 118.748L235.629 119.259L235.675 97.2602L228.76 97.6314L229.038 86.6785L254.332 86.6321Z" fill="#150C24" />
	<path d="M228.047 86.6833L227.815 96.5224L220.9 96.8009L219.136 118.8L209.343 119.31L209.39 97.3114L202.475 97.6827L202.753 86.7298L228.047 86.6833Z" fill="#150C24" />
	<path d="M202.675 86.3538C202.582 87.808 202.497 89.2467 202.42 90.67C202.342 92.0932 202.242 93.532 202.118 94.9862L192.279 95.4967L192.047 98.4206H198.962L198.452 105.614L191.49 105.846L191.258 109.234H197.013H201.097C201.004 110.936 200.904 112.63 200.795 114.316C200.703 115.987 200.618 117.666 200.54 119.352L180.537 119.816L181.28 86.3538H202.675Z" fill="#150C24" />
	<path d="M179.607 106.589L178.633 116.892L159.094 118.424C159.187 113.025 159.287 107.656 159.395 102.319C159.519 96.9819 159.666 91.6137 159.836 86.2146H171.903C171.547 89.6026 171.207 92.9906 170.882 96.3786C170.557 99.7511 170.325 103.155 170.186 106.589C170.913 106.62 171.632 106.635 172.344 106.635C173.056 106.635 173.775 106.635 174.502 106.635C175.368 106.635 176.219 106.628 177.055 106.612C177.89 106.597 178.741 106.589 179.607 106.589Z" fill="#150C24" />
	<path d="M157.353 94.0119C157.353 95.1567 157.299 96.4175 157.191 97.7944C157.082 99.1713 156.904 100.595 156.657 102.064C156.409 103.534 156.084 105.027 155.682 106.543C155.296 108.043 154.808 109.49 154.22 110.882C153.632 112.275 152.944 113.582 152.155 114.804C151.382 116.011 150.484 117.07 149.463 117.983C148.458 118.88 147.328 119.584 146.075 120.095C144.822 120.621 143.43 120.884 141.898 120.884C140.104 120.884 138.541 120.59 137.211 120.002C135.896 119.43 134.766 118.656 133.823 117.681C132.879 116.691 132.106 115.547 131.502 114.247C130.899 112.932 130.427 111.547 130.087 110.093C129.746 108.624 129.507 107.131 129.367 105.615C129.244 104.083 129.182 102.613 129.182 101.206C129.182 99.0398 129.29 96.8817 129.507 94.7313C129.723 92.5655 130.033 90.4073 130.435 88.257L141.295 88.6747C140.877 91.1035 140.514 93.5478 140.204 96.0076C139.91 98.4519 139.763 100.912 139.763 103.387C139.763 103.65 139.771 104.044 139.787 104.57C139.817 105.081 139.864 105.661 139.926 106.311C139.988 106.945 140.073 107.603 140.181 108.283C140.305 108.948 140.467 109.56 140.668 110.116C140.869 110.673 141.109 111.13 141.388 111.486C141.682 111.841 142.022 112.019 142.409 112.019C142.857 112.019 143.26 111.81 143.615 111.393C143.971 110.96 144.281 110.387 144.544 109.676C144.822 108.964 145.062 108.144 145.263 107.216C145.464 106.288 145.634 105.321 145.774 104.315C145.913 103.31 146.021 102.304 146.098 101.298C146.191 100.293 146.261 99.3569 146.307 98.4906C146.369 97.6242 146.408 96.8585 146.423 96.1932C146.439 95.528 146.446 95.033 146.446 94.7081C146.446 93.5014 146.423 92.3025 146.377 91.1112C146.346 89.9046 146.292 88.7056 146.214 87.5144H157.075C157.26 89.6493 157.353 91.8151 157.353 94.0119Z" fill="#150C24" />
	<path d="M127.977 103.433C127.977 104.841 127.814 106.202 127.489 107.517C127.165 108.817 126.693 110.039 126.074 111.184C125.471 112.329 124.728 113.381 123.846 114.34C122.98 115.283 121.998 116.096 120.899 116.776C119.816 117.457 118.633 117.991 117.349 118.378C116.065 118.749 114.703 118.934 113.265 118.934C111.872 118.934 110.542 118.757 109.273 118.401C108.02 118.045 106.844 117.55 105.746 116.916C104.648 116.266 103.65 115.492 102.752 114.595C101.871 113.682 101.113 112.677 100.478 111.578C99.8595 110.464 99.3722 109.273 99.0164 108.005C98.676 106.736 98.5059 105.413 98.5059 104.037C98.5059 102.691 98.6683 101.376 98.9932 100.092C99.3181 98.7922 99.7822 97.57 100.386 96.4252C101.004 95.2804 101.747 94.2284 102.613 93.2693C103.48 92.3101 104.446 91.4825 105.514 90.7863C106.597 90.0901 107.765 89.5487 109.018 89.1619C110.271 88.7752 111.594 88.5818 112.986 88.5818C115.229 88.5818 117.271 88.9299 119.112 89.626C120.969 90.3222 122.547 91.32 123.846 92.6195C125.161 93.9036 126.174 95.4661 126.886 97.307C127.613 99.1325 127.977 101.175 127.977 103.433ZM117.674 104.037C117.674 103.371 117.573 102.729 117.372 102.111C117.186 101.476 116.908 100.919 116.536 100.44C116.165 99.9447 115.701 99.5502 115.144 99.2563C114.603 98.9469 113.976 98.7922 113.265 98.7922C112.537 98.7922 111.888 98.9237 111.315 99.1867C110.743 99.4497 110.248 99.8132 109.83 100.277C109.428 100.726 109.118 101.26 108.902 101.878C108.685 102.482 108.577 103.124 108.577 103.805C108.577 104.454 108.67 105.104 108.855 105.754C109.041 106.404 109.32 106.991 109.691 107.517C110.062 108.043 110.519 108.469 111.06 108.794C111.617 109.119 112.259 109.281 112.986 109.281C113.713 109.281 114.363 109.142 114.935 108.863C115.523 108.569 116.018 108.183 116.42 107.703C116.823 107.208 117.132 106.643 117.349 106.009C117.565 105.375 117.674 104.717 117.674 104.037Z" fill="#150C24" />
	<path d="M97.9957 97.4457C97.9957 98.6524 97.8874 99.7508 97.6708 100.741C97.4697 101.716 97.1448 102.613 96.6962 103.433C96.2476 104.253 95.6674 105.011 94.9558 105.707C94.2442 106.403 93.3856 107.068 92.38 107.703L97.9029 117.542L87.4604 119.584L83.8868 109.698L81.0093 109.791L80.5916 119.444H70.6133C70.6906 115.917 70.7602 112.406 70.8221 108.909C70.8995 105.413 70.9846 101.901 71.0774 98.374C71.1083 96.5949 71.1393 94.8313 71.1702 93.0831C71.2012 91.335 71.263 89.5714 71.3559 87.7923C72.4388 87.3901 73.5062 87.0575 74.5582 86.7945C75.6102 86.5315 76.6622 86.3304 77.7141 86.1911C78.7816 86.0364 79.8568 85.9359 80.9397 85.8895C82.0381 85.8276 83.1597 85.7966 84.3045 85.7966C86.0681 85.7966 87.7698 86.0442 89.4097 86.5392C91.065 87.0188 92.527 87.7459 93.7955 88.7205C95.0641 89.6951 96.0774 90.9096 96.8354 92.3638C97.6089 93.818 97.9957 95.512 97.9957 97.4457ZM87.5997 98.1883C87.5997 97.5386 87.5068 96.943 87.3212 96.4015C87.151 95.86 86.888 95.3959 86.5322 95.0092C86.1919 94.607 85.7587 94.2975 85.2327 94.081C84.7222 93.8489 84.1188 93.7329 83.4227 93.7329C83.1133 93.7329 82.8116 93.7561 82.5177 93.8025C82.2237 93.8334 81.9375 93.8876 81.6591 93.9649L81.2878 102.597H81.8447C82.5099 102.597 83.1829 102.512 83.8636 102.342C84.5598 102.172 85.1786 101.909 85.72 101.553C86.277 101.197 86.7256 100.741 87.0659 100.184C87.4218 99.6271 87.5997 98.9618 87.5997 98.1883Z" fill="#150C24" />
	<path d="M277.585 81.8323C277.492 83.2865 277.407 84.7252 277.33 86.1485C277.253 87.5717 277.152 89.0105 277.028 90.4647L267.189 90.9752L266.957 93.8991H273.872L273.362 101.093L266.4 101.325L266.168 104.713H271.923H276.007C275.914 106.415 275.814 108.109 275.706 109.795C275.613 111.466 275.528 113.144 275.45 114.83L255.447 115.294L256.19 81.8323H277.585Z" fill="#F29D01" />
	<path d="M254.332 82.1106L254.1 91.9497L247.185 92.2282L245.421 114.227L235.629 114.737L235.675 92.7387L228.76 93.11L229.038 82.157L254.332 82.1106Z" fill="#F29D01" />
	<path d="M228.047 82.1614L227.815 92.0005L220.9 92.2789L219.136 114.278L209.343 114.788L209.39 92.7895L202.475 93.1607L202.753 82.2078L228.047 82.1614Z" fill="#F29D01" />
	<path d="M202.675 81.8323C202.582 83.2865 202.497 84.7252 202.42 86.1485C202.342 87.5717 202.242 89.0105 202.118 90.4647L192.279 90.9752L192.047 93.8991H198.962L198.452 101.093L191.49 101.325L191.258 104.713H197.013H201.097C201.004 106.415 200.904 108.109 200.795 109.795C200.703 111.466 200.618 113.144 200.54 114.83L180.537 115.294L181.28 81.8323H202.675Z" fill="#F29D01" />
	<path d="M179.607 102.067L178.633 112.37L159.094 113.902C159.187 108.503 159.287 103.134 159.395 97.7972C159.519 92.4599 159.666 87.0918 159.836 81.6926H171.903C171.547 85.0806 171.207 88.4686 170.882 91.8566C170.557 95.2291 170.325 98.6326 170.186 102.067C170.913 102.098 171.632 102.113 172.344 102.113C173.056 102.113 173.775 102.113 174.502 102.113C175.368 102.113 176.219 102.106 177.055 102.09C177.89 102.075 178.741 102.067 179.607 102.067Z" fill="#F29D01" />
	<path d="M157.353 89.4899C157.353 90.6347 157.299 91.8956 157.191 93.2724C157.082 94.6493 156.904 96.0726 156.657 97.5422C156.409 99.0119 156.084 100.505 155.682 102.021C155.296 103.521 154.808 104.968 154.22 106.36C153.632 107.753 152.944 109.06 152.155 110.282C151.382 111.489 150.484 112.548 149.463 113.461C148.458 114.358 147.328 115.062 146.075 115.573C144.822 116.099 143.43 116.362 141.898 116.362C140.104 116.362 138.541 116.068 137.211 115.48C135.896 114.908 134.766 114.134 133.823 113.159C132.879 112.169 132.106 111.025 131.502 109.725C130.899 108.41 130.427 107.026 130.087 105.571C129.746 104.102 129.507 102.609 129.367 101.093C129.244 99.5611 129.182 98.0914 129.182 96.6836C129.182 94.5178 129.29 92.3597 129.507 90.2093C129.723 88.0435 130.033 85.8854 130.435 83.735L141.295 84.1527C140.877 86.5815 140.514 89.0258 140.204 91.4856C139.91 93.9299 139.763 96.3897 139.763 98.8649C139.763 99.1279 139.771 99.5224 139.787 100.048C139.817 100.559 139.864 101.139 139.926 101.789C139.988 102.423 140.073 103.081 140.181 103.761C140.305 104.427 140.467 105.038 140.668 105.595C140.869 106.151 141.109 106.608 141.388 106.964C141.682 107.319 142.022 107.497 142.409 107.497C142.857 107.497 143.26 107.288 143.615 106.871C143.971 106.438 144.281 105.865 144.544 105.154C144.822 104.442 145.062 103.622 145.263 102.694C145.464 101.766 145.634 100.799 145.774 99.7932C145.913 98.7876 146.021 97.782 146.098 96.7764C146.191 95.7709 146.261 94.8349 146.307 93.9686C146.369 93.1023 146.408 92.3365 146.423 91.6713C146.439 91.006 146.446 90.511 146.446 90.1861C146.446 88.9794 146.423 87.7805 146.377 86.5893C146.346 85.3826 146.292 84.1836 146.214 82.9924H157.075C157.26 85.1273 157.353 87.2932 157.353 89.4899Z" fill="#F29D01" />
	<path d="M127.977 98.9113C127.977 100.319 127.814 101.68 127.489 102.995C127.165 104.295 126.693 105.517 126.074 106.662C125.471 107.807 124.728 108.859 123.846 109.818C122.98 110.762 121.998 111.574 120.899 112.254C119.816 112.935 118.633 113.469 117.349 113.856C116.065 114.227 114.703 114.412 113.265 114.412C111.872 114.412 110.542 114.235 109.273 113.879C108.02 113.523 106.844 113.028 105.746 112.394C104.648 111.744 103.65 110.97 102.752 110.073C101.871 109.16 101.113 108.155 100.478 107.056C99.8595 105.943 99.3722 104.751 99.0164 103.483C98.676 102.214 98.5059 100.891 98.5059 99.5146C98.5059 98.1687 98.6683 96.8537 98.9932 95.5697C99.3181 94.2702 99.7822 93.048 100.386 91.9032C101.004 90.7584 101.747 89.7065 102.613 88.7473C103.48 87.7882 104.446 86.9605 105.514 86.2643C106.597 85.5682 107.765 85.0267 109.018 84.6399C110.271 84.2532 111.594 84.0598 112.986 84.0598C115.229 84.0598 117.271 84.4079 119.112 85.1041C120.969 85.8002 122.547 86.7981 123.846 88.0976C125.161 89.3816 126.174 90.9441 126.886 92.785C127.613 94.6105 127.977 96.6526 127.977 98.9113ZM117.674 99.5146C117.674 98.8494 117.573 98.2074 117.372 97.5886C117.186 96.9543 116.908 96.3974 116.536 95.9178C116.165 95.4227 115.701 95.0282 115.144 94.7343C114.603 94.4249 113.976 94.2702 113.265 94.2702C112.537 94.2702 111.888 94.4017 111.315 94.6647C110.743 94.9277 110.248 95.2912 109.83 95.7553C109.428 96.204 109.118 96.7377 108.902 97.3565C108.685 97.9599 108.577 98.6019 108.577 99.2826C108.577 99.9323 108.67 100.582 108.855 101.232C109.041 101.882 109.32 102.469 109.691 102.995C110.062 103.521 110.519 103.947 111.06 104.272C111.617 104.597 112.259 104.759 112.986 104.759C113.713 104.759 114.363 104.62 114.935 104.341C115.523 104.047 116.018 103.661 116.42 103.181C116.823 102.686 117.132 102.121 117.349 101.487C117.565 100.853 117.674 100.195 117.674 99.5146Z" fill="#F29D01" />
	<path d="M97.9957 92.9243C97.9957 94.1309 97.8874 95.2293 97.6708 96.2194C97.4697 97.1941 97.1448 98.0913 96.6962 98.9113C96.2476 99.7312 95.6674 100.489 94.9558 101.185C94.2442 101.882 93.3856 102.547 92.38 103.181L97.9029 113.02L87.4604 115.062L83.8868 105.177L81.0093 105.27L80.5916 114.923H70.6133C70.6906 111.396 70.7602 107.884 70.8221 104.388C70.8995 100.891 70.9846 97.3797 71.0774 93.8525C71.1083 92.0734 71.1393 90.3098 71.1702 88.5616C71.2012 86.8135 71.263 85.0499 71.3559 83.2708C72.4388 82.8686 73.5062 82.536 74.5582 82.273C75.6102 82.01 76.6622 81.8089 77.7141 81.6696C78.7816 81.5149 79.8568 81.4144 80.9397 81.368C82.0381 81.3061 83.1597 81.2751 84.3045 81.2751C86.0681 81.2751 87.7698 81.5227 89.4097 82.0177C91.065 82.4973 92.527 83.2244 93.7955 84.199C95.0641 85.1737 96.0774 86.3881 96.8354 87.8423C97.6089 89.2965 97.9957 90.9905 97.9957 92.9243ZM87.5997 93.6668C87.5997 93.0171 87.5068 92.4215 87.3212 91.88C87.151 91.3386 86.888 90.8745 86.5322 90.4877C86.1919 90.0855 85.7587 89.7761 85.2327 89.5595C84.7222 89.3274 84.1188 89.2114 83.4227 89.2114C83.1133 89.2114 82.8116 89.2346 82.5177 89.281C82.2237 89.312 81.9375 89.3661 81.6591 89.4435L81.2878 98.0759H81.8447C82.5099 98.0759 83.1829 97.9908 83.8636 97.8206C84.5598 97.6504 85.1786 97.3874 85.72 97.0316C86.277 96.6758 86.7256 96.2194 87.0659 95.6625C87.4218 95.1056 87.5997 94.4404 87.5997 93.6668Z" fill="#F29D01" />
	<path d="M277.585 80.3538C277.492 81.808 277.407 83.2467 277.33 84.67C277.253 86.0932 277.152 87.532 277.028 88.9862L267.189 89.4967L266.957 92.4206H273.872L273.362 99.6143L266.4 99.8463L266.168 103.234H271.923H276.007C275.914 104.936 275.814 106.63 275.706 108.316C275.613 109.987 275.528 111.666 275.45 113.352L255.447 113.816L256.19 80.3538H277.585Z" fill="url(#paint6_linear_1098_9292)" />
	<path d="M254.332 80.6321L254.1 90.4712L247.185 90.7496L245.421 112.748L235.629 113.259L235.675 91.2602L228.76 91.6314L229.038 80.6785L254.332 80.6321Z" fill="url(#paint7_linear_1098_9292)" />
	<path d="M228.047 80.6833L227.815 90.5224L220.9 90.8009L219.136 112.8L209.343 113.31L209.39 91.3114L202.475 91.6827L202.753 80.7298L228.047 80.6833Z" fill="url(#paint8_linear_1098_9292)" />
	<path d="M202.675 80.3538C202.582 81.808 202.497 83.2467 202.42 84.67C202.342 86.0932 202.242 87.532 202.118 88.9862L192.279 89.4967L192.047 92.4206H198.962L198.452 99.6143L191.49 99.8463L191.258 103.234H197.013H201.097C201.004 104.936 200.904 106.63 200.795 108.316C200.703 109.987 200.618 111.666 200.54 113.352L180.537 113.816L181.28 80.3538H202.675Z" fill="url(#paint9_linear_1098_9292)" />
	<path d="M179.607 100.589L178.633 110.892L159.094 112.424C159.187 107.025 159.287 101.656 159.395 96.3192C159.519 90.9819 159.666 85.6137 159.836 80.2146H171.903C171.547 83.6026 171.207 86.9906 170.882 90.3786C170.557 93.7511 170.325 97.1546 170.186 100.589C170.913 100.62 171.632 100.635 172.344 100.635C173.056 100.635 173.775 100.635 174.502 100.635C175.368 100.635 176.219 100.628 177.055 100.612C177.89 100.597 178.741 100.589 179.607 100.589Z" fill="url(#paint10_linear_1098_9292)" />
	<path d="M157.353 88.0119C157.353 89.1567 157.299 90.4175 157.191 91.7944C157.082 93.1713 156.904 94.5945 156.657 96.0642C156.409 97.5339 156.084 99.0268 155.682 100.543C155.296 102.043 154.808 103.49 154.22 104.882C153.632 106.275 152.944 107.582 152.155 108.804C151.382 110.011 150.484 111.07 149.463 111.983C148.458 112.88 147.328 113.584 146.075 114.095C144.822 114.621 143.43 114.884 141.898 114.884C140.104 114.884 138.541 114.59 137.211 114.002C135.896 113.43 134.766 112.656 133.823 111.681C132.879 110.691 132.106 109.547 131.502 108.247C130.899 106.932 130.427 105.547 130.087 104.093C129.746 102.624 129.507 101.131 129.367 99.6146C129.244 98.0831 129.182 96.6134 129.182 95.2056C129.182 93.0398 129.29 90.8817 129.507 88.7313C129.723 86.5655 130.033 84.4073 130.435 82.257L141.295 82.6747C140.877 85.1035 140.514 87.5478 140.204 90.0076C139.91 92.4519 139.763 94.9117 139.763 97.3869C139.763 97.6499 139.771 98.0444 139.787 98.5704C139.817 99.0809 139.864 99.661 139.926 100.311C139.988 100.945 140.073 101.603 140.181 102.283C140.305 102.948 140.467 103.56 140.668 104.116C140.869 104.673 141.109 105.13 141.388 105.486C141.682 105.841 142.022 106.019 142.409 106.019C142.857 106.019 143.26 105.81 143.615 105.393C143.971 104.96 144.281 104.387 144.544 103.676C144.822 102.964 145.062 102.144 145.263 101.216C145.464 100.288 145.634 99.3207 145.774 98.3151C145.913 97.3096 146.021 96.304 146.098 95.2984C146.191 94.2929 146.261 93.3569 146.307 92.4906C146.369 91.6242 146.408 90.8585 146.423 90.1932C146.439 89.528 146.446 89.033 146.446 88.7081C146.446 87.5014 146.423 86.3025 146.377 85.1112C146.346 83.9046 146.292 82.7056 146.214 81.5144H157.075C157.26 83.6493 157.353 85.8151 157.353 88.0119Z" fill="url(#paint11_linear_1098_9292)" />
	<path d="M127.977 97.4333C127.977 98.841 127.814 100.202 127.489 101.517C127.165 102.817 126.693 104.039 126.074 105.184C125.471 106.329 124.728 107.381 123.846 108.34C122.98 109.283 121.998 110.096 120.899 110.776C119.816 111.457 118.633 111.991 117.349 112.378C116.065 112.749 114.703 112.934 113.265 112.934C111.872 112.934 110.542 112.757 109.273 112.401C108.02 112.045 106.844 111.55 105.746 110.916C104.648 110.266 103.65 109.492 102.752 108.595C101.871 107.682 101.113 106.677 100.478 105.578C99.8595 104.464 99.3722 103.273 99.0164 102.005C98.676 100.736 98.5059 99.4134 98.5059 98.0366C98.5059 96.6907 98.6683 95.3757 98.9932 94.0917C99.3181 92.7922 99.7822 91.57 100.386 90.4252C101.004 89.2804 101.747 88.2284 102.613 87.2693C103.48 86.3101 104.446 85.4825 105.514 84.7863C106.597 84.0901 107.765 83.5487 109.018 83.1619C110.271 82.7752 111.594 82.5818 112.986 82.5818C115.229 82.5818 117.271 82.9299 119.112 83.626C120.969 84.3222 122.547 85.32 123.846 86.6195C125.161 87.9036 126.174 89.4661 126.886 91.307C127.613 93.1325 127.977 95.1746 127.977 97.4333ZM117.674 98.0366C117.674 97.3714 117.573 96.7294 117.372 96.1105C117.186 95.4763 116.908 94.9193 116.536 94.4398C116.165 93.9447 115.701 93.5502 115.144 93.2563C114.603 92.9469 113.976 92.7922 113.265 92.7922C112.537 92.7922 111.888 92.9237 111.315 93.1867C110.743 93.4497 110.248 93.8132 109.83 94.2773C109.428 94.726 109.118 95.2597 108.902 95.8785C108.685 96.4818 108.577 97.1238 108.577 97.8045C108.577 98.4543 108.67 99.104 108.855 99.7538C109.041 100.404 109.32 100.991 109.691 101.517C110.062 102.043 110.519 102.469 111.06 102.794C111.617 103.119 112.259 103.281 112.986 103.281C113.713 103.281 114.363 103.142 114.935 102.863C115.523 102.569 116.018 102.183 116.42 101.703C116.823 101.208 117.132 100.643 117.349 100.009C117.565 99.3748 117.674 98.7173 117.674 98.0366Z" fill="url(#paint12_linear_1098_9292)" />
	<path d="M97.9957 91.4457C97.9957 92.6524 97.8874 93.7508 97.6708 94.7409C97.4697 95.7155 97.1448 96.6128 96.6962 97.4327C96.2476 98.2527 95.6674 99.0107 94.9558 99.7069C94.2442 100.403 93.3856 101.068 92.38 101.703L97.9029 111.542L87.4604 113.584L83.8868 103.698L81.0093 103.791L80.5916 113.444H70.6133C70.6906 109.917 70.7602 106.406 70.8221 102.909C70.8995 99.4129 70.9846 95.9012 71.0774 92.374C71.1083 90.5949 71.1393 88.8313 71.1702 87.0831C71.2012 85.335 71.263 83.5714 71.3559 81.7923C72.4388 81.3901 73.5062 81.0575 74.5582 80.7945C75.6102 80.5315 76.6622 80.3304 77.7141 80.1911C78.7816 80.0364 79.8568 79.9359 80.9397 79.8895C82.0381 79.8276 83.1597 79.7966 84.3045 79.7966C86.0681 79.7966 87.7698 80.0442 89.4097 80.5392C91.065 81.0188 92.527 81.7459 93.7955 82.7205C95.0641 83.6951 96.0774 84.9096 96.8354 86.3638C97.6089 87.818 97.9957 89.512 97.9957 91.4457ZM87.5997 92.1883C87.5997 91.5386 87.5068 90.943 87.3212 90.4015C87.151 89.86 86.888 89.3959 86.5322 89.0092C86.1919 88.607 85.7587 88.2975 85.2327 88.081C84.7222 87.8489 84.1188 87.7329 83.4227 87.7329C83.1133 87.7329 82.8116 87.7561 82.5177 87.8025C82.2237 87.8334 81.9375 87.8876 81.6591 87.9649L81.2878 96.5974H81.8447C82.5099 96.5974 83.1829 96.5123 83.8636 96.3421C84.5598 96.1719 85.1786 95.9089 85.72 95.5531C86.277 95.1973 86.7256 94.7409 87.0659 94.184C87.4218 93.6271 87.5997 92.9618 87.5997 92.1883Z" fill="url(#paint13_linear_1098_9292)" />
	<defs>
		<filter id="filter0_f_1098_9292" x="0.156257" y="9.21863" width="347" height="88" filterUnits="userSpaceOnUse" color-interpolation-filters="sRGB">
			<feFlood flood-opacity="0" result="BackgroundImageFix" />
			<feBlend mode="normal" in="SourceGraphic" in2="BackgroundImageFix" result="shape" />
			<feGaussianBlur stdDeviation="6" result="effect1_foregroundBlur_1098_9292" />
		</filter>
		<filter id="filter1_f_1098_9292" x="0.156257" y="19.2188" width="347" height="88" filterUnits="userSpaceOnUse" color-interpolation-filters="sRGB">
			<feFlood flood-opacity="0" result="BackgroundImageFix" />
			<feBlend mode="normal" in="SourceGraphic" in2="BackgroundImageFix" result="shape" />
			<feGaussianBlur stdDeviation="6" result="effect1_foregroundBlur_1098_9292" />
		</filter>
		<linearGradient id="paint0_linear_1098_9292" x1="319.469" y1="37.311" x2="310.181" y2="64.6497" gradientUnits="userSpaceOnUse">
			<stop stop-color="#F29D00" />
			<stop offset="0.333333" stop-color="#FFEC1C" />
			<stop offset="0.666667" stop-color="#FFEC1C" />
			<stop offset="1" stop-color="white" />
		</linearGradient>
		<linearGradient id="paint1_linear_1098_9292" x1="244.08" y1="33.7407" x2="257.574" y2="63.1719" gradientUnits="userSpaceOnUse">
			<stop stop-color="#F29D00" />
			<stop offset="0.333333" stop-color="#FFEC1C" />
			<stop offset="0.666667" stop-color="#FFEC1C" />
			<stop offset="1" stop-color="white" />
		</linearGradient>
		<linearGradient id="paint2_linear_1098_9292" x1="137.854" y1="32.3664" x2="146.245" y2="64.9191" gradientUnits="userSpaceOnUse">
			<stop stop-color="#F29D00" />
			<stop offset="0.333333" stop-color="#FFEC1C" />
			<stop offset="0.666667" stop-color="#FFEC1C" />
			<stop offset="1" stop-color="white" />
		</linearGradient>
		<linearGradient id="paint3_linear_1098_9292" x1="81.5251" y1="33.9996" x2="93.5866" y2="64.9121" gradientUnits="userSpaceOnUse">
			<stop stop-color="#F29D00" />
			<stop offset="0.333333" stop-color="#FFEC1C" />
			<stop offset="0.666667" stop-color="#FFEC1C" />
			<stop offset="1" stop-color="white" />
		</linearGradient>
		<linearGradient id="paint4_linear_1098_9292" x1="220.024" y1="34.974" x2="200.504" y2="59.2756" gradientUnits="userSpaceOnUse">
			<stop stop-color="#F29D00" />
			<stop offset="0.333333" stop-color="#FFEC1C" />
			<stop offset="0.666667" stop-color="#FFEC1C" />
			<stop offset="1" stop-color="white" />
		</linearGradient>
		<linearGradient id="paint5_linear_1098_9292" x1="27.1761" y1="34.2464" x2="42.4202" y2="63.1599" gradientUnits="userSpaceOnUse">
			<stop stop-color="#F29D00" />
			<stop offset="0.333333" stop-color="#FFEC1C" />
			<stop offset="0.666667" stop-color="#FFEC1C" />
			<stop offset="1" stop-color="white" />
		</linearGradient>
		<linearGradient id="paint6_linear_1098_9292" x1="261.118" y1="97.0711" x2="269.901" y2="111.797" gradientUnits="userSpaceOnUse">
			<stop stop-color="#F29D00" />
			<stop offset="0.333333" stop-color="#FFEC1C" />
			<stop offset="0.666667" stop-color="#FFEC1C" />
			<stop offset="1" stop-color="white" />
		</linearGradient>
		<linearGradient id="paint7_linear_1098_9292" x1="235.31" y1="96.9321" x2="243.128" y2="112.462" gradientUnits="userSpaceOnUse">
			<stop stop-color="#F29D00" />
			<stop offset="0.333333" stop-color="#FFEC1C" />
			<stop offset="0.666667" stop-color="#FFEC1C" />
			<stop offset="1" stop-color="white" />
		</linearGradient>
		<linearGradient id="paint8_linear_1098_9292" x1="209.025" y1="96.9834" x2="216.843" y2="112.513" gradientUnits="userSpaceOnUse">
			<stop stop-color="#F29D00" />
			<stop offset="0.333333" stop-color="#FFEC1C" />
			<stop offset="0.666667" stop-color="#FFEC1C" />
			<stop offset="1" stop-color="white" />
		</linearGradient>
		<linearGradient id="paint9_linear_1098_9292" x1="186.208" y1="97.0711" x2="194.991" y2="111.797" gradientUnits="userSpaceOnUse">
			<stop stop-color="#F29D00" />
			<stop offset="0.333333" stop-color="#FFEC1C" />
			<stop offset="0.666667" stop-color="#FFEC1C" />
			<stop offset="1" stop-color="white" />
		</linearGradient>
		<linearGradient id="paint10_linear_1098_9292" x1="164.348" y1="96.3059" x2="172.952" y2="110.193" gradientUnits="userSpaceOnUse">
			<stop stop-color="#F29D00" />
			<stop offset="0.333333" stop-color="#FFEC1C" />
			<stop offset="0.666667" stop-color="#FFEC1C" />
			<stop offset="1" stop-color="white" />
		</linearGradient>
		<linearGradient id="paint11_linear_1098_9292" x1="136.398" y1="98.1854" x2="144.035" y2="114.525" gradientUnits="userSpaceOnUse">
			<stop stop-color="#F29D00" />
			<stop offset="0.333333" stop-color="#FFEC1C" />
			<stop offset="0.666667" stop-color="#FFEC1C" />
			<stop offset="1" stop-color="white" />
		</linearGradient>
		<linearGradient id="paint12_linear_1098_9292" x1="106.055" y1="97.7457" x2="112.371" y2="113.288" gradientUnits="userSpaceOnUse">
			<stop stop-color="#F29D00" />
			<stop offset="0.333333" stop-color="#FFEC1C" />
			<stop offset="0.666667" stop-color="#FFEC1C" />
			<stop offset="1" stop-color="white" />
		</linearGradient>
		<linearGradient id="paint13_linear_1098_9292" x1="77.6273" y1="96.6763" x2="85.5612" y2="112.972" gradientUnits="userSpaceOnUse">
			<stop stop-color="#F29D00" />
			<stop offset="0.333333" stop-color="#FFEC1C" />
			<stop offset="0.666667" stop-color="#FFEC1C" />
			<stop offset="1" stop-color="white" />
		</linearGradient>
	</defs>
</svg>
