<svg width="33" height="18" viewBox="0 0 33 18" fill="none" xmlns="http://www.w3.org/2000/svg">
	<path d="M11.5596 13.6698C12.2326 13.2064 12.7865 12.5921 13.1777 11.8773L14.3848 14.1514C14.3848 14.1514 14.3848 14.1515 14.3848 14.1515C14.4571 14.2881 14.5434 14.4265 14.6244 14.5536C13.9786 15.3272 13.1876 15.9682 12.2951 16.44C11.3215 16.9546 10.2495 17.2559 9.15049 17.324C8.04584 17.3683 6.94358 17.1893 5.90975 16.7975C4.87463 16.4053 3.92946 15.8079 3.13099 15.0412C2.33252 14.2745 1.69723 13.3544 1.26325 12.3361C0.829272 11.3178 0.605566 10.2222 0.605566 9.11529C0.605566 8.00834 0.829272 6.91281 1.26325 5.89449C1.69723 4.87616 2.33252 3.95604 3.13099 3.18938C3.92946 2.42271 4.87463 1.82532 5.90975 1.43307C6.94321 1.04145 8.04505 0.862385 9.1493 0.906569C10.5305 1.00042 11.8634 1.45226 13.017 2.21766C14.1721 2.98404 15.1074 4.0383 15.7307 5.27645L15.7306 5.27649L15.7342 5.28333L17.8556 9.30202L17.8562 9.30308L19.1045 11.6509C19.4984 12.4614 20.0956 13.156 20.8379 13.6671C21.5824 14.1796 22.4473 14.4898 23.3478 14.5674L23.3574 14.5682L23.3671 14.5686C24.1007 14.5961 24.8323 14.4754 25.5181 14.2136C26.204 13.9519 26.83 13.5545 27.3587 13.0452C27.8875 12.536 28.308 11.9253 28.5953 11.2497C28.8826 10.5742 29.0307 9.84761 29.0307 9.11351C29.0307 8.3794 28.8826 7.65284 28.5953 6.97728C28.308 6.30172 27.8875 5.69104 27.3587 5.18178C26.83 4.67251 26.204 4.27512 25.5181 4.01337C24.8323 3.75162 24.1007 3.6309 23.3671 3.65842L23.3574 3.65879L23.3477 3.65962C22.4468 3.73742 21.5816 4.04793 20.8369 4.56074C20.1636 5.02437 19.6096 5.63898 19.2183 6.35404L18.0117 4.08628C18.0116 4.08612 18.0115 4.08596 18.0114 4.0858C17.9392 3.94933 17.8529 3.81107 17.7721 3.68411C18.4179 2.9105 19.2089 2.26946 20.1014 1.79771C21.075 1.28307 22.1471 0.981724 23.2463 0.913711C24.7066 0.852851 26.1568 1.18175 27.448 1.86666C28.7402 2.55209 29.8265 3.56933 30.5952 4.81377C31.3577 6.05839 31.7749 7.48367 31.8039 8.94303C31.833 10.4027 31.4726 11.8437 30.7599 13.1178C30.0472 14.392 29.0079 15.4532 27.7489 16.1924C26.4899 16.9316 25.0568 17.322 23.5968 17.3235H23.2392C21.8609 17.2284 20.5308 16.7768 19.3794 16.0129C18.2244 15.2465 17.289 14.1923 16.6658 12.9541L16.6658 12.9541L16.6622 12.9472L14.5409 8.92866L14.5408 8.92856L13.2993 6.57501C12.9055 5.76423 12.3081 5.06933 11.5656 4.55815C10.8212 4.04564 9.9563 3.7354 9.05582 3.65784L9.03869 3.65636H9.02149H8.80633L8.80594 3.65636C7.86484 3.65727 6.93977 3.90013 6.11958 4.36161C5.29959 4.82298 4.61197 5.48738 4.12269 6.29102C3.6024 7.14248 3.3271 8.12099 3.3271 9.11884C3.3271 10.1166 3.60232 11.0949 4.12247 11.9463C4.63123 12.7827 5.35489 13.4675 6.21812 13.9293C7.08148 14.3912 8.05287 14.6131 9.03115 14.5721L9.03998 14.5717L9.04879 14.5709C9.94965 14.4932 10.8148 14.1826 11.5596 13.6698Z" fill="#FDEC2D" stroke="black" stroke-width="0.8"/>
	</svg>
	