<svg width="40" height="40" viewBox="0 0 40 40" fill="none" xmlns="http://www.w3.org/2000/svg">
	<path d="M40 39L39.5 1L17.5 2L3.5 2L1.5 38.5L29.75 38.75L40 39Z" fill="#000122" />
	<path fill-rule="evenodd" clip-rule="evenodd" d="M21 23.1459C23.0532 23.1459 24.7245 21.5103 24.7245 19.4991C24.7245 17.4879 23.0541 15.8523 21 15.8523C18.946 15.8523 17.2755 17.4879 17.2755 19.4991C17.2755 21.5103 18.946 23.1459 21 23.1459ZM21 17.2363C22.275 17.2363 23.312 18.2516 23.312 19.5C23.312 20.7484 22.275 21.7637 21 21.7637C19.725 21.7637 18.6881 20.7484 18.6881 19.5C18.6881 18.2516 19.725 17.2363 21 17.2363Z" fill="#FDEC2D" />
	<path d="M26.0728 15.4589C26.0728 16.0012 25.6221 16.4415 25.0692 16.4415C24.5155 16.4415 24.0657 16.0012 24.0657 15.4589C24.0657 14.9167 24.5155 14.4764 25.0692 14.4764C25.623 14.4764 26.0728 14.9167 26.0728 15.4589Z" fill="#FDEC2D" />
	<path fill-rule="evenodd" clip-rule="evenodd" d="M24.9959 12H17.0041C14.7962 12 13 13.7587 13 15.9206V23.0794C13 25.2413 14.7962 27 17.0041 27H24.9959C27.2038 27 29 25.2413 29 23.0794V15.9206C29 13.7587 27.2038 12 24.9959 12ZM14.4125 15.9206C14.4125 14.5216 15.5753 13.383 17.0041 13.383H24.9959C26.4247 13.383 27.5875 14.5216 27.5875 15.9206V23.0794C27.5875 24.4784 26.4247 25.617 24.9959 25.617H17.0041C15.5753 25.617 14.4125 24.4784 14.4125 23.0794V15.9206Z" fill="#FDEC2D" />
</svg>
