<svg width="102" height="54" viewBox="0 0 102 54" fill="none" xmlns="http://www.w3.org/2000/svg">
	<path d="M95.2342 34.1741C96.5841 35.9604 98.7686 40.9074 96.7069 46.4054L80.6633 30.3628L80.4476 24.1074L95.4748 24.6107L96.9932 29.2243L95.2342 34.1741Z" fill="black" />
	<path d="M100.547 6.70679V1.70679L89.0471 1.20679L94.0471 10.2068L100.547 6.70679Z" fill="black" />
	<path d="M95.156 43.1736C95.156 44.4669 94.9295 45.5997 94.4763 46.572C94.0327 47.5349 93.4191 48.3373 92.6355 48.9792C91.8614 49.6212 90.9505 50.1026 89.9026 50.4236C88.8642 50.7445 87.7456 50.905 86.5467 50.905C86.0841 50.905 85.5743 50.8437 85.0174 50.7209C84.4698 50.5982 83.9129 50.4472 83.3465 50.2678C82.7801 50.079 82.2325 49.8808 81.7039 49.6731C81.1847 49.456 80.7221 49.253 80.3162 49.0642L80.9392 43.2302C81.7416 43.7117 82.629 44.0798 83.6013 44.3347C84.5831 44.5802 85.546 44.7029 86.49 44.7029C86.6694 44.7029 86.8865 44.6982 87.1414 44.6887C87.3963 44.6698 87.637 44.6274 87.8636 44.5613C88.0996 44.4858 88.2978 44.3772 88.4583 44.2356C88.6188 44.094 88.699 43.891 88.699 43.6267C88.699 43.4473 88.6424 43.2963 88.5291 43.1736C88.4158 43.0414 88.2695 42.9376 88.0901 42.8621C87.9108 42.7771 87.7078 42.7157 87.4812 42.678C87.2547 42.6308 87.0328 42.5977 86.8157 42.5789C86.5986 42.56 86.3956 42.5505 86.2068 42.5505C86.018 42.5505 85.867 42.5505 85.7537 42.5505C84.9418 42.5505 84.2008 42.4089 83.5305 42.1257C82.8697 41.8425 82.2986 41.4508 81.8172 40.9504C81.3452 40.4407 80.977 39.8412 80.7127 39.1521C80.4484 38.4535 80.3162 37.6983 80.3162 36.8865C80.3162 35.7725 80.538 34.7766 80.9817 33.8987C81.4348 33.0113 82.0343 32.2608 82.7801 31.6472C83.5353 31.0242 84.399 30.5474 85.3714 30.217C86.3437 29.8866 87.3491 29.7214 88.3875 29.7214C88.85 29.7214 89.3268 29.7403 89.8177 29.7781C90.3085 29.8064 90.7947 29.863 91.2762 29.948C91.767 30.033 92.2438 30.1415 92.7063 30.2737C93.1689 30.4058 93.6079 30.571 94.0232 30.7693L93.4851 36.5183C92.8432 36.3012 92.1682 36.1218 91.4602 35.9802C90.7617 35.8292 90.0773 35.7537 89.407 35.7537C89.2843 35.7537 89.1238 35.7584 88.9256 35.7678C88.7368 35.7678 88.5338 35.782 88.3167 35.8103C88.109 35.8292 87.8966 35.8622 87.6795 35.9094C87.4624 35.9566 87.2688 36.0227 87.0989 36.1077C86.929 36.1832 86.7921 36.287 86.6883 36.4192C86.5844 36.5514 86.5372 36.7071 86.5467 36.8865C86.5561 37.0942 86.6316 37.2641 86.7732 37.3962C86.9243 37.519 87.1131 37.6181 87.3396 37.6936C87.5756 37.7597 87.8305 37.8069 88.1043 37.8352C88.3875 37.8635 88.666 37.8824 88.9397 37.8918C89.2135 37.8918 89.4684 37.8918 89.7044 37.8918C89.9404 37.8824 90.1339 37.8871 90.2849 37.906C91.0402 37.9532 91.7198 38.1137 92.324 38.3875C92.9282 38.6612 93.4379 39.0247 93.8533 39.4778C94.2781 39.9309 94.5991 40.4737 94.8162 41.1062C95.0428 41.7292 95.156 42.4184 95.156 43.1736Z" fill="black" />
	<path fill-rule="evenodd" clip-rule="evenodd" d="M91.4602 35.9802C90.7617 35.8291 90.0772 35.7536 89.407 35.7536C89.2843 35.7536 89.1238 35.7583 88.9256 35.7678C88.7367 35.7678 88.5338 35.7819 88.3167 35.8102C88.2651 35.8149 88.2133 35.8205 88.1612 35.8269C88.119 35.8321 88.0767 35.8379 88.0342 35.8442C88.0068 35.8483 87.9793 35.8526 87.9517 35.8572C87.9175 35.8629 87.8832 35.8689 87.8487 35.8753C87.7926 35.8857 87.7362 35.897 87.6795 35.9094C87.4623 35.9566 87.2688 36.0226 87.0989 36.1076C86.929 36.1831 86.7921 36.287 86.6882 36.4191C86.5844 36.5513 86.5372 36.7071 86.5466 36.8864C86.5561 37.0941 86.6316 37.264 86.7732 37.3962C86.9242 37.5189 87.1131 37.618 87.3396 37.6935C87.5016 37.7389 87.6726 37.7754 87.8524 37.803C87.8859 37.8081 87.9197 37.8129 87.9538 37.8174C87.9958 37.823 88.0383 37.8281 88.0812 37.8327C88.0868 37.8333 88.0924 37.8339 88.098 37.8345C88.1001 37.8347 88.1022 37.8349 88.1043 37.8351C88.1361 37.8383 88.1678 37.8414 88.1995 37.8443C88.45 37.8676 88.6967 37.8834 88.9397 37.8918H89.7044C89.9404 37.8823 90.1339 37.8871 90.2849 37.906C91.0401 37.9532 91.7198 38.1136 92.324 38.3874C92.9282 38.6612 93.4379 39.0246 93.8533 39.4777C94.2781 39.9309 94.5991 40.4737 94.8162 41.1061C95.0427 41.7292 95.156 42.4183 95.156 43.1735C95.156 44.4668 94.9295 45.5996 94.4763 46.572C94.0326 47.5349 93.419 48.3373 92.6355 48.9792C91.8614 49.6211 90.9505 50.1026 89.9026 50.4235C88.8642 50.7445 87.7455 50.905 86.5466 50.905C86.0841 50.905 85.5743 50.8436 85.0173 50.7209C84.4698 50.5982 83.9129 50.4471 83.3464 50.2678C82.78 50.079 82.2325 49.8807 81.7039 49.673C81.1847 49.4559 80.7221 49.253 80.3162 49.0642L80.9392 43.2302C81.5319 43.5858 82.171 43.8796 82.8565 44.1116C83.0989 44.1937 83.3472 44.2681 83.6013 44.3347C84.5831 44.5801 85.546 44.7028 86.49 44.7028C86.6694 44.7028 86.8865 44.6981 87.1414 44.6887C87.1791 44.6859 87.2164 44.6826 87.2535 44.6787C87.255 44.6786 87.2566 44.6784 87.2581 44.6783C87.2818 44.6758 87.3053 44.6731 87.3287 44.6702C87.515 44.6472 87.6933 44.6109 87.8635 44.5612C88.0995 44.4857 88.2978 44.3771 88.4583 44.2355C88.6187 44.0939 88.699 43.891 88.699 43.6267C88.699 43.4473 88.6423 43.2963 88.5291 43.1735C88.4158 43.0414 88.2695 42.9375 88.0901 42.862C87.9107 42.777 87.7078 42.7157 87.4812 42.6779C87.4219 42.6656 87.3629 42.6542 87.3043 42.6438C87.3023 42.6434 87.3003 42.6431 87.2984 42.6427C87.135 42.6139 86.9741 42.5926 86.8157 42.5788C86.5986 42.5599 86.3956 42.5505 86.2068 42.5505H85.7537C84.9418 42.5505 84.2008 42.4089 83.5305 42.1257C82.8697 41.8425 82.2986 41.4507 81.8172 40.9504C81.3451 40.4406 80.977 39.8412 80.7127 39.152C80.4483 38.4535 80.3162 37.6983 80.3162 36.8864C80.3162 35.7725 80.538 34.7766 80.9817 33.8986C81.4348 33.0113 82.0343 32.2608 82.78 31.6472C83.5353 31.0241 84.399 30.5474 85.3714 30.217C86.3437 29.8866 87.3491 29.7214 88.3875 29.7214C88.85 29.7214 89.3268 29.7403 89.8176 29.778C90.3085 29.8063 90.7947 29.863 91.2761 29.9479C91.767 30.0329 92.2437 30.1415 92.7063 30.2736C93.1689 30.4058 93.6078 30.571 94.0232 30.7692L93.4851 36.5183C92.863 36.3078 92.2098 36.1328 91.5255 35.9934C91.5038 35.9889 91.482 35.9845 91.4602 35.9802ZM95.3419 38.1416L96.1446 29.5656L94.8847 28.9643C94.3643 28.7159 93.8206 28.512 93.2558 28.3506C92.7233 28.1984 92.178 28.0744 91.6204 27.9778C91.0691 27.8806 90.5129 27.8156 89.9522 27.7825M95.3419 38.1416C95.9553 38.8051 96.4048 39.5811 96.7019 40.4396C97.0141 41.305 97.156 42.2235 97.156 43.1735C97.156 44.6981 96.8888 46.1282 96.291 47.4128C95.7276 48.6342 94.9333 49.6809 93.9078 50.5224C92.9142 51.3453 91.7654 51.9444 90.4904 52.3352C89.2429 52.7205 87.9243 52.905 86.5466 52.905C85.9105 52.905 85.254 52.821 84.587 52.674L84.5799 52.6725C83.9732 52.5365 83.3607 52.3702 82.7427 52.1745L82.7283 52.1699L82.714 52.1651C82.116 51.9658 81.5355 51.7557 80.9726 51.5345L80.9523 51.5266L80.9323 51.5182C80.3947 51.2934 79.9075 51.0798 79.4727 50.8776L78.1756 50.2743L79.2017 40.666" fill="black" />
	<path d="M80.1604 30.2878C80.1038 31.1752 80.0519 32.0531 80.0047 32.9216C79.9575 33.7901 79.8961 34.6681 79.8206 35.5554L73.8167 35.8669L73.6751 37.6511H77.8948L77.5833 42.0408L73.3352 42.1824L73.1936 44.2498H76.7054H79.1975C79.1409 45.2882 79.0795 46.3219 79.0135 47.3508C78.9568 48.3704 78.9049 49.3946 78.8577 50.4236L66.6516 50.7068L67.1048 30.2878H80.1604Z" fill="black" />
	<path fill-rule="evenodd" clip-rule="evenodd" d="M82.2922 28.2878L82.1564 30.4152C82.1001 31.2965 82.0486 32.1681 82.0017 33.0302C81.9534 33.9195 81.8906 34.8178 81.8134 35.725L81.6655 37.4624L79.9068 37.5536L79.5735 42.2498H81.3096L81.1946 44.3587C81.1378 45.4005 81.0762 46.4378 81.0099 47.4703C80.9538 48.4805 80.9024 49.4955 80.8556 50.5152L80.7701 52.3798L64.6057 52.7548L65.1487 28.2878H82.2922ZM79.0135 47.3508C79.037 46.9844 79.0599 46.6174 79.0823 46.2498C79.1227 45.585 79.1611 44.9184 79.1976 44.2498H73.1936L73.3352 42.1824L77.5833 42.0408L77.8948 37.6511H73.6751L73.8167 35.8669L79.8206 35.5554C79.8961 34.6681 79.9575 33.7901 80.0047 32.9216C80.0161 32.7109 80.0279 32.4997 80.0399 32.2878C80.0774 31.6266 80.1175 30.9599 80.1604 30.2878H67.1048L66.6517 50.7068L78.8577 50.4236C78.9049 49.3946 78.9568 48.3704 79.0135 47.3508Z" fill="black" />
	<path d="M65.7029 30.0613L64.4002 50.8484L57.9431 51.1316L57.9998 40.1716L55.0828 49.0076H52.5906L50.3533 41.1062L50.325 50.282L43.783 50.4802L44.0662 30.9109L51.3445 30.6277L54.2332 40.0017L58.0847 30.0613H65.7029Z" fill="black" />
	<path fill-rule="evenodd" clip-rule="evenodd" d="M67.8322 28.0613L66.2838 52.7677L55.9323 53.2217L55.9438 51.0076H52.3227L52.319 52.2225L41.7529 52.5427L42.0938 28.9861L52.803 28.5694L54.4487 33.9098L56.7148 28.0613H67.8322ZM54.2332 40.0017L51.3445 30.6277L44.0662 30.9109L43.783 50.4802L50.325 50.282L50.3533 41.1062L52.5906 49.0076H55.0828L57.9998 40.1716L57.9431 51.1316L64.4002 50.8484L65.7029 30.0613H58.0847L54.2332 40.0017Z" fill="black" />
	<path d="M43.5139 49.489L36.4905 50.3953L35.6409 47.1951H32.4124L31.7044 50.3953L24.4827 49.6873L30.1184 30.8259L37.9915 30.4294L43.5139 49.489ZM35.1311 42.8621L34.055 37.9343L33.0071 42.8621H35.1311Z" fill="black" />
	<path fill-rule="evenodd" clip-rule="evenodd" d="M46.0844 51.1739L35.0074 52.6032L34.1026 49.195H34.0183L33.2741 52.5587L21.8714 51.4408L28.6067 28.8995L39.4719 28.3523L46.0844 51.1739ZM35.6409 47.195L36.4905 50.3952L43.514 49.489L37.9915 30.4294L30.1184 30.8259L24.4827 49.6872L31.7044 50.3952L32.4124 47.195H35.6409ZM34.055 37.9343L33.0071 42.862H35.1311L34.055 37.9343Z" fill="black" />
	<path d="M24.5677 47.8181C24.124 48.3751 23.5764 48.8612 22.9251 49.2766C22.2737 49.692 21.5751 50.0365 20.8294 50.3103C20.0836 50.5841 19.319 50.787 18.5354 50.9192C17.7519 51.0608 17.0061 51.1316 16.2981 51.1316C14.9293 51.1316 13.6691 50.8861 12.5174 50.3953C11.3657 49.9044 10.3697 49.2294 9.52957 48.3704C8.69884 47.5019 8.04748 46.4823 7.57547 45.3118C7.10346 44.1412 6.86746 42.8809 6.86746 41.531C6.86746 40.502 6.98546 39.4967 7.22147 38.5149C7.45747 37.5237 7.79259 36.5938 8.22684 35.7253C8.67052 34.8474 9.20861 34.045 9.84109 33.3181C10.4736 32.5818 11.191 31.9493 11.9934 31.4207C12.7958 30.892 13.6738 30.4814 14.6272 30.1887C15.5807 29.8961 16.6002 29.7498 17.6858 29.7498C18.0917 29.7498 18.526 29.7686 18.9886 29.8064C19.4511 29.8347 19.909 29.8914 20.3621 29.9763C20.8247 30.0518 21.2731 30.1604 21.7073 30.302C22.1416 30.4436 22.538 30.6182 22.8968 30.8259L22.5003 36.2351C21.9716 36.0369 21.4241 35.9047 20.8577 35.8386C20.3007 35.7631 19.7532 35.7253 19.2151 35.7253C18.4599 35.7253 17.7519 35.8433 17.0911 36.0793C16.4397 36.3059 15.8686 36.6363 15.3777 37.0706C14.8963 37.5048 14.5139 38.0334 14.2307 38.6565C13.9475 39.2795 13.8059 39.9828 13.8059 40.7664C13.8059 41.2572 13.872 41.734 14.0042 42.1965C14.1363 42.6497 14.3346 43.0556 14.5989 43.4143C14.8727 43.7636 15.2078 44.0468 15.6043 44.2639C16.0102 44.481 16.4775 44.5896 17.0061 44.5896C17.3649 44.5896 17.733 44.5424 18.1106 44.448C18.4977 44.3536 18.8281 44.1931 19.1018 43.9666L19.1585 42.8621L15.76 42.8054L15.93 38.5574C17.3365 38.5102 18.7431 38.4724 20.1497 38.4441C21.5563 38.4063 22.9723 38.3591 24.3977 38.3025L24.5677 47.8181Z" fill="black" />
	<path fill-rule="evenodd" clip-rule="evenodd" d="M26.5802 48.5016L26.132 49.0643C25.5395 49.808 24.8222 50.4389 24.0004 50.9629C23.2242 51.4579 22.3957 51.8658 21.5186 52.1878C20.6608 52.5027 19.7807 52.7367 18.8798 52.8894C17.9971 53.0483 17.1355 53.1316 16.2981 53.1316C14.6851 53.1316 13.1551 52.8412 11.7332 52.2351C10.3496 51.6454 9.13166 50.8239 8.09973 49.7688L8.09197 49.7608L8.08429 49.7528C7.06924 48.6916 6.28275 47.4539 5.72059 46.0597C5.14622 44.6353 4.86746 43.1192 4.86746 41.531C4.86746 40.3483 5.00319 39.1866 5.27636 38.0495C5.54613 36.9172 5.93214 35.8426 6.43798 34.8309L6.44182 34.8232C6.95768 33.8025 7.58648 32.8632 8.32814 32.0101C9.07958 31.1362 9.93557 30.3814 10.8931 29.7505C11.8603 29.1134 12.9121 28.6231 14.0404 28.2768C15.2 27.9208 16.4188 27.7498 17.6858 27.7498C18.147 27.7498 18.6293 27.7709 19.1314 27.8114C19.6614 27.8447 20.187 27.9096 20.7077 28.0063C21.2605 28.0977 21.8008 28.2288 22.3273 28.4005C22.8812 28.5812 23.4075 28.8106 23.8988 29.0951L24.983 29.7227L24.5011 36.2968L26.3609 36.2229L26.5802 48.5016ZM16.0829 36.5512C16.3944 36.3621 16.7304 36.2048 17.0911 36.0793C17.7519 35.8433 18.4599 35.7253 19.2151 35.7253C19.6463 35.7253 20.0836 35.7496 20.5269 35.7981C20.6368 35.8101 20.7471 35.8236 20.8577 35.8386C21.4241 35.9047 21.9716 36.0369 22.5003 36.2351L22.8968 30.8259C22.538 30.6182 22.1416 30.4436 21.7073 30.302C21.2731 30.1604 20.8247 30.0518 20.3621 29.9763C19.909 29.8914 19.4511 29.8347 18.9886 29.8064C18.526 29.7686 18.0917 29.7498 17.6858 29.7498C16.6002 29.7498 15.5807 29.8961 14.6272 30.1887C13.6738 30.4814 12.7958 30.892 11.9934 31.4207C11.191 31.9493 10.4736 32.5818 9.84109 33.3181C9.20861 34.045 8.67052 34.8474 8.22684 35.7253C7.79259 36.5938 7.45747 37.5237 7.22147 38.5149C6.98546 39.4967 6.86746 40.502 6.86746 41.531C6.86746 42.8809 7.10346 44.1412 7.57547 45.3118C8.04748 46.4823 8.69884 47.5019 9.52957 48.3704C10.3697 49.2294 11.3657 49.9044 12.5174 50.3953C13.6691 50.8861 14.9293 51.1316 16.2981 51.1316C17.0061 51.1316 17.7519 51.0608 18.5354 50.9192C19.319 50.787 20.0836 50.5841 20.8294 50.3103C21.5751 50.0365 22.2737 49.692 22.9251 49.2766C23.5764 48.8612 24.124 48.3751 24.5677 47.8181L24.3977 38.3025C24.3831 38.3031 24.3686 38.3036 24.354 38.3042C23.7354 38.3287 23.1187 38.3514 22.5037 38.3724C22.4687 38.3736 22.4337 38.3748 22.3987 38.3759C21.6464 38.4013 20.8967 38.424 20.1497 38.4441C19.0152 38.4669 17.8806 38.4959 16.7461 38.531C16.7295 38.5316 16.713 38.5321 16.6964 38.5326C16.6882 38.5328 16.68 38.5331 16.6717 38.5334C16.4245 38.5411 16.1772 38.5491 15.93 38.5574L15.76 42.8054L19.1585 42.8621L19.1018 43.9666C18.8281 44.1931 18.4977 44.3536 18.1106 44.448C17.733 44.5424 17.3649 44.5896 17.0061 44.5896C16.5332 44.5896 16.1094 44.5027 15.7346 44.3289C15.6905 44.3085 15.6471 44.2868 15.6043 44.2639C15.2078 44.0468 14.8727 43.7636 14.5989 43.4143C14.4458 43.2065 14.3148 42.9828 14.206 42.7433C14.1271 42.5694 14.0598 42.3871 14.0042 42.1965C13.9107 41.8693 13.8503 41.535 13.8229 41.1936C13.8116 41.0524 13.8059 40.91 13.8059 40.7664C13.8059 40.4464 13.8296 40.1397 13.8768 39.8465C13.9452 39.4217 14.0632 39.0251 14.2307 38.6565C14.2559 38.6011 14.2819 38.5464 14.3086 38.4925C14.5827 37.9402 14.9391 37.4662 15.3777 37.0706C15.5329 36.9333 15.6961 36.8064 15.8673 36.6899C15.9378 36.6419 16.0097 36.5957 16.0829 36.5512Z" fill="black" />
	<path d="M99.5315 24.7898C99.5315 25.2052 99.4513 25.5922 99.2908 25.9509C99.1303 26.3097 98.9132 26.6259 98.6394 26.8997C98.3751 27.164 98.0636 27.3764 97.7049 27.5369C97.3461 27.6879 96.9638 27.7634 96.5579 27.7634C96.1425 27.7634 95.7555 27.6879 95.3968 27.5369C95.038 27.3764 94.7218 27.164 94.448 26.8997C94.1837 26.6259 93.9713 26.3097 93.8108 25.9509C93.6598 25.5922 93.5843 25.2052 93.5843 24.7898C93.5843 24.3839 93.6598 23.9968 93.8108 23.6287C93.9713 23.2605 94.1837 22.9443 94.448 22.6799C94.7218 22.4062 95.038 22.189 95.3968 22.0286C95.7555 21.8681 96.1425 21.7878 96.5579 21.7878C96.9638 21.7878 97.3461 21.8681 97.7049 22.0286C98.0636 22.189 98.3751 22.4062 98.6394 22.6799C98.9132 22.9443 99.1303 23.2605 99.2908 23.6287C99.4513 23.9968 99.5315 24.3839 99.5315 24.7898Z" fill="black" />
	<path fill-rule="evenodd" clip-rule="evenodd" d="M98.5014 29.3715L98.481 29.3801C97.8661 29.6391 97.2187 29.7634 96.5579 29.7634C95.8941 29.7634 95.2412 29.6414 94.6206 29.3801L94.6002 29.3715L94.58 29.3625C94.0165 29.1104 93.505 28.7692 93.0588 28.3385L93.0336 28.3141L93.0092 28.2888C92.5785 27.8427 92.2373 27.3312 91.9852 26.7677L91.9761 26.7474L91.9676 26.727C91.7063 26.1065 91.5843 25.4536 91.5843 24.7898C91.5843 24.1289 91.7086 23.4835 91.9605 22.8695L91.9687 22.8494L91.9774 22.8295C92.2304 22.2491 92.5797 21.7198 93.0338 21.2657C93.4826 20.8169 94.0021 20.4615 94.58 20.2029C95.2102 19.921 95.8774 19.7878 96.5579 19.7878C97.2358 19.7878 97.8974 19.9237 98.5216 20.2029C99.0953 20.4596 99.6116 20.814 100.054 21.2657C100.514 21.7167 100.87 22.2452 101.124 22.8295C101.396 23.4525 101.532 24.1119 101.532 24.7898C101.532 25.4703 101.398 26.1375 101.116 26.7677C100.858 27.3455 100.502 27.8651 100.054 28.3139C99.6082 28.7593 99.0913 29.1076 98.5216 29.3625L98.5014 29.3715ZM98.6394 22.6799C98.3751 22.4062 98.0636 22.189 97.7049 22.0286C97.3461 21.8681 96.9638 21.7878 96.5579 21.7878C96.1425 21.7878 95.7555 21.8681 95.3968 22.0286C95.038 22.189 94.7218 22.4062 94.448 22.6799C94.1837 22.9443 93.9713 23.2605 93.8108 23.6287C93.6598 23.9968 93.5843 24.3839 93.5843 24.7898C93.5843 25.2052 93.6598 25.5922 93.8108 25.9509C93.9713 26.3097 94.1837 26.6259 94.448 26.8997C94.7218 27.164 95.038 27.3764 95.3968 27.5369C95.7555 27.6879 96.1425 27.7634 96.5579 27.7634C96.9638 27.7634 97.3461 27.6879 97.7049 27.5369C98.0636 27.3764 98.3751 27.164 98.6394 26.8997C98.9132 26.6259 99.1303 26.3097 99.2908 25.9509C99.4513 25.5922 99.5315 25.2052 99.5315 24.7898C99.5315 24.3839 99.4513 23.9968 99.2908 23.6287C99.1303 23.2605 98.9132 22.9443 98.6394 22.6799Z" fill="black" />
	<path d="M96.8128 8.53394L89.0247 19.4089L88.6565 28.2732H81.9446L82.1145 19.4656L78.0647 8.95874L85.2864 8.05249L86.4192 14.1697L90.0159 8.05249L96.8128 8.53394Z" fill="black" />
	<path fill-rule="evenodd" clip-rule="evenodd" d="M100.521 6.79156L90.9982 20.0882L90.5752 30.2732H79.9057L80.1073 19.819L75.2791 7.29262L86.9094 5.83313L87.4103 8.53804L88.9203 5.96987L100.521 6.79156ZM90.0159 8.05249L96.8128 8.53393L89.0247 19.4089L88.6565 28.2732H81.9446L82.1145 19.4656L78.0647 8.95874L85.2864 8.05249L86.4192 14.1697L90.0159 8.05249Z" fill="black" />
	<path d="M78.1214 7.28784C78.0647 8.17521 78.0128 9.05314 77.9656 9.92163C77.9184 10.7901 77.857 11.6681 77.7815 12.5554L71.7776 12.8669L71.636 14.6511H75.8557L75.5442 19.0408L71.2962 19.1824L71.1546 21.2498H74.6663H77.1585C77.1018 22.2882 77.0405 23.3219 76.9744 24.3508C76.9178 25.3704 76.8658 26.3946 76.8186 27.4236L64.6126 27.7068L65.0657 7.28784H78.1214Z" fill="black" />
	<path fill-rule="evenodd" clip-rule="evenodd" d="M80.2531 5.28784L80.1173 7.41524C80.061 8.29646 80.0095 9.16811 79.9626 10.0302C79.9143 10.9195 79.8515 11.8178 79.7743 12.725L79.6264 14.4624L77.8677 14.5536L77.5344 19.2498H79.2705L79.1555 21.3587C79.0987 22.4005 79.0371 23.4378 78.9708 24.4703C78.9147 25.4805 78.8633 26.4955 78.8165 27.5152L78.731 29.3798L62.5666 29.7548L63.1096 5.28784H80.2531ZM76.9744 24.3508C76.9979 23.9844 77.0208 23.6174 77.0432 23.2498C77.0836 22.585 77.122 21.9184 77.1585 21.2498H71.1546L71.2962 19.1824L75.5442 19.0408L75.8557 14.6511H71.636L71.7776 12.8669L77.7815 12.5554C77.857 11.6681 77.9184 10.7901 77.9656 9.92163C77.977 9.71092 77.9888 9.49966 78.0008 9.28784C78.0383 8.62659 78.0785 7.95992 78.1213 7.28784H65.0657L64.6126 27.7068L76.8186 27.4236C76.8658 26.3946 76.9177 25.3704 76.9744 24.3508Z" fill="black" />
	<path d="M63.5506 7.40112L62.531 26.6023L55.1111 27.282L51.1463 17.0017L50.5232 27.4802H44.1512L44.6609 7.40112L51.741 7.06128L56.6404 17.2566L56.867 7.62769L63.5506 7.40112Z" fill="black" />
	<path fill-rule="evenodd" clip-rule="evenodd" d="M65.6634 5.32834L64.4365 28.4361L53.7888 29.4115L52.5958 26.3183L52.4078 29.4802H42.0997L42.7087 5.49251L52.9694 5L54.8368 8.88596L54.9119 5.6928L65.6634 5.32834ZM56.6404 17.2566L51.741 7.06127L44.6609 7.40111L44.1512 27.4802H50.5232L51.1463 17.0017L55.1111 27.282L62.531 26.6023L63.5506 7.40111L56.867 7.62767L56.6404 17.2566Z" fill="black" />
	<path d="M43.3015 17.7097C43.3015 18.5688 43.2024 19.3995 43.0042 20.2019C42.8059 20.9949 42.518 21.7406 42.1404 22.4392C41.7722 23.1378 41.3191 23.7797 40.781 24.365C40.2524 24.9408 39.6529 25.4364 38.9827 25.8518C38.3219 26.2672 37.5997 26.5929 36.8162 26.8289C36.0327 27.0554 35.2019 27.1687 34.324 27.1687C33.4744 27.1687 32.6625 27.0601 31.8885 26.843C31.1238 26.6259 30.4064 26.3238 29.7361 25.9368C29.0659 25.5403 28.457 25.0683 27.9095 24.5208C27.3714 23.9638 26.9088 23.3502 26.5218 22.6799C26.1442 22.0002 25.8468 21.2734 25.6297 20.4993C25.422 19.7252 25.3181 18.918 25.3181 18.0779C25.3181 17.2566 25.4173 16.4542 25.6155 15.6707C25.8138 14.8777 26.097 14.1319 26.4651 13.4333C26.8427 12.7348 27.2958 12.0929 27.8245 11.5076C28.3531 10.9223 28.9431 10.4172 29.5945 9.99243C30.2553 9.56763 30.968 9.23722 31.7327 9.00122C32.4973 8.76522 33.3045 8.64722 34.1541 8.64722C35.5229 8.64722 36.769 8.85962 37.8924 9.28442C39.0252 9.70923 39.9881 10.3181 40.781 11.1111C41.5834 11.8946 42.2018 12.8481 42.636 13.9714C43.0797 15.0854 43.3015 16.3315 43.3015 17.7097ZM37.0144 18.0779C37.0144 17.672 36.9531 17.2802 36.8304 16.9026C36.7171 16.5155 36.5471 16.1757 36.3206 15.8831C36.094 15.581 35.8108 15.3403 35.471 15.1609C35.1406 14.9721 34.7583 14.8777 34.324 14.8777C33.8803 14.8777 33.4838 14.9579 33.1346 15.1184C32.7853 15.2789 32.4832 15.5007 32.2283 15.7839C31.9829 16.0577 31.7941 16.3834 31.6619 16.761C31.5297 17.1292 31.4637 17.5209 31.4637 17.9363C31.4637 18.3328 31.5203 18.7292 31.6336 19.1257C31.7469 19.5222 31.9168 19.8809 32.1433 20.2019C32.3699 20.5229 32.6484 20.7825 32.9788 20.9807C33.3186 21.179 33.7104 21.2781 34.1541 21.2781C34.5978 21.2781 34.9943 21.1931 35.3435 21.0232C35.7023 20.8438 36.0043 20.6078 36.2498 20.3152C36.4952 20.0131 36.684 19.6685 36.8162 19.2815C36.9484 18.8945 37.0144 18.4932 37.0144 18.0779Z" fill="black" />
	<path fill-rule="evenodd" clip-rule="evenodd" d="M44.9458 20.6816L44.9445 20.687C44.7077 21.634 44.3618 22.5337 43.9048 23.381C43.4566 24.2296 42.905 25.0098 42.2534 25.7186C41.6019 26.428 40.8631 27.0387 40.0417 27.5484C39.2234 28.0621 38.3379 28.4593 37.393 28.7439L37.3824 28.7471L37.3717 28.7501C36.3944 29.0328 35.3756 29.1687 34.324 29.1687C33.3022 29.1687 32.3079 29.0379 31.3483 28.7687L31.3422 28.767C30.4232 28.506 29.5528 28.1404 28.736 27.6687L28.7269 27.6635L28.7178 27.6581C27.9041 27.1768 27.162 26.6018 26.4952 25.935L26.4831 25.9228L26.4711 25.9104C25.8197 25.2361 25.2585 24.4917 24.7898 23.6801L24.7815 23.6657L24.7734 23.6512C24.3176 22.8307 23.9618 21.9585 23.704 21.0394L23.7009 21.0285L23.698 21.0175C23.4428 20.0664 23.3181 19.0846 23.3181 18.0779C23.3181 17.0948 23.4369 16.1284 23.6759 15.1828C23.9116 14.2409 24.2508 13.3453 24.6958 12.5009L24.7007 12.4916L24.7057 12.4823C25.1587 11.6444 25.704 10.8715 26.3403 10.167C26.9829 9.45557 27.7041 8.83755 28.502 8.31721L28.513 8.31004L28.513 8.31007C29.3294 7.78524 30.208 7.37872 31.1429 7.09017C32.11 6.79167 33.1169 6.64722 34.1541 6.64722C35.7302 6.64722 37.2193 6.89205 38.5972 7.41275C39.9711 7.92833 41.1788 8.68292 42.1868 9.68848C43.2027 10.6829 43.9695 11.8779 44.4978 13.2408C45.0456 14.6201 45.3015 16.1191 45.3015 17.7097C45.3015 18.7241 45.1843 19.7162 44.9458 20.6816ZM42.636 13.9714C42.2018 12.8481 41.5834 11.8946 40.781 11.1111C39.9881 10.3181 39.0252 9.70923 37.8924 9.28442C36.769 8.85962 35.5229 8.64722 34.1541 8.64722C33.3045 8.64722 32.4973 8.76522 31.7327 9.00122C30.968 9.23722 30.2553 9.56763 29.5945 9.99243C28.9431 10.4172 28.3531 10.9223 27.8245 11.5076C27.2958 12.0929 26.8427 12.7348 26.4651 13.4333C26.097 14.1319 25.8138 14.8777 25.6155 15.6707C25.4173 16.4542 25.3181 17.2566 25.3181 18.0779C25.3181 18.918 25.422 19.7252 25.6297 20.4993C25.8468 21.2734 26.1442 22.0002 26.5218 22.6799C26.9088 23.3502 27.3714 23.9638 27.9095 24.5208C28.457 25.0683 29.0659 25.5403 29.7361 25.9368C30.4064 26.3238 31.1238 26.6259 31.8885 26.843C32.6625 27.0601 33.4744 27.1687 34.324 27.1687C35.2019 27.1687 36.0327 27.0554 36.8162 26.8289C37.5997 26.5929 38.3219 26.2672 38.9827 25.8518C39.6529 25.4364 40.2524 24.9408 40.781 24.365C41.3191 23.7797 41.7722 23.1378 42.1404 22.4392C42.518 21.7406 42.8059 20.9949 43.0042 20.2019C43.2024 19.3995 43.3015 18.5688 43.3015 17.7097C43.3015 16.3315 43.0797 15.0854 42.636 13.9714ZM34.9192 17.4927L34.9109 17.4644C34.8615 17.2958 34.7994 17.1852 34.7391 17.1074L34.7298 17.0953L34.7206 17.0831C34.6746 17.0218 34.6206 16.9735 34.5375 16.9297L34.5078 16.914L34.4787 16.8974C34.4783 16.8972 34.4773 16.8966 34.4749 16.8956C34.4724 16.8947 34.4668 16.8926 34.457 16.8902C34.4378 16.8854 34.3959 16.8777 34.324 16.8777C34.1243 16.8777 34.0195 16.9128 33.9696 16.9358C33.8662 16.9832 33.7868 17.0423 33.7162 17.1204C33.662 17.1812 33.602 17.2721 33.5496 17.4217L33.547 17.4292L33.5443 17.4367C33.4946 17.575 33.4637 17.7369 33.4637 17.9363C33.4637 18.1396 33.4923 18.3513 33.5566 18.5763C33.6112 18.7675 33.6867 18.9202 33.7773 19.0485C33.8425 19.1409 33.9118 19.2053 33.9922 19.2561C33.9973 19.2585 34.0052 19.2616 34.0181 19.2648C34.0388 19.2701 34.0817 19.2781 34.1541 19.2781C34.3272 19.2781 34.4175 19.2481 34.4611 19.2283C34.5744 19.17 34.6504 19.107 34.7081 19.0408C34.7927 18.9336 34.8661 18.8033 34.9235 18.6352C34.9835 18.4595 35.0144 18.2769 35.0144 18.0779C35.0144 17.8771 34.9847 17.6943 34.9283 17.5208L34.9192 17.4927ZM36.2498 20.3152C36.0043 20.6078 35.7023 20.8438 35.3435 21.0232C34.9943 21.1931 34.5978 21.2781 34.1541 21.2781C33.7104 21.2781 33.3186 21.179 32.9788 20.9807C32.6484 20.7825 32.3699 20.5229 32.1433 20.2019C31.9168 19.8809 31.7469 19.5222 31.6336 19.1257C31.5203 18.7292 31.4637 18.3328 31.4637 17.9363C31.4637 17.5209 31.5297 17.1292 31.6619 16.761C31.7941 16.3834 31.9829 16.0577 32.2283 15.7839C32.4832 15.5007 32.7853 15.2789 33.1346 15.1184C33.4838 14.9579 33.8803 14.8777 34.324 14.8777C34.7583 14.8777 35.1406 14.9721 35.471 15.1609C35.8108 15.3403 36.094 15.581 36.3206 15.8831C36.5471 16.1757 36.7171 16.5155 36.8304 16.9026C36.9531 17.2802 37.0144 17.672 37.0144 18.0779C37.0144 18.4932 36.9484 18.8945 36.8162 19.2815C36.684 19.6685 36.4952 20.0131 36.2498 20.3152Z" fill="black" />
	<path d="M24.95 7.06128L23.6472 27.8484L17.1902 28.1316L17.2469 17.1716L14.3299 26.0076H11.8377L9.60037 18.1062L9.57205 27.282L3.03006 27.4802L3.31326 7.91089L10.5916 7.62769L13.4803 17.0017L17.3318 7.06128H24.95Z" fill="black" />
	<path fill-rule="evenodd" clip-rule="evenodd" d="M27.0792 5.06128L25.5309 29.7677L15.1794 30.2217L15.1908 28.0076H11.5698L11.5661 29.2225L1 29.5427L1.3409 5.98612L12.0501 5.56942L13.6958 10.9098L15.9619 5.06128H27.0792ZM13.4803 17.0017L10.5916 7.62769L3.31326 7.91089L3.03006 27.4802L9.57205 27.282L9.60037 18.1062L11.8377 26.0076H14.3299L17.2469 17.1716L17.1902 28.1316L23.6472 27.8484L24.95 7.06128H17.3318L13.4803 17.0017Z" fill="black" />
	<path d="M19.0471 12.7068H93.0471V36.7068H19.0471V12.7068Z" fill="black" />
	<path d="M95.156 38.1736C95.156 39.4669 94.9295 40.5997 94.4763 41.572C94.0327 42.5349 93.4191 43.3373 92.6355 43.9792C91.8614 44.6212 90.9505 45.1026 89.9026 45.4236C88.8642 45.7445 87.7456 45.905 86.5467 45.905C86.0841 45.905 85.5743 45.8437 85.0174 45.7209C84.4698 45.5982 83.9129 45.4472 83.3465 45.2678C82.7801 45.079 82.2325 44.8808 81.7039 44.6731C81.1847 44.456 80.7221 44.253 80.3162 44.0642L80.9392 38.2302C81.7416 38.7117 82.629 39.0798 83.6013 39.3347C84.5831 39.5802 85.546 39.7029 86.49 39.7029C86.6694 39.7029 86.8865 39.6982 87.1414 39.6887C87.3963 39.6698 87.637 39.6274 87.8636 39.5613C88.0996 39.4858 88.2978 39.3772 88.4583 39.2356C88.6188 39.094 88.699 38.891 88.699 38.6267C88.699 38.4473 88.6424 38.2963 88.5291 38.1736C88.4158 38.0414 88.2695 37.9376 88.0901 37.8621C87.9108 37.7771 87.7078 37.7157 87.4812 37.678C87.2547 37.6308 87.0328 37.5977 86.8157 37.5789C86.5986 37.56 86.3956 37.5505 86.2068 37.5505C86.018 37.5505 85.867 37.5505 85.7537 37.5505C84.9418 37.5505 84.2008 37.4089 83.5305 37.1257C82.8697 36.8425 82.2986 36.4508 81.8172 35.9504C81.3452 35.4407 80.977 34.8412 80.7127 34.1521C80.4484 33.4535 80.3162 32.6983 80.3162 31.8865C80.3162 30.7725 80.538 29.7766 80.9817 28.8987C81.4348 28.0113 82.0343 27.2608 82.7801 26.6472C83.5353 26.0242 84.399 25.5474 85.3714 25.217C86.3437 24.8866 87.3491 24.7214 88.3875 24.7214C88.85 24.7214 89.3268 24.7403 89.8177 24.7781C90.3085 24.8064 90.7947 24.863 91.2762 24.948C91.767 25.033 92.2438 25.1415 92.7063 25.2737C93.1689 25.4058 93.6079 25.571 94.0232 25.7693L93.4851 31.5183C92.8432 31.3012 92.1682 31.1218 91.4602 30.9802C90.7617 30.8292 90.0773 30.7537 89.407 30.7537C89.2843 30.7537 89.1238 30.7584 88.9256 30.7678C88.7368 30.7678 88.5338 30.782 88.3167 30.8103C88.109 30.8292 87.8966 30.8622 87.6795 30.9094C87.4624 30.9566 87.2688 31.0227 87.0989 31.1077C86.929 31.1832 86.7921 31.287 86.6883 31.4192C86.5844 31.5514 86.5372 31.7071 86.5467 31.8865C86.5561 32.0942 86.6316 32.2641 86.7732 32.3962C86.9243 32.519 87.1131 32.6181 87.3396 32.6936C87.5756 32.7597 87.8305 32.8069 88.1043 32.8352C88.3875 32.8635 88.666 32.8824 88.9397 32.8918C89.2135 32.8918 89.4684 32.8918 89.7044 32.8918C89.9404 32.8824 90.1339 32.8871 90.2849 32.906C91.0402 32.9532 91.7198 33.1137 92.324 33.3875C92.9282 33.6612 93.4379 34.0247 93.8533 34.4778C94.2781 34.9309 94.5991 35.4737 94.8162 36.1062C95.0428 36.7292 95.156 37.4184 95.156 38.1736Z" fill="white" />
	<path d="M80.1604 25.2878C80.1038 26.1752 80.0519 27.0531 80.0047 27.9216C79.9575 28.7901 79.8961 29.6681 79.8206 30.5554L73.8167 30.8669L73.6751 32.6511H77.8948L77.5833 37.0408L73.3352 37.1824L73.1936 39.2498H76.7054H79.1975C79.1409 40.2882 79.0795 41.3219 79.0135 42.3508C78.9568 43.3704 78.9049 44.3946 78.8577 45.4236L66.6516 45.7068L67.1048 25.2878H80.1604Z" fill="white" />
	<path d="M65.7029 25.0613L64.4002 45.8484L57.9431 46.1316L57.9998 35.1716L55.0828 44.0076H52.5906L50.3533 36.1062L50.325 45.282L43.783 45.4802L44.0662 25.9109L51.3445 25.6277L54.2332 35.0017L58.0847 25.0613H65.7029Z" fill="white" />
	<path d="M43.5139 44.489L36.4905 45.3953L35.6409 42.1951H32.4124L31.7044 45.3953L24.4827 44.6873L30.1184 25.8259L37.9915 25.4294L43.5139 44.489ZM35.1311 37.8621L34.055 32.9343L33.0071 37.8621H35.1311Z" fill="white" />
	<path d="M24.5677 42.8181C24.124 43.3751 23.5764 43.8612 22.9251 44.2766C22.2737 44.692 21.5751 45.0365 20.8294 45.3103C20.0836 45.5841 19.319 45.787 18.5354 45.9192C17.7519 46.0608 17.0061 46.1316 16.2981 46.1316C14.9293 46.1316 13.6691 45.8861 12.5174 45.3953C11.3657 44.9044 10.3697 44.2294 9.52957 43.3704C8.69884 42.5019 8.04748 41.4823 7.57547 40.3118C7.10346 39.1412 6.86746 37.8809 6.86746 36.531C6.86746 35.502 6.98546 34.4967 7.22147 33.5149C7.45747 32.5237 7.79259 31.5938 8.22684 30.7253C8.67052 29.8474 9.20861 29.045 9.84109 28.3181C10.4736 27.5818 11.191 26.9493 11.9934 26.4207C12.7958 25.892 13.6738 25.4814 14.6272 25.1887C15.5807 24.8961 16.6002 24.7498 17.6858 24.7498C18.0917 24.7498 18.526 24.7686 18.9886 24.8064C19.4511 24.8347 19.909 24.8914 20.3621 24.9763C20.8247 25.0518 21.2731 25.1604 21.7073 25.302C22.1416 25.4436 22.538 25.6182 22.8968 25.8259L22.5003 31.2351C21.9716 31.0369 21.4241 30.9047 20.8577 30.8386C20.3007 30.7631 19.7532 30.7253 19.2151 30.7253C18.4599 30.7253 17.7519 30.8433 17.0911 31.0793C16.4397 31.3059 15.8686 31.6363 15.3777 32.0706C14.8963 32.5048 14.5139 33.0334 14.2307 33.6565C13.9475 34.2795 13.8059 34.9828 13.8059 35.7664C13.8059 36.2572 13.872 36.734 14.0042 37.1965C14.1363 37.6497 14.3346 38.0556 14.5989 38.4143C14.8727 38.7636 15.2078 39.0468 15.6043 39.2639C16.0102 39.481 16.4775 39.5896 17.0061 39.5896C17.3649 39.5896 17.733 39.5424 18.1106 39.448C18.4977 39.3536 18.8281 39.1931 19.1018 38.9666L19.1585 37.8621L15.76 37.8054L15.93 33.5574C17.3365 33.5102 18.7431 33.4724 20.1497 33.4441C21.5563 33.4063 22.9723 33.3591 24.3977 33.3025L24.5677 42.8181Z" fill="white" />
	<path d="M99.5315 19.7898C99.5315 20.2052 99.4513 20.5922 99.2908 20.9509C99.1303 21.3097 98.9132 21.6259 98.6394 21.8997C98.3751 22.164 98.0636 22.3764 97.7049 22.5369C97.3461 22.6879 96.9638 22.7634 96.5579 22.7634C96.1425 22.7634 95.7555 22.6879 95.3968 22.5369C95.038 22.3764 94.7218 22.164 94.448 21.8997C94.1837 21.6259 93.9713 21.3097 93.8108 20.9509C93.6598 20.5922 93.5843 20.2052 93.5843 19.7898C93.5843 19.3839 93.6598 18.9968 93.8108 18.6287C93.9713 18.2605 94.1837 17.9443 94.448 17.6799C94.7218 17.4062 95.038 17.189 95.3968 17.0286C95.7555 16.8681 96.1425 16.7878 96.5579 16.7878C96.9638 16.7878 97.3461 16.8681 97.7049 17.0286C98.0636 17.189 98.3751 17.4062 98.6394 17.6799C98.9132 17.9443 99.1303 18.2605 99.2908 18.6287C99.4513 18.9968 99.5315 19.3839 99.5315 19.7898Z" fill="white" />
	<path d="M96.8128 3.53394L89.0247 14.4089L88.6565 23.2732H81.9446L82.1145 14.4656L78.0647 3.95874L85.2864 3.05249L86.4192 9.16968L90.0159 3.05249L96.8128 3.53394Z" fill="white" />
	<path d="M78.1214 2.28784C78.0647 3.17521 78.0128 4.05314 77.9656 4.92163C77.9184 5.79012 77.857 6.66805 77.7815 7.55542L71.7776 7.86694L71.636 9.65112H75.8557L75.5442 14.0408L71.2962 14.1824L71.1546 16.2498H74.6663H77.1585C77.1018 17.2882 77.0405 18.3219 76.9744 19.3508C76.9178 20.3704 76.8658 21.3946 76.8186 22.4236L64.6126 22.7068L65.0657 2.28784H78.1214Z" fill="white" />
	<path d="M63.5506 2.40112L62.531 21.6023L55.1111 22.282L51.1463 12.0017L50.5232 22.4802H44.1512L44.6609 2.40112L51.741 2.06128L56.6404 12.2566L56.867 2.62769L63.5506 2.40112Z" fill="white" />
	<path d="M43.3015 12.7097C43.3015 13.5688 43.2024 14.3995 43.0042 15.2019C42.8059 15.9949 42.518 16.7406 42.1404 17.4392C41.7722 18.1378 41.3191 18.7797 40.781 19.365C40.2524 19.9408 39.6529 20.4364 38.9827 20.8518C38.3219 21.2672 37.5997 21.5929 36.8162 21.8289C36.0327 22.0554 35.2019 22.1687 34.324 22.1687C33.4744 22.1687 32.6625 22.0601 31.8885 21.843C31.1238 21.6259 30.4064 21.3238 29.7361 20.9368C29.0659 20.5403 28.457 20.0683 27.9095 19.5208C27.3714 18.9638 26.9088 18.3502 26.5218 17.6799C26.1442 17.0002 25.8468 16.2734 25.6297 15.4993C25.422 14.7252 25.3181 13.918 25.3181 13.0779C25.3181 12.2566 25.4173 11.4542 25.6155 10.6707C25.8138 9.87769 26.097 9.13192 26.4651 8.43335C26.8427 7.73478 27.2958 7.09285 27.8245 6.50757C28.3531 5.92228 28.9431 5.41724 29.5945 4.99243C30.2553 4.56763 30.968 4.23722 31.7327 4.00122C32.4973 3.76522 33.3045 3.64722 34.1541 3.64722C35.5229 3.64722 36.769 3.85962 37.8924 4.28442C39.0252 4.70923 39.9881 5.31812 40.781 6.11108C41.5834 6.89461 42.2018 7.84806 42.636 8.97144C43.0797 10.0854 43.3015 11.3315 43.3015 12.7097ZM37.0144 13.0779C37.0144 12.672 36.9531 12.2802 36.8304 11.9026C36.7171 11.5155 36.5471 11.1757 36.3206 10.8831C36.094 10.581 35.8108 10.3403 35.471 10.1609C35.1406 9.97209 34.7583 9.87769 34.324 9.87769C33.8803 9.87769 33.4838 9.95793 33.1346 10.1184C32.7853 10.2789 32.4832 10.5007 32.2283 10.7839C31.9829 11.0577 31.7941 11.3834 31.6619 11.761C31.5297 12.1292 31.4637 12.5209 31.4637 12.9363C31.4637 13.3328 31.5203 13.7292 31.6336 14.1257C31.7469 14.5222 31.9168 14.8809 32.1433 15.2019C32.3699 15.5229 32.6484 15.7825 32.9788 15.9807C33.3186 16.179 33.7104 16.2781 34.1541 16.2781C34.5978 16.2781 34.9943 16.1931 35.3435 16.0232C35.7023 15.8438 36.0043 15.6078 36.2498 15.3152C36.4952 15.0131 36.684 14.6685 36.8162 14.2815C36.9484 13.8945 37.0144 13.4932 37.0144 13.0779Z" fill="white" />
	<path d="M24.95 2.06128L23.6472 22.8484L17.1902 23.1316L17.2469 12.1716L14.3299 21.0076H11.8377L9.60037 13.1062L9.57205 22.282L3.03006 22.4802L3.31326 2.91089L10.5916 2.62769L13.4803 12.0017L17.3318 2.06128H24.95Z" fill="white" />
	<path fill-rule="evenodd" clip-rule="evenodd" d="M65.7029 25.0613H65.1093L65.1486 23.2878H82.2921L82.1564 25.4152C82.1148 26.0669 82.0757 26.7133 82.0393 27.3545C81.8542 27.5596 81.6813 27.7761 81.5206 28.004C81.3224 28.2849 81.1428 28.5832 80.9817 28.8987C80.7155 29.4255 80.5291 29.9948 80.4226 30.6067C80.3517 31.0144 80.3162 31.441 80.3162 31.8865C80.3162 32.1054 80.3258 32.3202 80.345 32.5309L79.9067 32.5536L79.5735 37.2498H81.3096L81.2465 38.4068C81.1427 38.3497 81.0403 38.2909 80.9392 38.2302L80.3162 44.0642C80.5028 44.151 80.7014 44.2408 80.912 44.3336C80.8925 44.7268 80.8737 45.1206 80.8556 45.5152L80.77 47.3798L64.6057 47.7548L64.7839 39.7259L65.7029 25.0613ZM79.0134 42.3508C79.037 41.9844 79.0599 41.6174 79.0822 41.2498C79.1226 40.585 79.1611 39.9184 79.1975 39.2498H73.1936L73.3352 37.1824L77.5833 37.0408L77.8948 32.6511H73.6751L73.8167 30.8669L79.8206 30.5554C79.8961 29.6681 79.9574 28.7901 80.0047 27.9216C80.0161 27.7109 80.0278 27.4997 80.0398 27.2878C80.0773 26.6266 80.1175 25.9599 80.1604 25.2878H67.1047L66.6516 45.7068L78.8577 45.4236C78.9049 44.3946 78.9568 43.3704 79.0134 42.3508Z" fill="black" />
	<path fill-rule="evenodd" clip-rule="evenodd" d="M41.7939 44.711L43.5139 44.489L41.8788 38.8456L42.0938 23.9861L52.803 23.5694L54.4487 28.9098L56.7148 23.0613H67.8322L67.6926 25.2878H67.1048L66.7825 39.8108L66.2838 47.7677L55.9323 48.2217L55.9438 46.0076H52.3228L52.319 47.2225L41.7529 47.5427L41.7939 44.711ZM50.3533 36.1062L52.5906 44.0076H55.0828L57.9998 35.1716L57.9431 46.1316L64.4002 45.8484L65.7029 25.0613H58.0847L54.2332 35.0017L51.3445 25.6277L44.0662 25.9109L43.783 45.4802L50.325 45.282L50.3533 36.1062Z" fill="black" />
	<path fill-rule="evenodd" clip-rule="evenodd" d="M22.9832 44.2391C23.6091 43.8321 24.1372 43.3584 24.5677 42.8181L24.4767 37.7216L28.6067 23.8995L39.4719 23.3523L43.8829 38.5759L43.783 45.4802L45.8651 45.4171L46.0844 46.1739L35.0074 47.6032L34.1026 44.195H34.0183L33.2741 47.5587L21.8714 46.4408L22.4292 44.574C22.5974 44.4792 22.7627 44.3801 22.9251 44.2766C22.9445 44.2641 22.9639 44.2517 22.9832 44.2391ZM35.6409 42.195L36.4905 45.3952L43.514 44.489L37.9915 25.4294L30.1184 25.8259L24.4827 44.6872L31.7044 45.3952L32.4124 42.195H35.6409ZM35.1311 37.862H33.0071L34.055 32.9343L35.1311 37.862Z" fill="black" />
	<path fill-rule="evenodd" clip-rule="evenodd" d="M17.1921 22.7585C16.1016 22.7976 15.0487 22.9673 14.0404 23.2768C12.9121 23.6231 11.8603 24.1134 10.8931 24.7505C9.93557 25.3814 9.07957 26.1362 8.32813 27.0101C7.58647 27.8633 6.95769 28.8025 6.44184 29.8233L6.43798 29.8309C5.93211 30.8427 5.54609 31.9173 5.27632 33.0497C5.00318 34.1867 4.86746 35.3484 4.86746 36.531C4.86746 38.1193 5.14622 39.6353 5.72059 41.0597C6.28275 42.4539 7.06924 43.6916 8.08429 44.7528L8.09197 44.7608L8.09973 44.7688C9.13166 45.8239 10.3496 46.6454 11.7332 47.2351C13.1551 47.8412 14.6851 48.1316 16.2981 48.1316C17.1354 48.1316 17.997 48.0483 18.8796 47.8894C19.7806 47.7367 20.6608 47.5027 21.5186 47.1878C22.3957 46.8658 23.2242 46.4579 24.0004 45.9629C24.5422 45.6175 25.0386 45.2255 25.4837 44.7854L24.4827 44.6873L26.4819 37.9965L26.3609 31.2229L24.5011 31.2968L24.983 24.7228L23.8988 24.0951C23.4075 23.8107 22.8812 23.5812 22.3273 23.4006C21.8008 23.2288 21.2605 23.0977 20.7077 23.0063C20.6647 22.9983 20.6216 22.9905 20.5786 22.983L17.1902 23.1316L17.1921 22.7585ZM18.9886 24.8064C18.526 24.7687 18.0917 24.7498 17.6858 24.7498C16.6002 24.7498 15.5807 24.8961 14.6272 25.1887C13.6738 25.4814 12.7958 25.892 11.9934 26.4207C11.191 26.9493 10.4736 27.5818 9.84109 28.3181C9.20861 29.045 8.67052 29.8474 8.22684 30.7254C7.79259 31.5938 7.45747 32.5237 7.22147 33.5149C6.98546 34.4967 6.86746 35.502 6.86746 36.531C6.86746 37.881 7.10346 39.1412 7.57547 40.3118C8.04748 41.4824 8.69884 42.5019 9.52957 43.3704C10.3697 44.2294 11.3657 44.9044 12.5174 45.3953C13.6691 45.8862 14.9293 46.1316 16.2981 46.1316C17.0061 46.1316 17.7519 46.0608 18.5354 45.9192C19.319 45.787 20.0836 45.5841 20.8294 45.3103C21.5751 45.0366 22.2737 44.692 22.9251 44.2766C23.5764 43.8613 24.124 43.3751 24.5677 42.8181L24.3977 33.3025C24.3831 33.3031 24.3686 33.3037 24.354 33.3042C23.7354 33.3287 23.1187 33.3515 22.5037 33.3724C22.4687 33.3736 22.4337 33.3748 22.3987 33.376C21.6464 33.4013 20.8967 33.4241 20.1497 33.4441C19.0152 33.4669 17.8806 33.4959 16.7461 33.5311C16.7295 33.5316 16.713 33.5321 16.6964 33.5326C16.6882 33.5329 16.68 33.5331 16.6717 33.5334C16.4245 33.5411 16.1772 33.5491 15.93 33.5574L15.76 37.8054L19.1585 37.8621L19.1018 38.9666C18.8281 39.1931 18.4977 39.3536 18.1106 39.448C17.733 39.5424 17.3649 39.5896 17.0061 39.5896C16.5332 39.5896 16.1094 39.5027 15.7346 39.329C15.6905 39.3085 15.6471 39.2868 15.6043 39.2639C15.2078 39.0468 14.8727 38.7636 14.5989 38.4143C14.4458 38.2065 14.3148 37.9828 14.206 37.7433C14.1271 37.5694 14.0598 37.3871 14.0042 37.1965C13.9107 36.8693 13.8503 36.535 13.8229 36.1936C13.8116 36.0524 13.8059 35.91 13.8059 35.7664C13.8059 35.4464 13.8296 35.1397 13.8768 34.8465C13.9452 34.4218 14.0632 34.0251 14.2307 33.6565C14.2559 33.6011 14.2819 33.5464 14.3086 33.4925C14.5827 32.9402 14.9391 32.4662 15.3777 32.0706C15.5329 31.9333 15.6961 31.8064 15.8673 31.6899C15.9378 31.6419 16.0097 31.5957 16.0829 31.5512C16.3944 31.3621 16.7304 31.2048 17.0911 31.0794C17.7519 30.8434 18.4599 30.7254 19.2151 30.7254C19.6463 30.7254 20.0836 30.7496 20.5269 30.7981C20.6368 30.8101 20.7471 30.8236 20.8577 30.8386C21.4241 30.9047 21.9716 31.0369 22.5003 31.2351L22.8968 25.8259C22.538 25.6183 22.1416 25.4436 21.7073 25.302C21.2731 25.1604 20.8247 25.0519 20.3621 24.9763C19.909 24.8914 19.4511 24.8347 18.9886 24.8064Z" fill="black" />
	<path fill-rule="evenodd" clip-rule="evenodd" d="M99.2908 20.9509C99.4513 20.5922 99.5315 20.2052 99.5315 19.7898C99.5315 19.3839 99.4513 18.9968 99.2908 18.6287C99.1303 18.2605 98.9132 17.9443 98.6394 17.6799C98.3751 17.4062 98.0636 17.189 97.7049 17.0286C97.3461 16.8681 96.9638 16.7878 96.5579 16.7878C96.1425 16.7878 95.7555 16.8681 95.3968 17.0286C95.038 17.189 94.7218 17.4062 94.448 17.6799C94.1837 17.9443 93.9713 18.2605 93.8108 18.6287C93.6598 18.9968 93.5843 19.3839 93.5843 19.7898C93.5843 20.2052 93.6598 20.5922 93.8108 20.9509C93.9713 21.3097 94.1837 21.6259 94.448 21.8997C94.7218 22.164 95.038 22.3764 95.3968 22.5369C95.7555 22.6879 96.1425 22.7634 96.5579 22.7634C96.9638 22.7634 97.3461 22.6879 97.7049 22.5369C98.0636 22.3764 98.3751 22.164 98.6394 21.8997C98.9132 21.6259 99.1303 21.3097 99.2908 20.9509ZM100.054 16.2657C99.6115 15.814 99.0953 15.4596 98.5216 15.2029C97.8974 14.9237 97.2358 14.7878 96.5579 14.7878C95.8774 14.7878 95.2102 14.921 94.58 15.2029C94.0022 15.4615 93.4826 15.8169 93.0338 16.2657C92.5797 16.7198 92.2304 17.2491 91.9774 17.8295L91.9687 17.8494L91.9605 17.8695C91.7086 18.4835 91.5843 19.1289 91.5843 19.7898C91.5843 20.4536 91.7063 21.1065 91.9676 21.727L91.9761 21.7474L91.9852 21.7677C92.2373 22.3312 92.5785 22.8427 93.0092 23.2888L93.0336 23.3141L93.0588 23.3385C93.505 23.7692 94.0165 24.1104 94.58 24.3625L94.6002 24.3715L94.6206 24.3801C95.2412 24.6414 95.8941 24.7634 96.5579 24.7634C97.2187 24.7634 97.8661 24.639 98.481 24.3801L98.5014 24.3715L98.5216 24.3625C99.0913 24.1076 99.6082 23.7593 100.054 23.3139C100.502 22.8651 100.858 22.3455 101.116 21.7677C101.398 21.1375 101.532 20.4703 101.532 19.7898C101.532 19.1119 101.396 18.4525 101.124 17.8295C100.87 17.2452 100.514 16.7167 100.054 16.2657Z" fill="black" />
	<path fill-rule="evenodd" clip-rule="evenodd" d="M100.521 1.79156L90.9982 15.0882L90.5929 24.8468C90.3358 24.816 90.0774 24.7931 89.8177 24.7781C89.4214 24.7476 89.0343 24.7294 88.6565 24.7235C88.5663 24.7221 88.4766 24.7214 88.3875 24.7214C87.3491 24.7214 86.3437 24.8866 85.3714 25.217C85.3176 25.2353 85.2642 25.254 85.2111 25.2732H79.9057L80.1073 14.819L77.3169 7.57952L77.7815 7.55542C77.857 6.66805 77.9184 5.79012 77.9656 4.92163C77.9827 4.60782 78.0003 4.29278 78.0186 3.97651C78.0237 3.88894 78.0288 3.80127 78.034 3.7135C78.0617 3.24102 78.0909 2.7658 78.1214 2.28784H75.3172L86.9094 0.83313L87.4103 3.53804L88.9203 0.969873L100.521 1.79156ZM90.0159 3.05249L96.8128 3.53393L89.0247 14.4089L88.6565 23.2732H81.9446L82.1145 14.4656L78.0647 3.95874L85.2864 3.05249L86.4192 9.16968L90.0159 3.05249Z" fill="black" />
	<path fill-rule="evenodd" clip-rule="evenodd" d="M80.2531 0.287842L80.1173 2.41524C80.0896 2.84955 80.063 3.28152 80.0375 3.71117L78.0647 3.95874L79.7277 8.2731L79.6264 9.46238L77.8677 9.55364L77.5344 14.2498H79.2705L79.1555 16.3587C79.0987 17.4006 79.0371 18.4379 78.9708 19.4706C78.9147 20.4807 78.8633 21.4956 78.8165 22.5152L78.731 24.3798L62.5666 24.7548L62.7124 18.1868L63.5505 2.40112L63.0623 2.41767L63.1096 0.287842H80.2531ZM76.9744 19.3508C76.9979 18.9844 77.0208 18.6174 77.0432 18.2498C77.0836 17.585 77.122 16.9184 77.1585 16.2498H71.1546L71.2962 14.1824L75.5442 14.0408L75.8557 9.65112H71.636L71.7776 7.86694L77.7815 7.55542C77.857 6.66805 77.9184 5.79012 77.9656 4.92163C77.977 4.71092 77.9888 4.49966 78.0008 4.28784C78.0383 3.62659 78.0784 2.95992 78.1213 2.28784H65.0657L64.6126 22.7068L76.8186 22.4236C76.8658 21.3946 76.9177 20.3704 76.9744 19.3508Z" fill="black" />
	<path fill-rule="evenodd" clip-rule="evenodd" d="M64.7112 18.2619L65.0657 2.28783H65.5594L65.6634 0.328338L54.9119 0.692795L54.8368 3.88596L52.9694 0L42.7087 0.492512L42.5018 8.64317C42.5483 8.75093 42.5931 8.86034 42.636 8.97142C43.0797 10.0854 43.3015 11.3314 43.3015 12.7097C43.3015 13.5688 43.2024 14.3995 43.0042 15.2019C42.8322 15.8899 42.5926 16.5424 42.2856 17.1594L42.0997 24.4802H52.4078L52.5958 21.3183L53.7888 24.4115L64.4365 23.4361L64.7112 18.2619ZM51.1463 12.0017L55.1111 22.282L62.531 21.6023L63.5506 2.40111L56.867 2.62767L56.6404 12.2566L51.741 2.06127L44.6609 2.40111L44.1511 22.4802H50.5232L51.1463 12.0017Z" fill="black" />
	<path fill-rule="evenodd" clip-rule="evenodd" d="M44.2743 17.6311L44.5118 8.27614C44.5071 8.26436 44.5025 8.25258 44.4978 8.24082C43.9696 6.8779 43.2027 5.68296 42.187 4.68858C41.1788 3.68294 39.9711 2.9283 38.5971 2.4127C37.2192 1.89204 35.7302 1.64722 34.1541 1.64722C33.1169 1.64722 32.11 1.79167 31.1429 2.09017C30.208 2.37872 29.3294 2.78524 28.513 3.31007L28.502 3.31721C27.7041 3.83755 26.9829 4.45557 26.3403 5.167C25.704 5.8715 25.1587 6.64436 24.7057 7.48232L24.7007 7.49157L24.6958 7.50087C24.6623 7.56445 24.6294 7.62833 24.5971 7.69249L24.014 16.9958C24.2257 17.5684 24.4786 18.1206 24.7735 18.6512L24.7815 18.6657L24.7898 18.6801C25.2585 19.4917 25.8197 20.2361 26.4711 20.9104L26.4831 20.9228L26.4952 20.935C27.162 21.6018 27.9041 22.1768 28.7178 22.6581L28.7269 22.6635L28.736 22.6687C29.5528 23.1404 30.4232 23.506 31.3422 23.767L31.3483 23.7687C32.3079 24.0379 33.3022 24.1687 34.324 24.1687C35.3756 24.1687 36.3944 24.0328 37.3718 23.7501L37.3824 23.7471L37.393 23.7439C38.3379 23.4593 39.2234 23.0621 40.0418 22.5484C40.8632 22.0387 41.6019 21.428 42.2534 20.7186C42.905 20.0098 43.4565 19.2297 43.9048 18.3811C44.0373 18.1355 44.1604 17.8854 44.2743 17.6311ZM42.1404 17.4392C42.518 16.7406 42.8059 15.9949 43.0042 15.2019C43.2024 14.3995 43.3016 13.5688 43.3016 12.7097C43.3016 11.3315 43.0797 10.0854 42.636 8.97144C42.2018 7.84806 41.5835 6.89461 40.781 6.11108C39.9881 5.31812 39.0252 4.70923 37.8924 4.28442C36.769 3.85962 35.5229 3.64722 34.1541 3.64722C33.3045 3.64722 32.4974 3.76522 31.7327 4.00122C30.9681 4.23722 30.2553 4.56763 29.5945 4.99243C28.9432 5.41724 28.3531 5.92228 27.8245 6.50757C27.2959 7.09285 26.8427 7.73478 26.4651 8.43335C26.097 9.13192 25.8138 9.87769 25.6155 10.6707C25.4173 11.4542 25.3182 12.2566 25.3182 13.0779C25.3182 13.918 25.422 14.7252 25.6297 15.4993C25.8468 16.2734 26.1442 17.0002 26.5218 17.6799C26.9088 18.3502 27.3714 18.9638 27.9095 19.5208C28.457 20.0683 29.0659 20.5403 29.7361 20.9368C30.4064 21.3238 31.1238 21.6259 31.8885 21.843C32.6626 22.0601 33.4744 22.1687 34.324 22.1687C35.2019 22.1687 36.0327 22.0554 36.8162 21.8289C37.5997 21.5929 38.3219 21.2672 38.9827 20.8518C39.653 20.4364 40.2524 19.9408 40.781 19.365C41.3191 18.7797 41.7723 18.1378 42.1404 17.4392ZM34.9192 12.4927L34.9109 12.4644C34.8615 12.2958 34.7994 12.1852 34.7391 12.1074L34.7298 12.0953L34.7206 12.0831C34.6746 12.0218 34.6206 11.9735 34.5375 11.9297L34.5078 11.914L34.4787 11.8974C34.4783 11.8972 34.4773 11.8966 34.4749 11.8956C34.4724 11.8947 34.4668 11.8926 34.457 11.8902C34.4378 11.8854 34.3959 11.8777 34.324 11.8777C34.1243 11.8777 34.0195 11.9128 33.9696 11.9358C33.8663 11.9832 33.787 12.0422 33.7164 12.1202C33.6622 12.181 33.6021 12.2719 33.5496 12.4217L33.547 12.4292L33.5443 12.4367C33.4947 12.575 33.4637 12.7369 33.4637 12.9363C33.4637 13.1396 33.4923 13.3513 33.5566 13.5763C33.6113 13.7675 33.6867 13.9202 33.7773 14.0485C33.8425 14.1409 33.9118 14.2053 33.9922 14.2561C33.9973 14.2585 34.0052 14.2616 34.0181 14.2648C34.0388 14.2701 34.0817 14.2781 34.1541 14.2781C34.3272 14.2781 34.4175 14.2481 34.4611 14.2283C34.5744 14.1699 34.6504 14.107 34.7081 14.0408C34.7928 13.9336 34.8661 13.8033 34.9235 13.6352C34.9835 13.4595 35.0144 13.2769 35.0144 13.0779C35.0144 12.8771 34.9847 12.6943 34.9283 12.5208L34.9192 12.4927ZM36.2498 15.3152C36.0044 15.6078 35.7023 15.8438 35.3435 16.0232C34.9943 16.1931 34.5978 16.2781 34.1541 16.2781C33.7104 16.2781 33.3186 16.179 32.9788 15.9807C32.6484 15.7825 32.3699 15.5229 32.1433 15.2019C31.9168 14.8809 31.7469 14.5222 31.6336 14.1257C31.5203 13.7292 31.4637 13.3328 31.4637 12.9363C31.4637 12.5209 31.5297 12.1292 31.6619 11.761C31.7941 11.3834 31.9829 11.0577 32.2283 10.7839C32.4832 10.5007 32.7853 10.2789 33.1346 10.1184C33.4838 9.95793 33.8803 9.87769 34.324 9.87769C34.7583 9.87769 35.1406 9.97209 35.471 10.1609C35.8108 10.3403 36.094 10.581 36.3206 10.8831C36.5472 11.1757 36.7171 11.5155 36.8304 11.9026C36.9531 12.2802 37.0144 12.672 37.0144 13.0779C37.0144 13.4932 36.9484 13.8945 36.8162 14.2815C36.684 14.6685 36.4952 15.0131 36.2498 15.3152Z" fill="black" />
	<path fill-rule="evenodd" clip-rule="evenodd" d="M27.0792 0.0612793L26.566 8.25127C26.5318 8.31153 26.4982 8.37222 26.4651 8.43335C26.097 9.13192 25.8137 9.87769 25.6155 10.6707C25.4173 11.4542 25.3181 12.2566 25.3181 13.0779C25.3181 13.918 25.422 14.7252 25.6297 15.4993C25.7436 15.9055 25.8797 16.2988 26.0378 16.679L25.5309 24.7677L20.4474 24.9907C20.419 24.9858 20.3906 24.981 20.3621 24.9763C19.909 24.8914 19.4511 24.8347 18.9886 24.8064C18.526 24.7686 18.0917 24.7498 17.6858 24.7498C17.5432 24.7498 17.4018 24.7523 17.2615 24.7573C16.5374 24.7834 15.8437 24.8767 15.1803 25.0372L15.1908 23.0076H11.5698L11.5661 24.2225L1 24.5427L1.34091 0.986121L12.0501 0.56942L13.6958 5.90976L15.9619 0.0612793H27.0792ZM13.4803 12.0017L10.5916 2.62769L3.31326 2.91089L3.03006 22.4802L9.57205 22.282L9.60037 13.1062L11.8377 21.0076H14.3299L17.2469 12.1716L17.1902 23.1316L23.6472 22.8484L24.95 2.06128H17.3318L13.4803 12.0017Z" fill="black" />
	<path d="M101.539 24.943V19.9855L100.249 22.6456L101.539 24.943Z" fill="black" />
	<path d="M4.8479 41.2904L4.88876 35.6726L6.33917 40.0443L4.8479 41.2904Z" fill="black" />
</svg>
