<svg width="230" height="233" viewBox="0 0 230 233" fill="none" xmlns="http://www.w3.org/2000/svg">
	<g clip-path="url(#clip0_74_41)">
		<g filter="url(#filter0_d_74_41)">
			<path d="M201.167 15.3606H28.1669C21.5395 15.3606 16.1669 20.7332 16.1669 27.3606V200.361C16.1669 206.988 21.5395 212.361 28.1669 212.361H201.167C207.794 212.361 213.167 206.988 213.167 200.361V27.3606C213.167 20.7332 207.794 15.3606 201.167 15.3606Z" fill="#B8FA2C" />
			<path d="M201.167 14.1606H28.1669C20.8768 14.1606 14.9669 20.0705 14.9669 27.3606V200.361C14.9669 207.651 20.8768 213.561 28.1669 213.561H201.167C208.457 213.561 214.367 207.651 214.367 200.361V27.3606C214.367 20.0705 208.457 14.1606 201.167 14.1606Z" stroke="black" stroke-width="2.4" />
		</g>
		<mask id="mask0_74_41" style="mask-type:alpha" maskUnits="userSpaceOnUse" x="16" y="15" width="198" height="198">
			<path d="M201.167 15.3608H28.1669C21.5395 15.3608 16.1669 20.7334 16.1669 27.3608V200.361C16.1669 206.988 21.5395 212.361 28.1669 212.361H201.167C207.794 212.361 213.167 206.988 213.167 200.361V27.3608C213.167 20.7334 207.794 15.3608 201.167 15.3608Z" fill="#B8FA2C" />
		</mask>
		<g mask="url(#mask0_74_41)">
			<path d="M157.751 34.6688C157.751 59.3285 137.761 79.3191 113.102 79.319C88.4417 79.3191 68.4511 59.3285 68.4512 34.6688C68.4511 10.0091 88.4417 -9.98142 113.101 -9.9815C137.761 -9.98149 157.751 10.0092 157.751 34.6688Z" fill="url(#paint0_radial_74_41)" />
			<path d="M141.333 17.4495C141.332 28.8393 128.783 38.0726 113.301 38.0726C97.8198 38.0726 85.2697 28.8393 85.2696 17.4494C85.2696 6.05955 97.8199 -3.17383 113.301 -3.17374C128.783 -3.17378 141.333 6.05955 141.333 17.4495Z" fill="url(#paint1_linear_74_41)" />
			<g filter="url(#filter1_f_74_41)">
				<path d="M153.347 68.3067C153.346 82.1294 135.687 93.335 113.902 93.3349C92.1174 93.3349 74.4577 82.1295 74.4576 68.3068C74.4576 54.4841 92.1175 43.2786 113.902 43.2786C135.687 43.2785 153.347 54.4841 153.347 68.3067Z" fill="url(#paint2_linear_74_41)" fill-opacity="0.3" />
			</g>
			<path d="M94.8808 81.321C94.8809 109.409 72.1112 132.178 44.0235 132.178C15.9359 132.179 -6.83361 109.409 -6.83368 81.3209C-6.83364 53.2333 15.9359 30.4637 44.0236 30.4637C72.1113 30.4638 94.8808 53.2333 94.8808 81.321Z" fill="url(#paint3_radial_74_41)" />
			<path d="M44.0236 78.9174C44.0236 91.6342 33.7145 101.943 20.9976 101.943C8.28079 101.943 -2.02826 91.6343 -2.02827 78.9173C-2.02827 66.2005 8.28079 55.8915 20.9977 55.8914C33.7145 55.8915 44.0235 66.2005 44.0236 78.9174Z" fill="url(#paint4_linear_74_41)" fill-opacity="0.1" />
			<path d="M44.0233 77.9171C44.0233 90.634 33.7142 100.943 20.9974 100.943C8.28054 100.943 -2.02851 90.634 -2.02852 77.9171C-2.02851 65.2002 8.28054 54.8912 20.9974 54.8912C33.7143 54.8912 44.0233 65.2003 44.0233 77.9171Z" fill="white" />
			<path d="M68.8513 58.6952C68.8513 70.085 56.3012 79.3183 40.8198 79.3183C25.3384 79.3183 12.7882 70.085 12.7882 58.6951C12.7882 47.3052 25.3383 38.0719 40.8197 38.0719C56.3011 38.072 68.8513 47.3053 68.8513 58.6952Z" fill="url(#paint5_linear_74_41)" />
			<path d="M236.641 81.321C236.641 109.408 213.871 132.178 185.784 132.178C157.695 132.178 134.926 109.409 134.927 81.321C134.926 53.2333 157.696 30.4638 185.783 30.4637C213.871 30.4638 236.64 53.2333 236.641 81.321Z" fill="url(#paint6_radial_74_41)" />
			<path d="M231.836 78.9166C231.835 91.6336 221.526 101.943 208.81 101.943C196.092 101.943 185.784 91.6336 185.783 78.9167C185.783 66.1999 196.092 55.8908 208.81 55.8907C221.526 55.8908 231.836 66.1998 231.836 78.9166Z" fill="url(#paint7_linear_74_41)" fill-opacity="0.1" />
			<path d="M231.835 77.9174C231.835 90.6343 221.526 100.943 208.81 100.944C196.093 100.943 185.784 90.6342 185.784 77.9174C185.784 65.2005 196.093 54.8915 208.81 54.8914C221.526 54.8915 231.836 65.2005 231.835 77.9174Z" fill="white" />
			<path d="M117.306 24.4559C117.306 35.4035 108.432 44.2782 97.4839 44.2783C86.5364 44.2782 77.6616 35.4034 77.6617 24.4559C77.6616 13.5084 86.5364 4.63362 97.4839 4.63362C108.432 4.6336 117.307 13.5083 117.306 24.4559Z" fill="url(#paint8_linear_74_41)" fill-opacity="0.1" />
			<path d="M117.306 23.4557C117.306 34.4033 108.431 43.278 97.4837 43.278C86.5361 43.278 77.6614 34.4033 77.6614 23.4557C77.6614 12.5081 86.5361 3.63337 97.4836 3.63338C108.431 3.63339 117.306 12.5081 117.306 23.4557Z" fill="white" />
			<path d="M213.815 58.6954C213.815 70.0852 201.265 79.3186 185.783 79.3186C170.302 79.3186 157.752 70.0853 157.752 58.6953C157.752 47.3054 170.302 38.0721 185.783 38.0721C201.265 38.0722 213.815 47.3055 213.815 58.6954Z" fill="url(#paint9_linear_74_41)" />
			<path d="M179.351 131.667C154.69 128.156 135.727 106.953 135.727 81.3203C135.727 71.7058 138.396 62.7142 143.031 55.046C164.568 68.5901 179.377 96.7862 179.377 129.375C179.377 130.141 179.368 130.906 179.351 131.667Z" fill="url(#paint10_linear_74_41)" />
			<path d="M46.0507 131.667C70.7127 128.155 89.6752 106.953 89.6753 81.3203C89.6753 71.7056 87.0073 62.7142 82.3713 55.0458C60.8342 68.59 46.0262 96.7861 46.0261 129.374C46.0262 130.142 46.0344 130.906 46.0507 131.667Z" fill="url(#paint11_linear_74_41)" />
			<path d="M173.37 106.549C173.369 139.724 146.476 166.617 113.302 166.617C80.1274 166.617 53.2342 139.724 53.2342 106.549C53.2342 73.375 80.1274 46.4818 113.302 46.4819C146.476 46.4819 173.37 73.375 173.37 106.549Z" fill="url(#paint12_radial_74_41)" />
			<path d="M144.938 77.7164C144.937 90.544 130.774 100.943 113.302 100.943C95.8301 100.943 81.6664 90.5439 81.6664 77.7165C81.6664 64.889 95.8302 54.4903 113.302 54.4904C130.774 54.4904 144.937 64.8891 144.938 77.7164Z" fill="url(#paint13_linear_74_41)" />
			<path d="M163.358 101.944C163.358 117.204 150.987 129.575 135.727 129.575C120.467 129.575 108.096 117.204 108.096 101.944C108.096 86.6835 120.467 74.3127 135.727 74.3126C150.987 74.3126 163.358 86.6835 163.358 101.944Z" fill="url(#paint14_linear_74_41)" fill-opacity="0.1" />
			<path d="M163.358 100.943C163.358 116.204 150.987 128.574 135.727 128.575C120.467 128.575 108.096 116.203 108.095 100.944C108.096 85.6832 120.467 73.3123 135.727 73.3123C150.987 73.3124 163.358 85.6832 163.358 100.943Z" fill="white" />
			<path d="M134.178 97.3381C134.739 97.4355 135.397 97.6121 136.151 97.8679C136.931 98.1403 137.74 98.5407 138.578 99.0693C139.705 99.7796 140.692 100.622 141.542 101.597C142.392 102.572 143.008 103.657 143.39 104.85C143.8 106.059 143.913 107.359 143.734 108.746C143.571 110.107 143.019 111.534 142.077 113.028C141.153 114.495 140.097 115.587 138.913 116.305C137.745 116.996 136.501 117.401 135.181 117.521C133.903 117.63 132.563 117.462 131.159 117.017C129.783 116.587 128.426 115.952 127.09 115.11C125.571 114.152 124.368 113.156 123.483 112.121C122.641 111.077 122.018 110.062 121.614 109.076C121.238 108.106 121.021 107.2 120.966 106.36C120.952 105.51 121.016 104.799 121.156 104.229C121.233 103.874 121.328 103.55 121.441 103.255C121.57 102.934 121.692 102.681 121.808 102.498C122.353 101.634 123.05 101.139 123.897 101.014C124.761 100.864 125.573 101.028 126.332 101.507C127.432 102.201 127.906 103.396 127.75 105.092C127.638 106.083 127.727 107.017 128.016 107.895C128.33 108.789 129.051 109.592 130.177 110.301C131.278 110.995 132.332 111.239 133.341 111.033C134.349 110.827 135.191 110.187 135.869 109.113C136.612 107.934 136.841 106.815 136.557 105.758C136.272 104.7 135.58 103.824 134.48 103.13C134.035 102.849 133.583 102.637 133.123 102.494C132.691 102.368 132.249 102.254 131.801 102.154C131.367 102.028 130.921 101.893 130.463 101.75C130.029 101.623 129.591 101.42 129.145 101.139C127.941 100.379 127.192 99.5045 126.9 98.5152C126.609 97.5261 126.835 96.442 127.578 95.2633C127.727 95.0275 128.03 94.5773 128.485 93.9127C128.983 93.2385 129.515 92.5119 130.08 91.7329C130.644 90.9539 131.192 90.2011 131.723 89.4745C132.255 88.7478 132.662 88.2177 132.946 87.8841C133.78 86.9091 134.626 86.3808 135.483 86.2988C136.356 86.1908 137.383 86.5084 138.562 87.2517L148.896 93.7682C149.656 94.2472 150.109 94.8629 150.257 95.6152C150.422 96.3414 150.289 97.0449 149.86 97.726C149.43 98.407 148.852 98.8299 148.126 98.9944C147.4 99.1589 146.657 99.0016 145.897 98.5226L137.292 93.0963C137.101 93.3416 136.869 93.6526 136.594 94.0291C136.32 94.4054 136.038 94.7949 135.748 95.1975C135.457 95.6001 135.174 95.9897 134.901 96.3661C134.627 96.7424 134.386 97.0664 134.178 97.3381Z" fill="black" />
			<path d="M15.5218 71.7067C14.5622 72.4764 14.0673 73.4978 14.037 74.7706C14.0267 76.0275 14.6291 77.5156 15.8442 79.2351C16.023 78.2702 16.41 77.4011 17.0055 76.6278C17.6047 75.8185 18.2242 75.1572 18.8639 74.6441C19.7035 73.9704 20.6254 73.4609 21.6296 73.1153C22.6178 72.7497 23.6282 72.5962 24.6609 72.6549C25.6776 72.6935 26.6706 72.9483 27.6398 73.4194C28.6092 73.8904 29.4786 74.6056 30.2485 75.5652C30.9701 76.4648 31.4837 77.4327 31.7894 78.469C32.0789 79.4852 32.1464 80.5317 31.9918 81.6086C31.8411 82.6495 31.4342 83.6987 30.7713 84.7563C30.1083 85.8139 29.1771 86.8239 27.9776 87.7861C26.8181 88.7162 25.6062 89.3763 24.342 89.7662C23.0617 90.1362 21.7589 90.2121 20.4337 89.9937C19.0926 89.7554 17.7489 89.2068 16.4029 88.3481C15.0609 87.4534 13.7483 86.2064 12.4654 84.6071C10.9578 82.728 9.93077 80.9562 9.38417 79.2919C8.85755 77.6115 8.67133 76.0688 8.82553 74.6637C8.97972 73.2586 9.41027 71.9932 10.1172 70.8675C10.8241 69.7418 11.6674 68.7861 12.6469 68.0002C13.4466 67.3587 14.2304 66.8614 14.9984 66.5081C15.7864 66.1388 16.5526 65.8856 17.2968 65.7485C18.0411 65.6114 18.7555 65.5804 19.4401 65.6555C20.1286 65.6946 20.7612 65.8278 21.3378 66.0552C21.6181 66.1588 21.9105 66.3186 22.2151 66.5343C22.5395 66.734 22.7899 66.9438 22.9664 67.1636C23.4795 67.8034 23.6365 68.4496 23.4373 69.1023C23.242 69.719 22.9145 70.2117 22.4547 70.5805C21.9349 70.9976 21.4289 71.2064 20.9365 71.2071C20.4643 71.1917 20.0239 71.1342 19.6155 71.0347C18.9749 70.8914 18.3064 70.8364 17.61 70.8693C16.9175 70.8663 16.2215 71.1453 15.5218 71.7067ZM20.8751 78.9941C20.1154 79.6035 19.6362 80.3166 19.4371 81.1334C19.242 81.9141 19.297 82.6585 19.6022 83.3666C20.4199 84.222 21.3112 84.7392 22.2761 84.918C23.2249 85.0768 24.169 84.7794 25.1086 84.0256C25.8084 83.4642 26.2136 82.7613 26.3245 81.9166C26.4394 81.0359 26.1681 80.1857 25.5106 79.3661C24.9974 78.7263 24.3104 78.341 23.4497 78.2101C22.5729 78.0592 21.7147 78.3205 20.8751 78.9941Z" fill="black" />
			<path d="M219.433 69.6383C220.365 69.9213 221.04 70.4341 221.457 71.1768C221.898 71.927 221.986 72.7435 221.717 73.6265C221.531 74.2395 221.182 74.8164 220.67 75.3572C220.164 75.8736 219.691 76.3727 219.25 76.8548C217.639 78.455 215.864 80.246 213.923 82.228C212.014 84.1928 209.865 86.4601 207.478 89.0298C206.92 89.6367 206.363 90.057 205.81 90.291C205.257 90.5247 204.625 90.5337 203.913 90.3178C203.006 90.0423 202.361 89.5651 201.978 88.8863C201.619 88.2149 201.57 87.4501 201.83 86.5918C201.913 86.3221 202.059 86.0182 202.269 85.68C202.479 85.342 202.685 85.0567 202.89 84.8241C203.526 84.053 204.341 83.1757 205.336 82.1921C206.331 81.2087 207.403 80.1946 208.55 79.1503C209.722 78.1132 210.902 77.0924 212.091 76.0873C213.287 75.0578 214.414 74.1275 215.47 73.2963L206.31 70.5154C205.599 70.2994 205.098 69.9198 204.808 69.3762C204.517 68.8328 204.469 68.2423 204.663 67.6047C204.857 66.967 205.225 66.5031 205.768 66.2127C206.32 65.8979 206.951 65.8484 207.662 66.0643L219.433 69.6383Z" fill="black" />
			<path d="M92.4913 20.452L91.4504 21.9016C91.2262 22.2212 90.9869 22.4981 90.7325 22.7322C90.4706 22.9448 90.1578 23.1152 89.7939 23.2434C89.1519 23.4697 88.549 23.4657 87.9852 23.2313C87.4428 22.9894 87.0546 22.5368 86.8207 21.8734C86.4813 20.9102 86.678 20.0349 87.4109 19.2472C88.1438 18.4595 88.7709 17.7813 89.2923 17.2126C89.8137 16.6438 90.3527 16.0569 90.9092 15.4517C91.2619 15.0868 91.615 14.7577 91.9689 14.4646C92.3365 14.1425 92.713 13.9136 93.0982 13.7778C93.7831 13.5364 94.4036 13.5222 94.9599 13.7351C95.5086 13.9267 95.9414 14.4719 96.2583 15.3708L101.746 30.9404C102.025 31.7323 102.038 32.4498 101.783 33.0929C101.521 33.7146 100.983 34.1687 100.17 34.4554C99.3997 34.727 98.7175 34.7028 98.1236 34.3828C97.522 34.0415 97.0816 33.4748 96.8026 32.6831L92.4913 20.452Z" fill="black" />
		</g>
		<path d="M201.167 15.3608H28.1669C21.5395 15.3608 16.1669 20.7334 16.1669 27.3608V200.361C16.1669 206.988 21.5395 212.361 28.1669 212.361H201.167C207.794 212.361 213.167 206.988 213.167 200.361V27.3608C213.167 20.7334 207.794 15.3608 201.167 15.3608Z" fill="url(#paint15_linear_74_41)" />
	</g>
	<defs>
		<filter id="filter0_d_74_41" x="13.767" y="12.9607" width="201.8" height="206.6" filterUnits="userSpaceOnUse" color-interpolation-filters="sRGB">
			<feFlood flood-opacity="0" result="BackgroundImageFix" />
			<feColorMatrix in="SourceAlpha" type="matrix" values="0 0 0 0 0 0 0 0 0 0 0 0 0 0 0 0 0 0 127 0" result="hardAlpha" />
			<feOffset dy="4.8" />
			<feComposite in2="hardAlpha" operator="out" />
			<feColorMatrix type="matrix" values="0 0 0 0 0 0 0 0 0 0 0 0 0 0 0 0 0 0 1 0" />
			<feBlend mode="normal" in2="BackgroundImageFix" result="effect1_dropShadow_74_41" />
			<feBlend mode="normal" in="SourceGraphic" in2="effect1_dropShadow_74_41" result="shape" />
		</filter>
		<filter id="filter1_f_74_41" x="56.8377" y="25.6587" width="114.129" height="85.2961" filterUnits="userSpaceOnUse" color-interpolation-filters="sRGB">
			<feFlood flood-opacity="0" result="BackgroundImageFix" />
			<feBlend mode="normal" in="SourceGraphic" in2="BackgroundImageFix" result="shape" />
			<feGaussianBlur stdDeviation="8.80992" result="effect1_foregroundBlur_74_41" />
		</filter>
		<radialGradient id="paint0_radial_74_41" cx="0" cy="0" r="1" gradientUnits="userSpaceOnUse" gradientTransform="translate(124.264 16.3621) rotate(123.065) scale(60.5602 60.5602)">
			<stop stop-color="white" />
			<stop offset="0.538298" stop-color="#FFD600" />
			<stop offset="0.843189" stop-color="#FFEC1C" />
			<stop offset="1" stop-color="white" />
		</radialGradient>
		<linearGradient id="paint1_linear_74_41" x1="113.301" y1="-22.1969" x2="113.301" y2="38.0726" gradientUnits="userSpaceOnUse">
			<stop stop-color="white" />
			<stop offset="1" stop-color="white" stop-opacity="0" />
		</linearGradient>
		<linearGradient id="paint2_linear_74_41" x1="113.902" y1="43.2786" x2="113.902" y2="93.3349" gradientUnits="userSpaceOnUse">
			<stop />
			<stop offset="1" stop-opacity="0" />
		</linearGradient>
		<radialGradient id="paint3_radial_74_41" cx="0" cy="0" r="1" gradientUnits="userSpaceOnUse" gradientTransform="translate(56.7379 60.4695) rotate(123.065) scale(68.9788)">
			<stop stop-color="white" />
			<stop offset="0.538298" stop-color="#FF8A00" />
			<stop offset="0.843189" stop-color="#FF6B00" />
			<stop offset="1" stop-color="#FFB876" />
		</radialGradient>
		<linearGradient id="paint4_linear_74_41" x1="20.9977" y1="55.8914" x2="20.9976" y2="101.943" gradientUnits="userSpaceOnUse">
			<stop />
			<stop offset="1" />
		</linearGradient>
		<linearGradient id="paint5_linear_74_41" x1="40.8198" y1="19.0488" x2="40.8198" y2="79.3183" gradientUnits="userSpaceOnUse">
			<stop stop-color="white" />
			<stop offset="1" stop-color="white" stop-opacity="0" />
		</linearGradient>
		<radialGradient id="paint6_radial_74_41" cx="0" cy="0" r="1" gradientUnits="userSpaceOnUse" gradientTransform="translate(198.498 60.4696) rotate(123.065) scale(68.9788 68.9788)">
			<stop stop-color="white" />
			<stop offset="0.538298" stop-color="#79DB2C" />
			<stop offset="0.843189" stop-color="#09AB19" />
			<stop offset="1" stop-color="white" />
		</radialGradient>
		<linearGradient id="paint7_linear_74_41" x1="208.81" y1="55.8907" x2="208.81" y2="101.943" gradientUnits="userSpaceOnUse">
			<stop />
			<stop offset="1" />
		</linearGradient>
		<linearGradient id="paint8_linear_74_41" x1="97.4839" y1="4.63362" x2="97.4839" y2="44.2783" gradientUnits="userSpaceOnUse">
			<stop />
			<stop offset="1" />
		</linearGradient>
		<linearGradient id="paint9_linear_74_41" x1="185.783" y1="19.0491" x2="185.783" y2="79.3186" gradientUnits="userSpaceOnUse">
			<stop stop-color="white" />
			<stop offset="1" stop-color="white" stop-opacity="0" />
		</linearGradient>
		<linearGradient id="paint10_linear_74_41" x1="157.551" y1="55.046" x2="157.552" y2="131.668" gradientUnits="userSpaceOnUse">
			<stop />
			<stop offset="1" stop-opacity="0" />
		</linearGradient>
		<linearGradient id="paint11_linear_74_41" x1="67.8507" y1="55.0458" x2="67.8507" y2="131.667" gradientUnits="userSpaceOnUse">
			<stop />
			<stop offset="1" stop-opacity="0" />
		</linearGradient>
		<radialGradient id="paint12_radial_74_41" cx="0" cy="0" r="1" gradientUnits="userSpaceOnUse" gradientTransform="translate(128.319 81.9217) rotate(123.065) scale(81.4711 81.4711)">
			<stop stop-color="white" />
			<stop offset="0.538298" stop-color="#F96753" />
			<stop offset="0.843189" stop-color="#FF4B4B" />
			<stop offset="1" stop-color="white" />
		</radialGradient>
		<linearGradient id="paint13_linear_74_41" x1="113.302" y1="33.0662" x2="113.302" y2="100.943" gradientUnits="userSpaceOnUse">
			<stop stop-color="white" />
			<stop offset="1" stop-color="white" stop-opacity="0" />
		</linearGradient>
		<linearGradient id="paint14_linear_74_41" x1="135.727" y1="74.3126" x2="135.727" y2="129.575" gradientUnits="userSpaceOnUse">
			<stop />
			<stop offset="1" />
		</linearGradient>
		<linearGradient id="paint15_linear_74_41" x1="114.667" y1="212.361" x2="114.667" y2="126.519" gradientUnits="userSpaceOnUse">
			<stop offset="0.35" stop-color="#B8FA2C" />
			<stop offset="1" stop-color="#B8FA2C" stop-opacity="0" />
		</linearGradient>
		<clipPath id="clip0_74_41">
			<rect width="214" height="219" fill="white" transform="translate(0.942627 14.3718) rotate(-3.82)" />
		</clipPath>
	</defs>
</svg>
