<svg width="347" height="224" viewBox="0 0 347 224" fill="none" xmlns="http://www.w3.org/2000/svg">
<g filter="url(#filter0_d_68_28610)">
<ellipse cx="174.336" cy="111.832" rx="148.245" ry="81.6151" transform="rotate(-12.5293 174.336 111.832)" fill="#8C53EF"/>
<path d="M192.181 192.13C232.227 183.23 266.529 166.231 289.608 145.909C312.669 125.605 324.641 101.867 319.677 79.5321C314.714 57.1974 293.815 40.7646 264.325 32.1383C234.81 23.5046 196.538 22.6335 156.491 31.5332C116.444 40.4329 82.1428 57.4322 59.0629 77.754C36.0027 98.0586 24.0307 121.796 28.9941 144.131C33.9576 166.466 54.8568 182.899 84.3464 191.525C113.861 200.159 152.134 201.03 192.181 192.13Z" stroke="black" stroke-width="1.28443"/>
</g>
<g opacity="0.7" filter="url(#filter1_f_68_28610)">
<path fill-rule="evenodd" clip-rule="evenodd" d="M329.771 127.811C333.981 123.271 335.652 116.961 334.786 108.881L331.373 77.0687C331.295 76.3393 330.866 75.5059 330.087 74.5684C328.997 73.3806 326.691 72.9768 323.166 73.3571C319.027 73.8038 315.423 74.7602 312.355 76.2264C309.343 77.6866 307.912 79.118 308.062 80.5207L310.35 101.853L302.643 99.6365L300.579 80.3917C300.501 79.6624 300.044 78.8319 299.208 77.9005C298.063 76.7187 295.812 76.3089 292.456 76.6711C288.822 77.0632 285.611 77.8355 282.822 78.988C282.761 78.5351 282.691 78.1217 282.611 77.7478C282.33 76.1678 281.767 75.3778 280.923 75.3778H235.267C234.141 75.3778 233.241 76.6475 232.566 79.1868C232.541 79.2775 232.517 79.3687 232.493 79.4603L302.643 99.6365L303.269 105.471C303.427 106.948 303.585 108.307 303.743 109.549L280.08 110.058L278.684 97.0471H269.108V110.295L245.562 110.801V97.0471H233.832C233.354 97.0471 232.927 96.5764 232.55 95.6349C231.475 97.0107 230.51 97.6425 229.655 97.5304C229.432 97.5011 228.74 97.1541 227.578 96.4895C224.108 94.3838 221.145 93.17 218.691 92.8479C216.292 92.5332 214.617 92.5411 213.666 92.8716C212.771 93.2095 212.261 93.854 212.137 94.8052C212.02 95.7005 212.535 96.5364 213.682 97.3129C214.837 98.0334 216.274 98.7626 217.993 99.5004C219.776 100.19 221.661 101.177 223.65 102.462C225.702 103.699 227.56 105.109 229.226 106.694C230.499 107.857 231.552 109.32 232.386 111.085L204.921 111.676C204.761 111.605 204.598 111.535 204.432 111.465C202.664 110.664 200.758 109.617 198.714 108.325C196.725 107.04 194.891 105.661 193.21 104.188C191.53 102.716 190.222 100.78 189.286 98.3806C189.025 97.6887 188.815 96.9787 188.657 96.2506L189.893 81.6222C189.974 80.6663 189.088 79.798 187.234 79.0175C185.436 78.2417 182.575 77.687 178.651 77.3535C174.727 77.0199 171.061 77.3029 167.653 78.2025C164.307 79.0507 162.373 80.2172 161.852 81.7021L154.675 102.499L153.918 102.435L150.081 79.682C149.896 78.5336 149.005 77.3819 147.409 76.2268C145.812 75.0717 143.052 74.3274 139.128 73.9938C135.203 73.6602 131.47 73.7393 127.928 74.231C124.446 74.6713 122.651 75.5381 122.542 76.8314L119.869 108.466C117.461 100.375 114.416 90.1921 110.733 77.9171C110.226 76.2242 107.526 75.3778 102.631 75.3778C97.7924 75.3778 93.2352 75.6317 88.9593 76.1396C84.7396 76.591 82.4891 77.1835 82.2078 77.9171C81.4764 80.3437 78.607 89.5418 73.5997 105.512C71.9676 110.698 70.6015 115.112 69.5014 118.752L66.3199 77.1593C66.1263 74.6274 63.3929 73.5643 58.1197 73.9701C54.3051 74.2636 50.7881 75.1285 47.5688 76.5648C44.4012 77.9404 42.8712 79.3316 42.9788 80.7382L44.2635 97.5334L36.7745 98.1097L35.3542 79.5421C35.1606 77.0102 32.3991 75.9493 27.0699 76.3594C23.2553 76.6529 19.7663 77.5156 16.6031 78.9476C13.4355 80.3232 11.9055 81.7144 12.0131 83.121L15.9834 135.026C16.0479 135.87 16.5721 136.452 17.5559 136.772C18.5958 137.088 20.8267 137.115 24.2486 136.852C27.7266 136.584 31.1313 136.096 34.4627 135.386C37.8502 134.673 39.516 133.951 39.4601 133.219L37.9817 113.892L45.4707 113.316L46.9491 132.643C47.0136 133.487 47.5378 134.069 48.5216 134.39C49.5614 134.706 51.7923 134.732 55.2143 134.469C58.6362 134.205 62.0409 133.717 65.4284 133.004C65.8907 132.906 66.321 132.809 66.7191 132.711C67.3753 133.339 68.5435 133.894 70.224 134.376C73.0371 135.109 76.5253 135.476 80.6887 135.476C84.8521 135.476 87.7215 135.166 89.2968 134.545C90.9284 133.924 91.8005 132.796 91.913 131.159L92.335 126.419H100.437L101.027 131.921C101.253 134.291 106.344 135.476 116.303 135.476C120.972 135.476 124.095 134.856 125.67 133.614C125.835 133.476 125.98 133.339 126.104 133.201L130.788 133.599C137.81 134.026 141.383 133.508 141.506 132.046C141.863 127.829 142.026 119.886 141.995 108.217L142.752 108.282L145.433 130.681C145.52 131.651 145.802 132.327 146.278 132.707C146.81 133.092 148.282 133.387 150.692 133.592C153.103 133.797 154.913 133.752 156.124 133.459C157.391 133.17 158.144 132.611 158.383 131.782L164.616 110.14L165.373 110.204C163.46 121.482 162.316 129.341 161.94 133.783C161.803 135.414 164.032 136.425 168.629 136.816C173.226 137.206 177.142 137.313 180.375 137.134C183.609 136.956 185.256 136.502 185.318 135.771L185.793 130.146C187.532 131.063 189.943 132.02 193.025 133.018C197.163 134.357 201.575 135.335 206.261 135.949C211.003 136.572 214.903 136.685 217.962 136.289C221.084 135.845 223.562 135.118 225.396 134.106C227.23 133.095 228.787 131.819 230.065 130.28C232.152 127.765 233.415 124.829 233.853 121.472C234.269 118.282 234.02 115.404 233.106 112.837C232.888 112.223 232.648 111.639 232.386 111.085L245.562 110.801V133.445C245.562 134.178 246.013 134.714 246.913 135.053C247.869 135.335 250.063 135.476 253.495 135.476C256.984 135.476 260.444 135.307 263.876 134.968C267.364 134.573 269.108 134.066 269.108 133.445V110.295L280.08 110.058L280.581 114.73C281.447 122.81 284.447 128.616 289.579 132.148C294.705 135.625 301.632 136.892 310.358 135.951C319.141 135.003 325.612 132.29 329.771 127.811ZM188.802 112.023L204.921 111.676C206.476 112.363 207.767 113.11 208.794 113.916C209.933 114.748 210.445 115.612 210.328 116.507C210.211 117.402 209.785 118.058 209.05 118.474C208.323 118.834 206.843 118.867 204.611 118.574C202.38 118.282 199.159 117.091 194.949 115.002C191.747 113.413 189.698 112.42 188.802 112.023ZM188.802 112.023L187.322 112.054C187.651 111.859 187.977 111.782 188.299 111.824C188.353 111.831 188.52 111.897 188.802 112.023ZM303.743 109.549L311.109 109.391C311.435 113.259 311.513 115.947 311.345 117.455C311.164 119.461 310.29 120.549 308.724 120.718C307.158 120.887 306.015 119.989 305.294 118.023C304.78 116.467 304.263 113.643 303.743 109.549ZM311.109 109.391L334.786 108.881L310.35 101.853L310.644 104.59C310.833 106.353 310.988 107.954 311.109 109.391ZM97.3986 95.1002L98.6645 110.336H94.1072L95.5419 95.1002H97.3986Z" fill="#010101"/>
</g>
<g opacity="0.4" filter="url(#filter2_f_68_28610)">
<path fill-rule="evenodd" clip-rule="evenodd" d="M329.771 137.811C333.981 133.271 335.652 126.961 334.786 118.881L331.373 87.0687C331.295 86.3393 330.866 85.5059 330.087 84.5684C328.997 83.3806 326.691 82.9768 323.166 83.3571C319.027 83.8038 315.423 84.7602 312.355 86.2264C309.343 87.6866 307.912 89.118 308.062 90.5207L310.35 111.853L302.643 109.637L300.579 90.3917C300.501 89.6624 300.044 88.8319 299.208 87.9005C298.063 86.7187 295.812 86.3089 292.456 86.6711C288.822 87.0632 285.611 87.8355 282.822 88.988C282.761 88.5351 282.691 88.1217 282.611 87.7478C282.33 86.1678 281.767 85.3778 280.923 85.3778H235.267C234.141 85.3778 233.241 86.6475 232.566 89.1868C232.541 89.2775 232.517 89.3687 232.493 89.4603L302.643 109.637L303.269 115.471C303.427 116.948 303.585 118.307 303.743 119.549L280.08 120.058L278.684 107.047H269.108V120.295L245.562 120.801V107.047H233.832C233.354 107.047 232.927 106.576 232.55 105.635C231.475 107.011 230.51 107.643 229.655 107.53C229.432 107.501 228.74 107.154 227.578 106.49C224.108 104.384 221.145 103.17 218.691 102.848C216.292 102.533 214.617 102.541 213.666 102.872C212.771 103.209 212.261 103.854 212.137 104.805C212.02 105.7 212.535 106.536 213.682 107.313C214.837 108.033 216.274 108.763 217.993 109.5C219.776 110.19 221.661 111.177 223.65 112.462C225.702 113.699 227.56 115.109 229.226 116.694C230.499 117.857 231.552 119.32 232.386 121.085L204.921 121.676C204.761 121.605 204.598 121.535 204.432 121.465C202.664 120.664 200.758 119.617 198.714 118.325C196.725 117.04 194.891 115.661 193.21 114.188C191.53 112.716 190.222 110.78 189.286 108.381C189.025 107.689 188.815 106.979 188.657 106.251L189.893 91.6222C189.974 90.6663 189.088 89.798 187.234 89.0175C185.436 88.2417 182.575 87.687 178.651 87.3535C174.727 87.0199 171.061 87.3029 167.653 88.2025C164.307 89.0507 162.373 90.2172 161.852 91.7021L154.675 112.499L153.918 112.435L150.081 89.682C149.896 88.5336 149.005 87.3819 147.409 86.2268C145.812 85.0717 143.052 84.3274 139.128 83.9938C135.203 83.6602 131.47 83.7393 127.928 84.231C124.446 84.6713 122.651 85.5381 122.542 86.8314L119.869 118.466C117.461 110.375 114.416 100.192 110.733 87.9171C110.226 86.2242 107.526 85.3778 102.631 85.3778C97.7924 85.3778 93.2352 85.6317 88.9593 86.1396C84.7396 86.591 82.4891 87.1835 82.2078 87.9171C81.4764 90.3437 78.607 99.5418 73.5997 115.512C71.9676 120.698 70.6015 125.112 69.5014 128.752L66.3199 87.1593C66.1263 84.6274 63.3929 83.5643 58.1197 83.9701C54.3051 84.2636 50.7881 85.1285 47.5688 86.5648C44.4012 87.9404 42.8712 89.3316 42.9788 90.7382L44.2635 107.533L36.7745 108.11L35.3542 89.5421C35.1606 87.0102 32.3991 85.9493 27.0699 86.3594C23.2553 86.6529 19.7663 87.5156 16.6031 88.9476C13.4355 90.3232 11.9055 91.7144 12.0131 93.121L15.9834 145.026C16.0479 145.87 16.5721 146.452 17.5559 146.772C18.5958 147.088 20.8267 147.115 24.2486 146.852C27.7266 146.584 31.1313 146.096 34.4627 145.386C37.8502 144.673 39.516 143.951 39.4601 143.219L37.9817 123.892L45.4707 123.316L46.9491 142.643C47.0136 143.487 47.5378 144.069 48.5216 144.39C49.5614 144.706 51.7923 144.732 55.2143 144.469C58.6362 144.205 62.0409 143.717 65.4284 143.004C65.8907 142.906 66.321 142.809 66.7191 142.711C67.3753 143.339 68.5435 143.894 70.224 144.376C73.0371 145.109 76.5253 145.476 80.6887 145.476C84.8521 145.476 87.7215 145.166 89.2968 144.545C90.9284 143.924 91.8005 142.796 91.913 141.159L92.335 136.419H100.437L101.027 141.921C101.253 144.291 106.344 145.476 116.303 145.476C120.972 145.476 124.095 144.856 125.67 143.614C125.835 143.476 125.98 143.339 126.104 143.201L130.788 143.599C137.81 144.026 141.383 143.508 141.506 142.046C141.863 137.829 142.026 129.886 141.995 118.217L142.752 118.282L145.433 140.681C145.52 141.651 145.802 142.327 146.278 142.707C146.81 143.092 148.282 143.387 150.692 143.592C153.103 143.797 154.913 143.752 156.124 143.459C157.391 143.17 158.144 142.611 158.383 141.782L164.616 120.14L165.373 120.204C163.46 131.482 162.316 139.341 161.94 143.783C161.803 145.414 164.032 146.425 168.629 146.816C173.226 147.206 177.142 147.313 180.375 147.134C183.609 146.956 185.256 146.502 185.318 145.771L185.793 140.146C187.532 141.063 189.943 142.02 193.025 143.018C197.163 144.357 201.575 145.335 206.261 145.949C211.003 146.572 214.903 146.685 217.962 146.289C221.084 145.845 223.562 145.118 225.396 144.106C227.23 143.095 228.787 141.819 230.065 140.28C232.152 137.765 233.415 134.829 233.853 131.472C234.269 128.282 234.02 125.404 233.106 122.837C232.888 122.223 232.648 121.639 232.386 121.085L245.562 120.801V143.445C245.562 144.178 246.013 144.714 246.913 145.053C247.869 145.335 250.063 145.476 253.495 145.476C256.984 145.476 260.444 145.307 263.876 144.968C267.364 144.573 269.108 144.066 269.108 143.445V120.295L280.08 120.058L280.581 124.73C281.447 132.81 284.447 138.616 289.579 142.148C294.705 145.625 301.632 146.892 310.358 145.951C319.141 145.003 325.612 142.29 329.771 137.811ZM188.802 122.023L204.921 121.676C206.476 122.363 207.767 123.11 208.794 123.916C209.933 124.748 210.445 125.612 210.328 126.507C210.211 127.402 209.785 128.058 209.05 128.474C208.323 128.834 206.843 128.867 204.611 128.574C202.38 128.282 199.159 127.091 194.949 125.002C191.747 123.413 189.698 122.42 188.802 122.023ZM188.802 122.023L187.322 122.054C187.651 121.859 187.977 121.782 188.299 121.824C188.353 121.831 188.52 121.897 188.802 122.023ZM303.743 119.549L311.109 119.391C311.435 123.259 311.513 125.947 311.345 127.455C311.164 129.461 310.29 130.549 308.724 130.718C307.158 130.887 306.015 129.989 305.294 128.023C304.78 126.467 304.263 123.643 303.743 119.549ZM311.109 119.391L334.786 118.881L310.35 111.853L310.644 114.59C310.833 116.353 310.988 117.954 311.109 119.391ZM97.3986 105.1L98.6645 120.336H94.1072L95.5419 105.1H97.3986Z" fill="#010101"/>
</g>
<path d="M334.143 95.6764C335.006 103.702 333.341 109.97 329.147 114.481C325.002 118.93 318.555 121.625 309.804 122.566C301.11 123.501 294.209 122.242 289.101 118.789C283.988 115.28 280.999 109.512 280.136 101.487L276.835 70.8052C276.685 69.4118 278.11 67.9899 281.112 66.5394C284.169 65.083 287.787 64.1299 291.967 63.6801C295.311 63.3204 297.554 63.7275 298.695 64.9014C299.528 65.8267 299.983 66.6516 300.061 67.3761L302.741 92.2892C303.419 98.5872 304.091 102.743 304.759 104.757C305.477 106.71 306.616 107.602 308.176 107.434C309.737 107.266 310.607 106.186 310.787 104.193C311.017 102.139 310.785 97.8793 310.089 91.4141L307.517 67.5042C307.367 66.1109 308.792 64.689 311.794 63.2385C314.851 61.782 318.441 60.8319 322.566 60.3882C326.077 60.0104 328.375 60.4115 329.461 61.5915C330.237 62.5227 330.665 63.3506 330.743 64.0752L334.143 95.6764Z" fill="#AA421C"/>
<path d="M333.449 89.235C334.313 97.2607 332.647 103.529 328.453 108.039C324.309 112.488 317.861 115.183 309.111 116.125C300.416 117.06 293.515 115.801 288.408 112.348C283.294 108.838 280.306 103.071 279.442 95.0453L276.141 64.3638C275.991 62.9704 277.417 61.5485 280.418 60.098C283.475 58.6416 287.094 57.6885 291.274 57.2387C294.618 56.879 296.861 57.286 298.002 58.46C298.834 59.3853 299.289 60.2102 299.367 60.9347L302.048 85.8478C302.725 92.1458 303.398 96.3018 304.066 98.316C304.783 100.268 305.922 101.161 307.483 100.993C309.043 100.825 309.914 99.7447 310.094 97.752C310.324 95.6976 310.091 91.4379 309.396 84.9727L306.823 61.0628C306.673 59.6695 308.099 58.2475 311.1 56.7971C314.157 55.3406 317.748 54.3905 321.872 53.9468C325.384 53.569 327.682 53.9701 328.767 55.1501C329.544 56.0813 329.971 56.9092 330.049 57.6338L333.449 89.235Z" fill="#FFF8A7"/>
<path d="M332.932 89.235C333.795 97.2607 332.13 103.529 327.936 108.039C323.791 112.488 317.344 115.183 308.593 116.125C299.899 117.06 292.998 115.801 287.89 112.348C282.777 108.838 279.788 103.071 278.925 95.0453L275.624 64.3638C275.474 62.9704 276.899 61.5485 279.901 60.098C282.958 58.6416 286.576 57.6885 290.756 57.2387C294.1 56.879 296.343 57.286 297.484 58.46C298.317 59.3853 298.772 60.2102 298.85 60.9347L301.53 85.8478C302.208 92.1458 302.88 96.3018 303.548 98.316C304.266 100.268 305.405 101.161 306.965 100.993C308.526 100.825 309.396 99.7447 309.577 97.752C309.807 95.6976 309.574 91.4379 308.878 84.9727L306.306 61.0628C306.156 59.6695 307.581 58.2475 310.583 56.7971C313.64 55.3406 317.23 54.3905 321.355 53.9468C324.866 53.569 327.164 53.9701 328.25 55.1501C329.026 56.0813 329.454 56.9092 329.532 57.6338L332.932 89.235Z" fill="url(#paint0_linear_68_28610)"/>
<path d="M268.707 120.08C268.707 120.696 266.969 121.201 263.493 121.593C260.074 121.93 256.627 122.098 253.151 122.098C249.732 122.098 247.545 121.958 246.592 121.677C245.696 121.341 245.247 120.808 245.247 120.08V83.9238H233.559C232.943 83.9238 232.41 83.139 231.962 81.5695C231.513 79.9999 231.289 77.6736 231.289 74.5905C231.289 71.4514 231.625 68.6486 232.298 66.1822C232.971 63.6597 233.868 62.3984 234.989 62.3984H280.479C281.319 62.3984 281.88 63.1832 282.16 64.7528C282.497 66.3223 282.665 68.5926 282.665 71.5635C282.665 74.5345 282.356 77.3373 281.74 79.9719C281.123 82.6065 280.282 83.9238 279.217 83.9238H268.707V120.08Z" fill="#AA421C"/>
<path d="M268.707 113.599C268.707 114.216 266.969 114.72 263.493 115.113C260.074 115.449 256.627 115.617 253.151 115.617C249.732 115.617 247.545 115.477 246.592 115.197C245.696 114.861 245.247 114.328 245.247 113.599V77.4433H233.559C232.943 77.4433 232.41 76.6586 231.962 75.089C231.513 73.5194 231.289 71.1931 231.289 68.1101C231.289 64.971 231.625 62.1682 232.298 59.7017C232.971 57.1792 233.868 55.918 234.989 55.918H280.479C281.319 55.918 281.88 56.7027 282.16 58.2723C282.497 59.8419 282.665 62.1121 282.665 65.0831C282.665 68.054 282.356 70.8568 281.74 73.4914C281.123 76.126 280.282 77.4433 279.217 77.4433H268.707V113.599Z" fill="#FFF8A7"/>
<path d="M268.189 113.599C268.189 114.216 266.451 114.72 262.976 115.113C259.556 115.449 256.109 115.617 252.633 115.617C249.214 115.617 247.028 115.477 246.075 115.197C245.178 114.861 244.73 114.328 244.73 113.599V77.4433H233.042C232.425 77.4433 231.893 76.6586 231.444 75.089C230.996 73.5194 230.771 71.1931 230.771 68.1101C230.771 64.971 231.108 62.1682 231.781 59.7017C232.453 57.1792 233.35 55.918 234.471 55.918H279.961C280.802 55.918 281.362 56.7027 281.643 58.2723C281.979 59.8419 282.147 62.1121 282.147 65.0831C282.147 68.054 281.839 70.8568 281.222 73.4914C280.606 76.126 279.765 77.4433 278.7 77.4433H268.189V113.599Z" fill="url(#paint1_linear_68_28610)"/>
<path d="M130.89 120.228C129.494 120.11 127.455 119.937 124.774 119.71C122.149 119.487 120.378 119.14 119.462 118.669C118.545 118.197 118.123 117.543 118.194 116.705L122.674 63.8376C122.783 62.5529 124.572 61.6919 128.041 61.2545C131.57 60.7661 135.29 60.6875 139.2 61.0189C143.11 61.3502 145.86 62.0896 147.45 63.2371C149.041 64.3845 149.928 65.5286 150.113 66.6693L153.936 89.2709L154.69 89.3348L161.841 68.6759C162.36 67.201 164.287 66.0422 167.621 65.1997C171.016 64.306 174.668 64.0249 178.578 64.3562C182.488 64.6876 185.339 65.2386 187.13 66.0092C188.977 66.7846 189.86 67.647 189.78 68.5966L185.221 122.385C185.159 123.111 183.518 123.563 180.296 123.74C177.075 123.917 173.174 123.812 168.593 123.423C164.013 123.035 161.792 122.031 161.929 120.411C162.303 115.999 163.443 108.191 165.349 96.989L164.595 96.9251L158.385 118.423C158.146 119.247 157.396 119.802 156.134 120.089C154.928 120.381 153.124 120.425 150.722 120.221C148.32 120.017 146.854 119.724 146.324 119.342C145.85 118.964 145.569 118.293 145.482 117.33L142.811 95.0789L142.057 95.015C142.087 106.606 141.924 114.497 141.569 118.686C141.446 120.138 137.887 120.652 130.89 120.228Z" fill="#AA421C"/>
<path d="M131.437 113.771C130.041 113.653 128.002 113.48 125.321 113.253C122.696 113.03 120.925 112.683 120.009 112.212C119.092 111.74 118.669 111.086 118.74 110.248L123.221 57.3806C123.33 56.0959 125.119 55.2349 128.588 54.7975C132.117 54.309 135.837 54.2305 139.747 54.5618C143.656 54.8932 146.407 55.6326 147.997 56.78C149.588 57.9274 150.475 59.0715 150.66 60.2123L154.482 82.8139L155.237 82.8778L162.388 62.2189C162.907 60.744 164.834 59.5852 168.168 58.7427C171.563 57.849 175.215 57.5678 179.125 57.8992C183.035 58.2306 185.886 58.7816 187.677 59.5522C189.524 60.3276 190.407 61.19 190.327 62.1395L185.768 115.928C185.706 116.654 184.065 117.106 180.843 117.283C177.621 117.46 173.72 117.354 169.14 116.966C164.56 116.578 162.339 115.574 162.476 113.954C162.85 109.542 163.99 101.734 165.896 90.532L165.142 90.4681L158.931 111.966C158.693 112.79 157.943 113.345 156.681 113.632C155.474 113.924 153.67 113.968 151.269 113.764C148.867 113.56 147.401 113.267 146.871 112.885C146.396 112.507 146.116 111.836 146.029 110.873L143.358 88.6219L142.604 88.558C142.634 100.149 142.471 108.04 142.116 112.229C141.993 113.681 138.434 114.195 131.437 113.771Z" fill="#FFF8A7"/>
<path d="M130.916 113.771C129.519 113.653 127.481 113.48 124.8 113.253C122.174 113.03 120.404 112.683 119.487 112.212C118.571 111.74 118.148 111.086 118.219 110.248L122.7 57.3806C122.809 56.0959 124.597 55.2349 128.066 54.7975C131.595 54.309 135.315 54.2305 139.225 54.5618C143.135 54.8932 145.885 55.6326 147.476 56.78C149.066 57.9274 149.954 59.0715 150.138 60.2123L153.961 82.8139L154.715 82.8778L161.867 62.2189C162.385 60.744 164.312 59.5852 167.646 58.7427C171.041 57.849 174.694 57.5678 178.604 57.8992C182.514 58.2306 185.364 58.7816 187.155 59.5522C189.002 60.3276 189.886 61.19 189.805 62.1395L185.246 115.928C185.185 116.654 183.543 117.106 180.322 117.283C177.1 117.46 173.199 117.354 168.619 116.966C164.039 116.578 161.817 115.574 161.954 113.954C162.328 109.542 163.468 101.734 165.374 90.532L164.62 90.4681L158.41 111.966C158.171 112.79 157.421 113.345 156.159 113.632C154.953 113.924 153.149 113.968 150.747 113.764C148.345 113.56 146.879 113.267 146.349 112.885C145.875 112.507 145.594 111.836 145.507 110.873L142.836 88.6219L142.082 88.558C142.112 100.149 141.95 108.04 141.595 112.229C141.472 113.681 137.912 114.195 130.916 113.771Z" fill="url(#paint2_linear_68_28610)"/>
<path d="M92.1596 117.806C92.0475 119.431 91.1786 120.553 89.553 121.169C87.9834 121.786 85.1245 122.094 80.9763 122.094C76.8282 122.094 73.3527 121.73 70.5498 121.001C67.8031 120.216 66.4297 119.235 66.4297 118.058C66.4297 116.713 68.9242 108.136 73.9132 92.3285C78.9022 76.4648 81.7611 67.3277 82.4899 64.9173C82.7701 64.1886 85.0124 63.6 89.2166 63.1515C93.4769 62.647 98.0175 62.3948 102.838 62.3948C107.715 62.3948 110.406 63.2356 110.91 64.9173C121.505 100.12 126.802 118.002 126.802 118.563C126.802 119.123 126.466 119.684 125.793 120.244C124.224 121.477 121.113 122.094 116.46 122.094C106.538 122.094 101.465 120.917 101.241 118.563L100.652 113.097H92.58L92.1596 117.806ZM98.8864 97.1213L97.6251 81.9862H95.7752L94.3458 97.1213H98.8864Z" fill="#AA421C"/>
<path d="M92.1596 111.325C92.0475 112.951 91.1786 114.072 89.553 114.689C87.9834 115.305 85.1245 115.614 80.9763 115.614C76.8282 115.614 73.3527 115.249 70.5498 114.521C67.8031 113.736 66.4297 112.755 66.4297 111.578C66.4297 110.232 68.9242 101.656 73.9132 85.848C78.9022 69.9843 81.7611 60.8472 82.4899 58.4368C82.7701 57.7081 85.0124 57.1195 89.2166 56.6711C93.4769 56.1666 98.0175 55.9143 102.838 55.9143C107.715 55.9143 110.406 56.7551 110.91 58.4368C121.505 93.6398 126.802 111.522 126.802 112.082C126.802 112.643 126.466 113.203 125.793 113.764C124.224 114.997 121.113 115.614 116.46 115.614C106.538 115.614 101.465 114.436 101.241 112.082L100.652 106.617H92.58L92.1596 111.325ZM98.8864 90.6408L97.6251 75.5058H95.7752L94.3458 90.6408H98.8864Z" fill="#FFF8A7"/>
<path d="M91.642 111.583C91.5299 113.209 90.661 114.33 89.0354 114.946C87.4658 115.563 84.6069 115.871 80.4588 115.871C76.3106 115.871 72.8351 115.507 70.0323 114.778C67.2855 113.994 65.9121 113.013 65.9121 111.835C65.9121 110.49 68.4066 101.914 73.3956 86.1059C78.3847 70.2421 81.2435 61.105 81.9723 58.6946C82.2526 57.9659 84.4948 57.3773 88.6991 56.9289C92.9593 56.4244 97.4999 56.1721 102.321 56.1721C107.198 56.1721 109.888 57.013 110.393 58.6946C120.988 93.8976 126.285 111.779 126.285 112.34C126.285 112.9 125.949 113.461 125.276 114.022C123.706 115.255 120.595 115.871 115.942 115.871C106.02 115.871 100.947 114.694 100.723 112.34L100.135 106.874H92.0624L91.642 111.583ZM98.3688 90.8986L97.1075 75.7636H95.2577L93.8282 90.8986H98.3688Z" fill="url(#paint3_linear_68_28610)"/>
<path d="M179.449 113.783C178.516 115.857 180.875 116.894 182.171 117.153L183.078 123.503C183.726 123.287 185.048 122.752 185.152 122.337C185.256 121.922 185.541 118.363 185.67 116.635L183.467 106.785C182.517 108.254 180.382 111.71 179.449 113.783Z" fill="black" fill-opacity="0.3"/>
<path d="M73.3056 115.076L70.0656 98.6172L69.0288 101.339L66.5664 118.316C66.8774 120.286 69.9792 121.038 71.4912 121.167L73.3056 115.076Z" fill="black" fill-opacity="0.3"/>
<path d="M225.154 120.734C223.326 121.738 220.857 122.461 217.747 122.903C214.699 123.295 210.813 123.183 206.088 122.565C201.419 121.954 197.024 120.983 192.901 119.653C188.778 118.322 185.862 117.064 184.151 115.879C182.441 114.695 181.643 113.658 181.76 112.768C182.167 109.656 183.033 106.49 184.359 103.271C185.692 99.9972 186.969 98.4401 188.192 98.6C188.415 98.6291 190.623 99.6812 194.818 101.756C199.013 103.831 202.222 105.014 204.445 105.305C206.668 105.596 208.143 105.563 208.868 105.205C209.6 104.792 210.025 104.141 210.141 103.252C210.257 102.362 209.748 101.504 208.612 100.677C207.484 99.7948 206.035 98.9835 204.266 98.2433C202.505 97.4476 200.606 96.4077 198.569 95.1237C196.587 93.8469 194.76 92.4772 193.085 91.0145C191.411 89.5517 190.108 87.6288 189.176 85.2455C188.251 82.8067 187.978 80.1422 188.356 77.2519C189.97 64.9126 198.142 59.7063 212.871 61.633C218.374 62.3527 223.079 63.3356 226.986 64.5817C230.901 65.7721 233.606 66.9174 235.102 68.0176C236.66 69.0694 237.385 70.0122 237.276 70.8459C236.898 73.7362 235.796 76.7579 233.97 79.9111C232.2 83.0715 230.676 84.5682 229.397 84.4009C229.175 84.3719 228.485 84.0272 227.328 83.367C223.87 81.2753 220.918 80.0695 218.473 79.7496C216.083 79.437 214.414 79.4448 213.466 79.7732C212.574 80.1088 212.067 80.749 211.943 81.6939C211.827 82.5832 212.34 83.4136 213.483 84.1849C214.633 84.9007 216.065 85.625 217.778 86.3579C219.554 87.0425 221.433 88.0232 223.414 89.2999C225.458 90.5283 227.31 91.9295 228.97 93.5034C230.637 95.0217 231.925 97.0559 232.836 99.6059C233.746 102.156 233.994 105.015 233.579 108.183C233.143 111.518 231.885 114.435 229.806 116.933C228.532 118.462 226.981 119.729 225.154 120.734Z" fill="#AA421C"/>
<path d="M225.993 114.308C224.166 115.313 221.697 116.036 218.586 116.477C215.539 116.87 211.653 116.757 206.928 116.139C202.259 115.529 197.863 114.558 193.741 113.227C189.618 111.896 186.702 110.639 184.991 109.454C183.28 108.269 182.483 107.232 182.6 106.343C183.007 103.23 183.873 100.064 185.199 96.8459C186.532 93.5717 187.809 92.0145 189.032 92.1745C189.254 92.2036 191.463 93.2557 195.658 95.3307C199.853 97.4058 203.062 98.5887 205.285 98.8796C207.508 99.1704 208.982 99.1371 209.708 98.7797C210.44 98.3667 210.864 97.7155 210.981 96.8262C211.097 95.9369 210.587 95.0788 209.452 94.2518C208.324 93.3693 206.875 92.558 205.106 91.8178C203.345 91.0221 201.445 89.9822 199.409 88.6982C197.427 87.4214 195.6 86.0517 193.925 84.5889C192.251 83.1262 190.948 81.2032 190.016 78.82C189.091 76.3812 188.818 73.7166 189.196 70.8263C190.81 58.4871 198.982 53.2808 213.711 55.2074C219.214 55.9272 223.919 56.9101 227.826 58.1561C231.741 59.3466 234.446 60.4919 235.942 61.592C237.5 62.6439 238.225 63.5867 238.116 64.4204C237.738 67.3107 236.636 70.3324 234.81 73.4856C233.04 76.646 231.516 78.1426 230.237 77.9754C230.015 77.9463 229.325 77.6017 228.168 76.9415C224.71 74.8498 221.758 73.644 219.313 73.3241C216.923 73.0114 215.254 73.0193 214.306 73.3476C213.414 73.6832 212.907 74.3235 212.783 75.2684C212.667 76.1577 213.18 76.988 214.323 77.7594C215.473 78.4752 216.905 79.1995 218.618 79.9324C220.394 80.617 222.273 81.5976 224.254 82.8744C226.298 84.1028 228.15 85.504 229.81 87.0779C231.477 88.5962 232.765 90.6303 233.675 93.1803C234.586 95.7303 234.834 98.5894 234.419 101.758C233.983 105.092 232.725 108.009 230.646 110.507C229.372 112.037 227.821 113.304 225.993 114.308Z" fill="#FFF8A7"/>
<path d="M225.476 114.308C223.648 115.313 221.179 116.036 218.069 116.477C215.021 116.87 211.135 116.757 206.41 116.139C201.742 115.529 197.346 114.558 193.223 113.227C189.101 111.896 186.184 110.639 184.474 109.454C182.763 108.269 181.966 107.232 182.082 106.343C182.489 103.23 183.356 100.064 184.681 96.8459C186.014 93.5717 187.292 92.0145 188.515 92.1745C188.737 92.2036 190.945 93.2557 195.14 95.3307C199.335 97.4058 202.544 98.5887 204.767 98.8796C206.991 99.1704 208.465 99.1371 209.19 98.7797C209.922 98.3667 210.347 97.7155 210.463 96.8262C210.579 95.9369 210.07 95.0788 208.934 94.2518C207.806 93.3693 206.357 92.558 204.589 91.8178C202.827 91.0221 200.928 89.9822 198.891 88.6982C196.91 87.4214 195.082 86.0517 193.408 84.5889C191.733 83.1262 190.43 81.2032 189.498 78.82C188.573 76.3812 188.3 73.7166 188.678 70.8263C190.292 58.4871 198.464 53.2808 213.193 55.2074C218.696 55.9272 223.401 56.9101 227.309 58.1561C231.223 59.3466 233.929 60.4919 235.424 61.592C236.983 62.6439 237.707 63.5867 237.598 64.4204C237.22 67.3107 236.118 70.3324 234.292 73.4856C232.522 76.646 230.998 78.1426 229.72 77.9754C229.497 77.9463 228.807 77.6017 227.65 76.9415C224.192 74.8498 221.241 73.644 218.795 73.3241C216.405 73.0114 214.736 73.0193 213.789 73.3476C212.897 73.6832 212.389 74.3235 212.265 75.2684C212.149 76.1577 212.662 76.988 213.805 77.7594C214.955 78.4752 216.387 79.1995 218.1 79.9324C219.876 80.617 221.755 81.5976 223.736 82.8744C225.78 84.1028 227.632 85.504 229.292 87.0779C230.959 88.5962 232.248 90.6303 233.158 93.1803C234.068 95.7303 234.316 98.5894 233.902 101.758C233.465 105.092 232.208 108.009 230.128 110.507C228.854 112.037 227.303 113.304 225.476 114.308Z" fill="url(#paint4_linear_68_28610)"/>
<path d="M39.8981 119.85C39.9538 120.576 38.2941 121.294 34.919 122.003C31.5998 122.707 28.2075 123.192 24.7422 123.458C21.3328 123.719 19.11 123.693 18.074 123.379C17.0938 123.061 16.5715 122.482 16.5072 121.644L12.5515 70.0843C12.4443 68.687 13.9687 67.3051 17.1246 65.9386C20.2763 64.5161 23.7525 63.6591 27.5532 63.3675C32.863 62.9602 35.6143 64.0141 35.8073 66.5292L37.2223 84.9733L44.6839 84.4009L43.404 67.7173C43.2968 66.32 44.8211 64.9381 47.9771 63.5716C51.1847 62.1449 54.6888 61.2857 58.4895 60.9941C63.7434 60.591 66.4668 61.6471 66.6598 64.1622L70.7506 117.483C70.8063 118.209 69.1466 118.927 65.7715 119.636C62.3964 120.344 59.0041 120.829 55.5947 121.091C52.1853 121.353 49.9625 121.326 48.9265 121.012C47.9463 120.694 47.424 120.116 47.3597 119.277L45.8867 100.078L38.4251 100.651L39.8981 119.85Z" fill="#AA421C"/>
<path d="M39.4 113.389C39.4558 114.115 37.7961 114.833 34.421 115.542C31.1018 116.246 27.7095 116.731 24.2442 116.997C20.8347 117.259 18.612 117.232 17.5759 116.918C16.5957 116.6 16.0735 116.022 16.0092 115.183L12.0534 63.6233C11.9462 62.2261 13.4706 60.8441 16.6266 59.4776C19.7783 58.0552 23.2545 57.1982 27.0551 56.9066C32.3649 56.4992 35.1163 57.5531 35.3092 60.0682L36.7243 78.5124L44.1859 77.94L42.9059 61.2564C42.7987 59.8591 44.3231 58.4772 47.4791 57.1106C50.6867 55.6839 54.1908 54.8248 57.9915 54.5332C63.2453 54.1301 65.9687 55.1861 66.1617 57.7012L70.2525 111.022C70.3083 111.748 68.6486 112.466 65.2735 113.175C61.8983 113.883 58.5061 114.368 55.0967 114.63C51.6872 114.892 49.4645 114.865 48.4284 114.551C47.4482 114.233 46.926 113.655 46.8616 112.816L45.3887 93.6175L37.9271 94.1899L39.4 113.389Z" fill="#FFF8A7"/>
<path d="M38.6227 112.873C38.6784 113.6 37.0188 114.317 33.6436 115.026C30.3244 115.73 26.9321 116.216 23.4668 116.481C20.0574 116.743 17.8347 116.717 16.7986 116.403C15.8184 116.084 15.2961 115.506 15.2318 114.668L11.2761 63.1077C11.1689 61.7104 12.6933 60.3285 15.8493 58.962C19.001 57.5396 22.4771 56.6826 26.2778 56.391C31.5876 55.9836 34.3389 57.0375 34.5319 59.5526L35.9469 77.9968L43.4086 77.4243L42.1286 60.7407C42.0214 59.3434 43.5458 57.9615 46.7017 56.595C49.9093 55.1683 53.4135 54.3091 57.2141 54.0176C62.468 53.6145 65.1914 54.6705 65.3844 57.1856L69.4752 110.506C69.5309 111.233 67.8712 111.95 64.4961 112.659C61.121 113.368 57.7287 113.853 54.3193 114.114C50.9099 114.376 48.6871 114.35 47.6511 114.036C46.6709 113.717 46.1486 113.139 46.0843 112.301L44.6114 93.1019L37.1497 93.6743L38.6227 112.873Z" fill="url(#paint5_linear_68_28610)"/>
<path d="M277.437 138.352C277.344 139.806 277.259 141.245 277.182 142.668C277.104 144.091 277.004 145.53 276.88 146.984L267.041 147.495L266.809 150.419H273.724L273.213 157.612L266.252 157.844L266.02 161.232H271.775H275.859C275.766 162.934 275.665 164.628 275.557 166.314C275.464 167.985 275.379 169.663 275.302 171.35L255.299 171.814L256.041 138.352H277.437Z" fill="#150C24"/>
<path d="M254.184 138.633L253.952 148.472L247.036 148.751L245.273 170.749L235.48 171.26L235.527 149.261L228.611 149.632L228.89 138.679L254.184 138.633Z" fill="#150C24"/>
<path d="M227.899 138.684L227.667 148.523L220.751 148.801L218.988 170.8L209.195 171.31L209.241 149.312L202.326 149.683L202.605 138.73L227.899 138.684Z" fill="#150C24"/>
<path d="M202.527 138.352C202.434 139.806 202.349 141.245 202.271 142.668C202.194 144.091 202.094 145.53 201.97 146.984L192.131 147.495L191.899 150.419H198.814L198.303 157.612L191.342 157.844L191.11 161.232H196.865H200.949C200.856 162.934 200.755 164.628 200.647 166.314C200.554 167.985 200.469 169.663 200.392 171.35L180.389 171.814L181.131 138.352H202.527Z" fill="#150C24"/>
<path d="M179.459 158.589L178.484 168.892L158.945 170.424C159.038 165.025 159.139 159.657 159.247 154.319C159.371 148.982 159.518 143.614 159.688 138.215H171.755C171.399 141.603 171.059 144.991 170.734 148.379C170.409 151.751 170.177 155.155 170.038 158.589C170.765 158.62 171.484 158.636 172.196 158.636C172.907 158.636 173.627 158.636 174.354 158.636C175.22 158.636 176.071 158.628 176.906 158.612C177.742 158.597 178.593 158.589 179.459 158.589Z" fill="#150C24"/>
<path d="M157.205 146.013C157.205 147.158 157.15 148.419 157.042 149.796C156.934 151.173 156.756 152.596 156.508 154.066C156.261 155.535 155.936 157.028 155.534 158.544C155.147 160.045 154.66 161.491 154.072 162.883C153.484 164.276 152.796 165.583 152.007 166.805C151.233 168.012 150.336 169.072 149.315 169.984C148.309 170.882 147.18 171.585 145.927 172.096C144.674 172.622 143.281 172.885 141.75 172.885C139.955 172.885 138.393 172.591 137.062 172.003C135.747 171.431 134.618 170.657 133.674 169.683C132.731 168.693 131.957 167.548 131.354 166.248C130.75 164.933 130.279 163.549 129.938 162.095C129.598 160.625 129.358 159.132 129.219 157.616C129.095 156.084 129.033 154.615 129.033 153.207C129.033 151.041 129.141 148.883 129.358 146.733C129.575 144.567 129.884 142.409 130.286 140.258L141.146 140.676C140.729 143.105 140.365 145.549 140.056 148.009C139.762 150.453 139.615 152.913 139.615 155.388C139.615 155.651 139.623 156.046 139.638 156.572C139.669 157.082 139.715 157.662 139.777 158.312C139.839 158.946 139.924 159.604 140.033 160.285C140.156 160.95 140.319 161.561 140.52 162.118C140.721 162.675 140.961 163.131 141.239 163.487C141.533 163.843 141.874 164.021 142.26 164.021C142.709 164.021 143.111 163.812 143.467 163.394C143.823 162.961 144.132 162.388 144.395 161.677C144.674 160.965 144.913 160.145 145.115 159.217C145.316 158.289 145.486 157.322 145.625 156.316C145.764 155.311 145.873 154.305 145.95 153.3C146.043 152.294 146.112 151.358 146.159 150.492C146.221 149.626 146.259 148.86 146.275 148.195C146.29 147.529 146.298 147.034 146.298 146.709C146.298 145.503 146.275 144.304 146.228 143.113C146.197 141.906 146.143 140.707 146.066 139.516H156.926C157.112 141.651 157.205 143.817 157.205 146.013Z" fill="#150C24"/>
<path d="M127.828 155.434C127.828 156.841 127.666 158.203 127.341 159.518C127.016 160.817 126.544 162.039 125.925 163.184C125.322 164.329 124.58 165.381 123.698 166.34C122.831 167.284 121.849 168.096 120.751 168.777C119.668 169.457 118.484 169.991 117.2 170.378C115.916 170.749 114.555 170.935 113.116 170.935C111.724 170.935 110.393 170.757 109.125 170.401C107.872 170.045 106.696 169.55 105.598 168.916C104.499 168.266 103.501 167.493 102.604 166.595C101.722 165.683 100.964 164.677 100.33 163.579C99.7111 162.465 99.2238 161.274 98.8679 160.005C98.5276 158.736 98.3574 157.414 98.3574 156.037C98.3574 154.691 98.5199 153.376 98.8447 152.092C99.1696 150.793 99.6337 149.57 100.237 148.426C100.856 147.281 101.598 146.229 102.465 145.27C103.331 144.311 104.298 143.483 105.365 142.787C106.448 142.091 107.616 141.549 108.869 141.162C110.123 140.776 111.445 140.582 112.838 140.582C115.081 140.582 117.123 140.93 118.964 141.627C120.82 142.323 122.398 143.32 123.698 144.62C125.013 145.904 126.026 147.466 126.738 149.307C127.465 151.133 127.828 153.175 127.828 155.434ZM117.525 156.037C117.525 155.372 117.425 154.73 117.223 154.111C117.038 153.477 116.759 152.92 116.388 152.44C116.017 151.945 115.553 151.551 114.996 151.257C114.454 150.947 113.828 150.793 113.116 150.793C112.389 150.793 111.739 150.924 111.167 151.187C110.594 151.45 110.099 151.814 109.682 152.278C109.279 152.726 108.97 153.26 108.753 153.879C108.537 154.482 108.429 155.124 108.429 155.805C108.429 156.455 108.521 157.104 108.707 157.754C108.893 158.404 109.171 158.992 109.542 159.518C109.914 160.044 110.37 160.469 110.912 160.794C111.468 161.119 112.111 161.281 112.838 161.281C113.565 161.281 114.214 161.142 114.787 160.864C115.375 160.57 115.87 160.183 116.272 159.703C116.674 159.208 116.984 158.644 117.2 158.009C117.417 157.375 117.525 156.718 117.525 156.037Z" fill="#150C24"/>
<path d="M97.8473 149.446C97.8473 150.653 97.739 151.751 97.5224 152.741C97.3213 153.716 96.9964 154.613 96.5478 155.433C96.0991 156.253 95.519 157.011 94.8074 157.707C94.0957 158.403 93.2371 159.069 92.2316 159.703L97.7544 169.542L87.312 171.584L83.7384 161.698L80.8609 161.791L80.4432 171.445H70.4648C70.5422 167.917 70.6118 164.406 70.6737 160.909C70.751 157.413 70.8361 153.902 70.929 150.374C70.9599 148.595 70.9908 146.832 71.0218 145.084C71.0527 143.335 71.1146 141.572 71.2074 139.793C72.2903 139.391 73.3578 139.058 74.4098 138.795C75.4618 138.532 76.5137 138.331 77.5657 138.192C78.6332 138.037 79.7083 137.936 80.7913 137.89C81.8897 137.828 83.0113 137.797 84.1561 137.797C85.9197 137.797 87.6214 138.045 89.2613 138.54C90.9166 139.019 92.3785 139.746 93.6471 140.721C94.9156 141.696 95.929 142.91 96.687 144.364C97.4605 145.818 97.8473 147.512 97.8473 149.446ZM87.4512 150.189C87.4512 149.539 87.3584 148.943 87.1728 148.402C87.0026 147.86 86.7396 147.396 86.3838 147.01C86.0434 146.607 85.6103 146.298 85.0843 146.081C84.5738 145.849 83.9704 145.733 83.2742 145.733C82.9648 145.733 82.6632 145.756 82.3692 145.803C82.0753 145.834 81.7891 145.888 81.5106 145.965L81.1393 154.598H81.6963C82.3615 154.598 83.0345 154.513 83.7152 154.342C84.4113 154.172 85.0301 153.909 85.5716 153.553C86.1285 153.198 86.5772 152.741 86.9175 152.184C87.2733 151.627 87.4512 150.962 87.4512 150.189Z" fill="#150C24"/>
<path d="M277.437 133.828C277.344 135.283 277.259 136.721 277.182 138.145C277.104 139.568 277.004 141.007 276.88 142.461L267.041 142.971L266.809 145.895H273.724L273.213 153.089L266.252 153.321L266.02 156.709H271.775H275.859C275.766 158.41 275.665 160.104 275.557 161.791C275.464 163.461 275.379 165.14 275.302 166.826L255.299 167.29L256.041 133.828H277.437Z" fill="#F29D01"/>
<path d="M254.184 134.11L253.952 143.949L247.036 144.227L245.273 166.226L235.48 166.736L235.527 144.738L228.611 145.109L228.89 134.156L254.184 134.11Z" fill="#F29D01"/>
<path d="M227.899 134.16L227.667 143.999L220.751 144.278L218.988 166.276L209.195 166.787L209.241 144.788L202.326 145.16L202.605 134.207L227.899 134.16Z" fill="#F29D01"/>
<path d="M202.527 133.828C202.434 135.283 202.349 136.721 202.271 138.145C202.194 139.568 202.094 141.007 201.97 142.461L192.131 142.971L191.899 145.895H198.814L198.303 153.089L191.342 153.321L191.11 156.709H196.865H200.949C200.856 158.41 200.755 160.104 200.647 161.791C200.554 163.461 200.469 165.14 200.392 166.826L180.389 167.29L181.131 133.828H202.527Z" fill="#F29D01"/>
<path d="M179.459 154.066L178.484 164.369L158.945 165.9C159.038 160.501 159.139 155.133 159.247 149.796C159.371 144.459 159.518 139.091 159.688 133.692H171.755C171.399 137.08 171.059 140.468 170.734 143.856C170.409 147.228 170.177 150.631 170.038 154.066C170.765 154.097 171.484 154.112 172.196 154.112C172.907 154.112 173.627 154.112 174.354 154.112C175.22 154.112 176.071 154.104 176.906 154.089C177.742 154.074 178.593 154.066 179.459 154.066Z" fill="#F29D01"/>
<path d="M157.205 141.49C157.205 142.635 157.15 143.895 157.042 145.272C156.934 146.649 156.756 148.072 156.508 149.542C156.261 151.012 155.936 152.505 155.534 154.021C155.147 155.521 154.66 156.968 154.072 158.36C153.484 159.752 152.796 161.06 152.007 162.282C151.233 163.488 150.336 164.548 149.315 165.461C148.309 166.358 147.18 167.062 145.927 167.573C144.674 168.099 143.281 168.361 141.75 168.361C139.955 168.361 138.393 168.068 137.062 167.48C135.747 166.907 134.618 166.134 133.674 165.159C132.731 164.169 131.957 163.024 131.354 161.725C130.75 160.41 130.279 159.025 129.938 157.571C129.598 156.101 129.358 154.609 129.219 153.092C129.095 151.561 129.033 150.091 129.033 148.683C129.033 146.518 129.141 144.36 129.358 142.209C129.575 140.043 129.884 137.885 130.286 135.735L141.146 136.153C140.729 138.582 140.365 141.026 140.056 143.486C139.762 145.93 139.615 148.39 139.615 150.865C139.615 151.128 139.623 151.522 139.638 152.048C139.669 152.559 139.715 153.139 139.777 153.789C139.839 154.423 139.924 155.08 140.033 155.761C140.156 156.426 140.319 157.037 140.52 157.594C140.721 158.151 140.961 158.608 141.239 158.963C141.533 159.319 141.874 159.497 142.26 159.497C142.709 159.497 143.111 159.288 143.467 158.871C143.823 158.437 144.132 157.865 144.395 157.153C144.674 156.442 144.913 155.622 145.115 154.694C145.316 153.765 145.486 152.799 145.625 151.793C145.764 150.787 145.873 149.782 145.95 148.776C146.043 147.771 146.112 146.835 146.159 145.968C146.221 145.102 146.259 144.336 146.275 143.671C146.29 143.006 146.298 142.511 146.298 142.186C146.298 140.979 146.275 139.78 146.228 138.589C146.197 137.383 146.143 136.184 146.066 134.992H156.926C157.112 137.127 157.205 139.293 157.205 141.49Z" fill="#F29D01"/>
<path d="M127.828 150.91C127.828 152.318 127.666 153.679 127.341 154.994C127.016 156.294 126.544 157.516 125.925 158.661C125.322 159.805 124.58 160.857 123.698 161.817C122.831 162.76 121.849 163.572 120.751 164.253C119.668 164.934 118.484 165.468 117.2 165.854C115.916 166.226 114.555 166.411 113.116 166.411C111.724 166.411 110.393 166.233 109.125 165.878C107.872 165.522 106.696 165.027 105.598 164.392C104.499 163.743 103.501 162.969 102.604 162.072C101.722 161.159 100.964 160.154 100.33 159.055C99.7111 157.941 99.2238 156.75 98.8679 155.482C98.5276 154.213 98.3574 152.89 98.3574 151.513C98.3574 150.168 98.5199 148.853 98.8447 147.569C99.1696 146.269 99.6337 145.047 100.237 143.902C100.856 142.757 101.598 141.705 102.465 140.746C103.331 139.787 104.298 138.959 105.365 138.263C106.448 137.567 107.616 137.026 108.869 136.639C110.123 136.252 111.445 136.059 112.838 136.059C115.081 136.059 117.123 136.407 118.964 137.103C120.82 137.799 122.398 138.797 123.698 140.097C125.013 141.381 126.026 142.943 126.738 144.784C127.465 146.609 127.828 148.652 127.828 150.91ZM117.525 151.513C117.525 150.848 117.425 150.206 117.223 149.587C117.038 148.953 116.759 148.396 116.388 147.917C116.017 147.422 115.553 147.027 114.996 146.733C114.454 146.424 113.828 146.269 113.116 146.269C112.389 146.269 111.739 146.401 111.167 146.664C110.594 146.927 110.099 147.29 109.682 147.754C109.279 148.203 108.97 148.737 108.753 149.355C108.537 149.959 108.429 150.601 108.429 151.281C108.429 151.931 108.521 152.581 108.707 153.231C108.893 153.88 109.171 154.468 109.542 154.994C109.914 155.52 110.37 155.946 110.912 156.271C111.468 156.595 112.111 156.758 112.838 156.758C113.565 156.758 114.214 156.619 114.787 156.34C115.375 156.046 115.87 155.659 116.272 155.18C116.674 154.685 116.984 154.12 117.2 153.486C117.417 152.852 117.525 152.194 117.525 151.513Z" fill="#F29D01"/>
<path d="M97.8473 144.923C97.8473 146.129 97.739 147.228 97.5224 148.218C97.3213 149.192 96.9964 150.09 96.5478 150.91C96.0991 151.73 95.519 152.488 94.8074 153.184C94.0957 153.88 93.2371 154.545 92.2316 155.179L97.7544 165.018L87.312 167.06L83.7384 157.175L80.8609 157.268L80.4432 166.921H70.4648C70.5422 163.394 70.6118 159.882 70.6737 156.386C70.751 152.89 70.8361 149.378 70.929 145.851C70.9599 144.072 70.9908 142.308 71.0218 140.56C71.0527 138.812 71.1146 137.048 71.2074 135.269C72.2903 134.867 73.3578 134.534 74.4098 134.272C75.4618 134.009 76.5137 133.807 77.5657 133.668C78.6332 133.513 79.7083 133.413 80.7913 133.367C81.8897 133.305 83.0113 133.274 84.1561 133.274C85.9197 133.274 87.6214 133.521 89.2613 134.016C90.9166 134.496 92.3785 135.223 93.6471 136.198C94.9156 137.172 95.929 138.387 96.687 139.841C97.4605 141.295 97.8473 142.989 97.8473 144.923ZM87.4512 145.665C87.4512 145.016 87.3584 144.42 87.1728 143.878C87.0026 143.337 86.7396 142.873 86.3838 142.486C86.0434 142.084 85.6103 141.775 85.0843 141.558C84.5738 141.326 83.9704 141.21 83.2742 141.21C82.9648 141.21 82.6632 141.233 82.3692 141.279C82.0753 141.31 81.7891 141.365 81.5106 141.442L81.1393 150.074H81.6963C82.3615 150.074 83.0345 149.989 83.7152 149.819C84.4113 149.649 85.0301 149.386 85.5716 149.03C86.1285 148.674 86.5772 148.218 86.9175 147.661C87.2733 147.104 87.4512 146.439 87.4512 145.665Z" fill="#F29D01"/>
<path d="M277.437 132.352C277.344 133.806 277.259 135.245 277.182 136.668C277.104 138.091 277.004 139.53 276.88 140.984L267.041 141.495L266.809 144.419H273.724L273.213 151.612L266.252 151.844L266.02 155.232H271.775H275.859C275.766 156.934 275.665 158.628 275.557 160.314C275.464 161.985 275.379 163.663 275.302 165.35L255.299 165.814L256.041 132.352H277.437Z" fill="url(#paint6_linear_68_28610)"/>
<path d="M254.184 132.633L253.952 142.472L247.036 142.751L245.273 164.749L235.48 165.26L235.527 143.261L228.611 143.632L228.89 132.679L254.184 132.633Z" fill="url(#paint7_linear_68_28610)"/>
<path d="M227.899 132.684L227.667 142.523L220.751 142.801L218.988 164.8L209.195 165.31L209.241 143.312L202.326 143.683L202.605 132.73L227.899 132.684Z" fill="url(#paint8_linear_68_28610)"/>
<path d="M202.527 132.352C202.434 133.806 202.349 135.245 202.271 136.668C202.194 138.091 202.094 139.53 201.97 140.984L192.131 141.495L191.899 144.419H198.814L198.303 151.612L191.342 151.844L191.11 155.232H196.865H200.949C200.856 156.934 200.755 158.628 200.647 160.314C200.554 161.985 200.469 163.663 200.392 165.35L180.389 165.814L181.131 132.352H202.527Z" fill="url(#paint9_linear_68_28610)"/>
<path d="M179.459 152.589L178.484 162.892L158.945 164.424C159.038 159.025 159.139 153.657 159.247 148.319C159.371 142.982 159.518 137.614 159.688 132.215H171.755C171.399 135.603 171.059 138.991 170.734 142.379C170.409 145.751 170.177 149.155 170.038 152.589C170.765 152.62 171.484 152.636 172.196 152.636C172.907 152.636 173.627 152.636 174.354 152.636C175.22 152.636 176.071 152.628 176.906 152.612C177.742 152.597 178.593 152.589 179.459 152.589Z" fill="url(#paint10_linear_68_28610)"/>
<path d="M157.205 140.013C157.205 141.158 157.15 142.419 157.042 143.796C156.934 145.173 156.756 146.596 156.508 148.066C156.261 149.535 155.936 151.028 155.534 152.544C155.147 154.045 154.66 155.491 154.072 156.883C153.484 158.276 152.796 159.583 152.007 160.805C151.233 162.012 150.336 163.072 149.315 163.984C148.309 164.882 147.18 165.585 145.927 166.096C144.674 166.622 143.281 166.885 141.75 166.885C139.955 166.885 138.393 166.591 137.062 166.003C135.747 165.431 134.618 164.657 133.674 163.683C132.731 162.693 131.957 161.548 131.354 160.248C130.75 158.933 130.279 157.549 129.938 156.095C129.598 154.625 129.358 153.132 129.219 151.616C129.095 150.084 129.033 148.615 129.033 147.207C129.033 145.041 129.141 142.883 129.358 140.733C129.575 138.567 129.884 136.409 130.286 134.258L141.146 134.676C140.729 137.105 140.365 139.549 140.056 142.009C139.762 144.453 139.615 146.913 139.615 149.388C139.615 149.651 139.623 150.046 139.638 150.572C139.669 151.082 139.715 151.662 139.777 152.312C139.839 152.946 139.924 153.604 140.033 154.285C140.156 154.95 140.319 155.561 140.52 156.118C140.721 156.675 140.961 157.131 141.239 157.487C141.533 157.843 141.874 158.021 142.26 158.021C142.709 158.021 143.111 157.812 143.467 157.394C143.823 156.961 144.132 156.388 144.395 155.677C144.674 154.965 144.913 154.145 145.115 153.217C145.316 152.289 145.486 151.322 145.625 150.316C145.764 149.311 145.873 148.305 145.95 147.3C146.043 146.294 146.112 145.358 146.159 144.492C146.221 143.626 146.259 142.86 146.275 142.195C146.29 141.529 146.298 141.034 146.298 140.709C146.298 139.503 146.275 138.304 146.228 137.113C146.197 135.906 146.143 134.707 146.066 133.516H156.926C157.112 135.651 157.205 137.817 157.205 140.013Z" fill="url(#paint11_linear_68_28610)"/>
<path d="M127.828 149.434C127.828 150.841 127.666 152.203 127.341 153.518C127.016 154.817 126.544 156.039 125.925 157.184C125.322 158.329 124.58 159.381 123.698 160.34C122.831 161.284 121.849 162.096 120.751 162.777C119.668 163.457 118.484 163.991 117.2 164.378C115.916 164.749 114.555 164.935 113.116 164.935C111.724 164.935 110.393 164.757 109.125 164.401C107.872 164.045 106.696 163.55 105.598 162.916C104.499 162.266 103.501 161.493 102.604 160.595C101.722 159.683 100.964 158.677 100.33 157.579C99.7111 156.465 99.2238 155.274 98.8679 154.005C98.5276 152.736 98.3574 151.414 98.3574 150.037C98.3574 148.691 98.5199 147.376 98.8447 146.092C99.1696 144.793 99.6337 143.57 100.237 142.426C100.856 141.281 101.598 140.229 102.465 139.27C103.331 138.311 104.298 137.483 105.365 136.787C106.448 136.091 107.616 135.549 108.869 135.162C110.123 134.776 111.445 134.582 112.838 134.582C115.081 134.582 117.123 134.93 118.964 135.627C120.82 136.323 122.398 137.32 123.698 138.62C125.013 139.904 126.026 141.466 126.738 143.307C127.465 145.133 127.828 147.175 127.828 149.434ZM117.525 150.037C117.525 149.372 117.425 148.73 117.223 148.111C117.038 147.477 116.759 146.92 116.388 146.44C116.017 145.945 115.553 145.551 114.996 145.257C114.454 144.947 113.828 144.793 113.116 144.793C112.389 144.793 111.739 144.924 111.167 145.187C110.594 145.45 110.099 145.814 109.682 146.278C109.279 146.726 108.97 147.26 108.753 147.879C108.537 148.482 108.429 149.124 108.429 149.805C108.429 150.455 108.521 151.104 108.707 151.754C108.893 152.404 109.171 152.992 109.542 153.518C109.914 154.044 110.37 154.469 110.912 154.794C111.468 155.119 112.111 155.281 112.838 155.281C113.565 155.281 114.214 155.142 114.787 154.864C115.375 154.57 115.87 154.183 116.272 153.703C116.674 153.208 116.984 152.644 117.2 152.009C117.417 151.375 117.525 150.718 117.525 150.037Z" fill="url(#paint12_linear_68_28610)"/>
<path d="M97.8473 143.446C97.8473 144.653 97.739 145.751 97.5224 146.741C97.3213 147.716 96.9964 148.613 96.5478 149.433C96.0991 150.253 95.519 151.011 94.8074 151.707C94.0957 152.403 93.2371 153.069 92.2316 153.703L97.7544 163.542L87.312 165.584L83.7384 155.698L80.8609 155.791L80.4432 165.445H70.4648C70.5422 161.917 70.6118 158.406 70.6737 154.909C70.751 151.413 70.8361 147.902 70.929 144.374C70.9599 142.595 70.9908 140.832 71.0218 139.084C71.0527 137.335 71.1146 135.572 71.2074 133.793C72.2903 133.391 73.3578 133.058 74.4098 132.795C75.4618 132.532 76.5137 132.331 77.5657 132.192C78.6332 132.037 79.7083 131.936 80.7913 131.89C81.8897 131.828 83.0113 131.797 84.1561 131.797C85.9197 131.797 87.6214 132.045 89.2613 132.54C90.9166 133.019 92.3785 133.746 93.6471 134.721C94.9156 135.696 95.929 136.91 96.687 138.364C97.4605 139.818 97.8473 141.512 97.8473 143.446ZM87.4512 144.189C87.4512 143.539 87.3584 142.943 87.1728 142.402C87.0026 141.86 86.7396 141.396 86.3838 141.01C86.0434 140.607 85.6103 140.298 85.0843 140.081C84.5738 139.849 83.9704 139.733 83.2742 139.733C82.9648 139.733 82.6632 139.756 82.3692 139.803C82.0753 139.834 81.7891 139.888 81.5106 139.965L81.1393 148.598H81.6963C82.3615 148.598 83.0345 148.513 83.7152 148.342C84.4113 148.172 85.0301 147.909 85.5716 147.553C86.1285 147.198 86.5772 146.741 86.9175 146.184C87.2733 145.627 87.4512 144.962 87.4512 144.189Z" fill="url(#paint13_linear_68_28610)"/>
<defs>
<filter id="filter0_d_68_28610" x="27.2407" y="24.6069" width="294.19" height="177.018" filterUnits="userSpaceOnUse" color-interpolation-filters="sRGB">
<feFlood flood-opacity="0" result="BackgroundImageFix"/>
<feColorMatrix in="SourceAlpha" type="matrix" values="0 0 0 0 0 0 0 0 0 0 0 0 0 0 0 0 0 0 127 0" result="hardAlpha"/>
<feOffset dy="2.56887"/>
<feComposite in2="hardAlpha" operator="out"/>
<feColorMatrix type="matrix" values="0 0 0 0 0 0 0 0 0 0 0 0 0 0 0 0 0 0 1 0"/>
<feBlend mode="normal" in2="BackgroundImageFix" result="effect1_dropShadow_68_28610"/>
<feBlend mode="normal" in="SourceGraphic" in2="effect1_dropShadow_68_28610" result="shape"/>
</filter>
<filter id="filter1_f_68_28610" x="0.00787735" y="61.2188" width="347" height="87.9991" filterUnits="userSpaceOnUse" color-interpolation-filters="sRGB">
<feFlood flood-opacity="0" result="BackgroundImageFix"/>
<feBlend mode="normal" in="SourceGraphic" in2="BackgroundImageFix" result="shape"/>
<feGaussianBlur stdDeviation="5.99997" result="effect1_foregroundBlur_68_28610"/>
</filter>
<filter id="filter2_f_68_28610" x="0.00787735" y="71.2188" width="347" height="87.9991" filterUnits="userSpaceOnUse" color-interpolation-filters="sRGB">
<feFlood flood-opacity="0" result="BackgroundImageFix"/>
<feBlend mode="normal" in="SourceGraphic" in2="BackgroundImageFix" result="shape"/>
<feGaussianBlur stdDeviation="5.99997" result="effect1_foregroundBlur_68_28610"/>
</filter>
<linearGradient id="paint0_linear_68_28610" x1="319.32" y1="89.3126" x2="310.033" y2="116.651" gradientUnits="userSpaceOnUse">
<stop stop-color="#F29D00"/>
<stop offset="0.333333" stop-color="#FFEC1C"/>
<stop offset="0.666667" stop-color="#FFEC1C"/>
<stop offset="1" stop-color="white"/>
</linearGradient>
<linearGradient id="paint1_linear_68_28610" x1="243.931" y1="85.7431" x2="257.426" y2="115.174" gradientUnits="userSpaceOnUse">
<stop stop-color="#F29D00"/>
<stop offset="0.333333" stop-color="#FFEC1C"/>
<stop offset="0.666667" stop-color="#FFEC1C"/>
<stop offset="1" stop-color="white"/>
</linearGradient>
<linearGradient id="paint2_linear_68_28610" x1="137.705" y1="84.3651" x2="146.097" y2="116.918" gradientUnits="userSpaceOnUse">
<stop stop-color="#F29D00"/>
<stop offset="0.333333" stop-color="#FFEC1C"/>
<stop offset="0.666667" stop-color="#FFEC1C"/>
<stop offset="1" stop-color="white"/>
</linearGradient>
<linearGradient id="paint3_linear_68_28610" x1="81.3767" y1="85.9973" x2="93.4379" y2="116.91" gradientUnits="userSpaceOnUse">
<stop stop-color="#F29D00"/>
<stop offset="0.333333" stop-color="#FFEC1C"/>
<stop offset="0.666667" stop-color="#FFEC1C"/>
<stop offset="1" stop-color="white"/>
</linearGradient>
<linearGradient id="paint4_linear_68_28610" x1="219.875" y1="86.9739" x2="200.355" y2="111.275" gradientUnits="userSpaceOnUse">
<stop stop-color="#F29D00"/>
<stop offset="0.333333" stop-color="#FFEC1C"/>
<stop offset="0.666667" stop-color="#FFEC1C"/>
<stop offset="1" stop-color="white"/>
</linearGradient>
<linearGradient id="paint5_linear_68_28610" x1="27.0276" y1="86.2462" x2="42.2716" y2="115.16" gradientUnits="userSpaceOnUse">
<stop stop-color="#F29D00"/>
<stop offset="0.333333" stop-color="#FFEC1C"/>
<stop offset="0.666667" stop-color="#FFEC1C"/>
<stop offset="1" stop-color="white"/>
</linearGradient>
<linearGradient id="paint6_linear_68_28610" x1="260.97" y1="149.069" x2="269.752" y2="163.795" gradientUnits="userSpaceOnUse">
<stop stop-color="#F29D00"/>
<stop offset="0.333333" stop-color="#FFEC1C"/>
<stop offset="0.666667" stop-color="#FFEC1C"/>
<stop offset="1" stop-color="white"/>
</linearGradient>
<linearGradient id="paint7_linear_68_28610" x1="235.162" y1="148.933" x2="242.98" y2="164.463" gradientUnits="userSpaceOnUse">
<stop stop-color="#F29D00"/>
<stop offset="0.333333" stop-color="#FFEC1C"/>
<stop offset="0.666667" stop-color="#FFEC1C"/>
<stop offset="1" stop-color="white"/>
</linearGradient>
<linearGradient id="paint8_linear_68_28610" x1="208.877" y1="148.984" x2="216.695" y2="164.514" gradientUnits="userSpaceOnUse">
<stop stop-color="#F29D00"/>
<stop offset="0.333333" stop-color="#FFEC1C"/>
<stop offset="0.666667" stop-color="#FFEC1C"/>
<stop offset="1" stop-color="white"/>
</linearGradient>
<linearGradient id="paint9_linear_68_28610" x1="186.059" y1="149.069" x2="194.842" y2="163.795" gradientUnits="userSpaceOnUse">
<stop stop-color="#F29D00"/>
<stop offset="0.333333" stop-color="#FFEC1C"/>
<stop offset="0.666667" stop-color="#FFEC1C"/>
<stop offset="1" stop-color="white"/>
</linearGradient>
<linearGradient id="paint10_linear_68_28610" x1="164.2" y1="148.306" x2="172.803" y2="162.193" gradientUnits="userSpaceOnUse">
<stop stop-color="#F29D00"/>
<stop offset="0.333333" stop-color="#FFEC1C"/>
<stop offset="0.666667" stop-color="#FFEC1C"/>
<stop offset="1" stop-color="white"/>
</linearGradient>
<linearGradient id="paint11_linear_68_28610" x1="136.249" y1="150.187" x2="143.886" y2="166.526" gradientUnits="userSpaceOnUse">
<stop stop-color="#F29D00"/>
<stop offset="0.333333" stop-color="#FFEC1C"/>
<stop offset="0.666667" stop-color="#FFEC1C"/>
<stop offset="1" stop-color="white"/>
</linearGradient>
<linearGradient id="paint12_linear_68_28610" x1="105.906" y1="149.746" x2="112.223" y2="165.288" gradientUnits="userSpaceOnUse">
<stop stop-color="#F29D00"/>
<stop offset="0.333333" stop-color="#FFEC1C"/>
<stop offset="0.666667" stop-color="#FFEC1C"/>
<stop offset="1" stop-color="white"/>
</linearGradient>
<linearGradient id="paint13_linear_68_28610" x1="77.4789" y1="148.677" x2="85.4126" y2="164.972" gradientUnits="userSpaceOnUse">
<stop stop-color="#F29D00"/>
<stop offset="0.333333" stop-color="#FFEC1C"/>
<stop offset="0.666667" stop-color="#FFEC1C"/>
<stop offset="1" stop-color="white"/>
</linearGradient>
</defs>
</svg>
