<svg width="1440" height="856" viewBox="0 0 1440 856" fill="none" xmlns="http://www.w3.org/2000/svg">
	<path d="M757.764 448.125L808.392 587.139L872.896 771.949M795.805 452.041L894.568 587.139L1008.95 758.364M1633.5 1219.5L1136.74 736.544M1136.74 736.544L979.068 587.139L836.921 453.015M1136.74 736.544C1170.76 729.387 1203.24 721.38 1233.95 712.603M1136.74 736.544C1096.21 745.07 1053.49 752.389 1008.95 758.364M1905.5 1219.5L1233.95 712.603M1233.95 712.603L1056.18 578.414L918.193 482.174L884.776 458.728M1233.95 712.603C1267.94 702.893 1299.75 692.239 1329.1 680.753M685.568 448.125L634.682 587.139L570.103 772.082M649.599 448.68L556.165 587.139L436.398 758.943M1598 829.073L1329.1 680.753M1329.1 680.753L1143.56 578.414L1033.82 520.213L964.335 482.174L937.947 467.802M1329.1 680.753C1465 627.57 1548 556.532 1548 478.5M-177.5 1233L310.614 737.867M310.614 737.867L465.205 587.139L572.739 482.174L603.905 453.688M310.614 737.867C350.574 746.102 392.621 753.17 436.398 758.943M310.614 737.867C275.457 730.622 241.916 722.474 210.233 713.51M-438.5 1219.5L210.233 713.51M210.233 713.51L383.254 587.139L524.633 482.174L557.926 459.401M210.233 713.51C175.726 703.747 143.422 693.016 113.637 681.431M-157 829.073L113.637 681.431M113.637 681.431C-23.2884 628.175 -107 556.864 -107 478.5M113.637 681.431L478.886 482.174L503.191 468.81M721.343 1233L721.343 777M721.343 777C773.111 776.981 823.767 775.248 872.896 771.949M721.343 777C721.062 777 720.781 777 720.5 777C669.141 777 618.874 775.312 570.103 772.082M721.343 777V445.606M1033.82 1233L872.896 771.949M872.896 771.949C919.756 768.802 965.227 764.231 1008.95 758.364M1317 1219.5L1008.95 758.364M409.16 1233L570.103 772.082M570.103 772.082C524.091 769.034 479.41 764.614 436.398 758.943M128 1233L436.398 758.943M1456 436C1456 548.114 1126.48 639 720 639C313.518 639 -16 548.114 -16 436" stroke="url(#paint0_linear_446_1556)" stroke-width="0.6" stroke-miterlimit="10" />
	<path d="M720 382.5L900.193 262.826L1040.18 166.586L1233.95 32.3965M720 382.5L961.335 262.826L1033.82 224.787L1143.56 166.586L1329.1 64.2466M720 382.5L580.739 262.826L466.205 157.861L310.614 7.13281M720 382.5L531.633 262.826L378.254 157.861L210.233 31.4901M720 382.5L478.886 262.826L113.637 63.5688M720 382.5L808.392 157.861L872.896 -26.9486M720 382.5L878.568 157.861L1008.95 -13.3641M720 382.5L967.068 157.861L1136.74 8.45599M720 382.5L634.682 157.861L570.103 -27.0819M720 382.5L564.165 157.861L436.398 -13.9426M720 382.5L721.343 -31.9998M1633.5 -474.5L1136.74 8.45599M1136.74 8.45599C1170.76 15.6126 1203.24 23.6197 1233.95 32.3965M1136.74 8.45599C1096.21 -0.0699768 1053.49 -7.38885 1008.95 -13.3641M1905.5 -474.5L1233.95 32.3965M1233.95 32.3965C1267.94 42.1075 1299.75 52.7606 1329.1 64.2466M1598 -84.0728L1329.1 64.2466M1329.1 64.2466C1465 117.43 1548 188.468 1548 266.5M-177.5 -488L310.614 7.13281M310.614 7.13281C350.574 -1.10226 392.621 -8.17029 436.398 -13.9426M310.614 7.13281C275.457 14.3778 241.916 22.5262 210.233 31.4901M-438.5 -474.5L210.233 31.4901M210.233 31.4901C175.726 41.2532 143.422 51.9838 113.637 63.5688M-157 -84.0733L113.637 63.5688M113.637 63.5688C-23.2884 116.825 -107 188.136 -107 266.5M721.343 -488L721.343 -31.9998M721.343 -31.9998C773.111 -31.9812 823.767 -30.2478 872.896 -26.9486M721.343 -31.9998C721.062 -31.9999 720.781 -32 720.5 -32C669.141 -32 618.874 -30.3122 570.103 -27.0819M1033.82 -488L872.896 -26.9486M872.896 -26.9486C919.756 -23.8018 965.227 -19.2305 1008.95 -13.3641M1317 -474.5L1008.95 -13.3641M409.16 -488L570.103 -27.0819M570.103 -27.0819C524.091 -24.0344 479.41 -19.6139 436.398 -13.9426M128 -488L436.398 -13.9426M1456 309C1456 196.886 1126.48 106 720 106C313.518 106 -16 196.886 -16 309" stroke="url(#paint1_linear_446_1556)" stroke-width="0.6" stroke-miterlimit="10" />
	<defs>
		<linearGradient id="paint0_linear_446_1556" x1="720" y1="806.5" x2="720.645" y2="264.501" gradientUnits="userSpaceOnUse">
			<stop stop-color="#696C8B" stop-opacity="0" />
			<stop offset="0.15" stop-color="#8E54F3" stop-opacity="0.4" />
			<stop offset="1" stop-color="#2F3342" stop-opacity="0" />
		</linearGradient>
		<linearGradient id="paint1_linear_446_1556" x1="720" y1="-61.5001" x2="720.645" y2="480.499" gradientUnits="userSpaceOnUse">
			<stop stop-color="#696C8B" stop-opacity="0" />
			<stop offset="0.15" stop-color="#8E54F3" stop-opacity="0.4" />
			<stop offset="1" stop-color="#2F3342" stop-opacity="0" />
		</linearGradient>
	</defs>
</svg>
