<svg width="42" height="47" viewBox="0 0 42 47" fill="none" xmlns="http://www.w3.org/2000/svg">
<g filter="url(#filter0_d_68_28155)">
<circle cx="21" cy="21" r="21" fill="#FFB4B4"/>
<circle cx="21" cy="21" r="19.8" stroke="black" stroke-width="2.4"/>
</g>
<g filter="url(#filter1_d_68_28155)">
<mask id="path-3-inside-1_68_28155" fill="white">
<path fill-rule="evenodd" clip-rule="evenodd" d="M7 21.8075V16.5446L17.4394 16.4373L13.134 12.2142C12.5214 11.6133 12.9005 10.5705 13.756 10.5034L19.6354 10.0419C19.975 10.0152 20.3049 10.1633 20.5106 10.4349L26.0848 17.7912C26.626 18.5055 26.626 19.4927 26.0848 20.207L20.5177 27.554C20.3081 27.8306 19.97 27.9788 19.6246 27.9454L13.7981 27.3828C12.9545 27.3013 12.5883 26.2731 13.1906 25.6768L17.4942 21.4158L7 21.8075ZM32.7449 10.9129L27.7482 10.0941L28.2556 15.4991V26.0849L33.2523 24.9037L32.7449 20.9991V10.9129Z"/>
</mask>
<path fill-rule="evenodd" clip-rule="evenodd" d="M7 21.8075V16.5446L17.4394 16.4373L13.134 12.2142C12.5214 11.6133 12.9005 10.5705 13.756 10.5034L19.6354 10.0419C19.975 10.0152 20.3049 10.1633 20.5106 10.4349L26.0848 17.7912C26.626 18.5055 26.626 19.4927 26.0848 20.207L20.5177 27.554C20.3081 27.8306 19.97 27.9788 19.6246 27.9454L13.7981 27.3828C12.9545 27.3013 12.5883 26.2731 13.1906 25.6768L17.4942 21.4158L7 21.8075ZM32.7449 10.9129L27.7482 10.0941L28.2556 15.4991V26.0849L33.2523 24.9037L32.7449 20.9991V10.9129Z" fill="white"/>
<path d="M7 16.5446L6.98972 15.5446L6 15.5548V16.5446H7ZM7 21.8075H6V22.8455L7.0373 22.8068L7 21.8075ZM17.4394 16.4373L17.4497 17.4372L19.8616 17.4124L18.1397 15.7234L17.4394 16.4373ZM13.134 12.2142L13.8343 11.5003V11.5003L13.134 12.2142ZM13.756 10.5034L13.8343 11.5003L13.756 10.5034ZM19.6354 10.0419L19.7136 11.0388L19.6354 10.0419ZM20.5106 10.4349L21.3077 9.83095L21.3077 9.83095L20.5106 10.4349ZM26.0848 17.7912L25.2877 18.3952V18.3952L26.0848 17.7912ZM26.0848 20.207L25.2877 19.603L26.0848 20.207ZM20.5177 27.554L19.7207 26.9501L20.5177 27.554ZM19.6246 27.9454L19.7207 26.9501H19.7207L19.6246 27.9454ZM13.7981 27.3828L13.702 28.3782L13.7981 27.3828ZM13.1906 25.6768L12.487 24.9662H12.487L13.1906 25.6768ZM17.4942 21.4158L18.1978 22.1264L20.0214 20.3207L17.4569 20.4165L17.4942 21.4158ZM27.7482 10.0941L27.9099 9.1073L26.6315 8.89781L26.7526 10.1876L27.7482 10.0941ZM32.7449 10.9129H33.7449V10.0635L32.9066 9.9261L32.7449 10.9129ZM28.2556 15.4991H29.2556V15.4523L29.2512 15.4057L28.2556 15.4991ZM28.2556 26.0849H27.2556V27.3489L28.4856 27.0581L28.2556 26.0849ZM33.2523 24.9037L33.4823 25.8769L34.3602 25.6694L34.2439 24.7749L33.2523 24.9037ZM32.7449 20.9991H31.7449V21.0638L31.7533 21.128L32.7449 20.9991ZM6 16.5446V21.8075H8V16.5446H6ZM17.4291 15.4373L6.98972 15.5446L7.01028 17.5445L17.4497 17.4372L17.4291 15.4373ZM12.4338 12.9281L16.7392 17.1512L18.1397 15.7234L13.8343 11.5003L12.4338 12.9281ZM13.6778 9.50642C11.9667 9.64072 11.2085 11.7262 12.4338 12.9281L13.8343 11.5003H13.8343L13.6778 9.50642ZM19.5571 9.04496L13.6778 9.50642L13.8343 11.5003L19.7136 11.0388L19.5571 9.04496ZM21.3077 9.83095C20.8961 9.28785 20.2364 8.99164 19.5571 9.04496L19.7136 11.0388L19.7136 11.0388L21.3077 9.83095ZM26.8818 17.1873L21.3077 9.83095L19.7136 11.0388L25.2877 18.3952L26.8818 17.1873ZM26.8818 20.8109C27.6937 19.7395 27.6937 18.2587 26.8818 17.1873L25.2877 18.3952C25.5583 18.7523 25.5583 19.2459 25.2877 19.603L26.8818 20.8109ZM21.3147 28.1579L26.8818 20.8109L25.2877 19.603L19.7207 26.9501L21.3147 28.1579ZM19.5284 28.9408C20.2194 29.0075 20.8955 28.7112 21.3147 28.1579L19.7207 26.9501H19.7207L19.5284 28.9408ZM13.702 28.3782L19.5284 28.9408L19.7207 26.9501L13.8942 26.3874L13.702 28.3782ZM12.487 24.9662C11.2825 26.1588 12.0147 28.2152 13.702 28.3782L13.8942 26.3874L13.8942 26.3874L12.487 24.9662ZM16.7906 20.7052L12.487 24.9662L13.8942 26.3874L18.1978 22.1264L16.7906 20.7052ZM7.0373 22.8068L17.5315 22.4151L17.4569 20.4165L6.9627 20.8082L7.0373 22.8068ZM27.5865 11.081L32.5832 11.8998L32.9066 9.9261L27.9099 9.1073L27.5865 11.081ZM29.2512 15.4057L28.7438 10.0007L26.7526 10.1876L27.2599 15.5926L29.2512 15.4057ZM29.2556 26.0849V15.4991H27.2556V26.0849H29.2556ZM33.0222 23.9306L28.0255 25.1118L28.4856 27.0581L33.4823 25.8769L33.0222 23.9306ZM31.7533 21.128L32.2606 25.0326L34.2439 24.7749L33.7366 20.8703L31.7533 21.128ZM31.7449 10.9129V20.9991H33.7449V10.9129H31.7449Z" fill="black" mask="url(#path-3-inside-1_68_28155)"/>
</g>
<defs>
<filter id="filter0_d_68_28155" x="0" y="0" width="42" height="46.8" filterUnits="userSpaceOnUse" color-interpolation-filters="sRGB">
<feFlood flood-opacity="0" result="BackgroundImageFix"/>
<feColorMatrix in="SourceAlpha" type="matrix" values="0 0 0 0 0 0 0 0 0 0 0 0 0 0 0 0 0 0 127 0" result="hardAlpha"/>
<feOffset dy="4.8"/>
<feComposite in2="hardAlpha" operator="out"/>
<feColorMatrix type="matrix" values="0 0 0 0 0 0 0 0 0 0 0 0 0 0 0 0 0 0 1 0"/>
<feBlend mode="normal" in2="BackgroundImageFix" result="effect1_dropShadow_68_28155"/>
<feBlend mode="normal" in="SourceGraphic" in2="effect1_dropShadow_68_28155" result="shape"/>
</filter>
<filter id="filter1_d_68_28155" x="7" y="10.0388" width="26.2524" height="22.7111" filterUnits="userSpaceOnUse" color-interpolation-filters="sRGB">
<feFlood flood-opacity="0" result="BackgroundImageFix"/>
<feColorMatrix in="SourceAlpha" type="matrix" values="0 0 0 0 0 0 0 0 0 0 0 0 0 0 0 0 0 0 127 0" result="hardAlpha"/>
<feOffset dy="4.8"/>
<feComposite in2="hardAlpha" operator="out"/>
<feColorMatrix type="matrix" values="0 0 0 0 0 0 0 0 0 0 0 0 0 0 0 0 0 0 1 0"/>
<feBlend mode="normal" in2="BackgroundImageFix" result="effect1_dropShadow_68_28155"/>
<feBlend mode="normal" in="SourceGraphic" in2="effect1_dropShadow_68_28155" result="shape"/>
</filter>
</defs>
</svg>
