<svg width="274" height="82" viewBox="0 0 274 82" fill="none" xmlns="http://www.w3.org/2000/svg">
	<path d="M17.5 82L0.5 23.5L14.5 26L259.5 0L274 61.5L17.5 82Z" fill="#000122" />
	<path d="M53.7695 44.4531C53.7695 46.9505 53.332 49.138 52.457 51.0156C51.6003 52.875 50.4154 54.4245 48.9023 55.6641C47.4076 56.9036 45.6484 57.8333 43.625 58.4531C41.6198 59.0729 39.4596 59.3828 37.1445 59.3828C36.2513 59.3828 35.2669 59.2643 34.1914 59.0273C33.1341 58.7904 32.0586 58.4987 30.9648 58.1523C29.8711 57.7878 28.8138 57.4049 27.793 57.0039C26.7904 56.5846 25.8971 56.1927 25.1133 55.8281L26.3164 44.5625C27.8659 45.4922 29.5794 46.2031 31.457 46.6953C33.3529 47.1693 35.2122 47.4062 37.0352 47.4062C37.3815 47.4062 37.8008 47.3971 38.293 47.3789C38.7852 47.3424 39.25 47.2604 39.6875 47.1328C40.1432 46.987 40.526 46.7773 40.8359 46.5039C41.1458 46.2305 41.3008 45.8385 41.3008 45.3281C41.3008 44.9818 41.1914 44.6901 40.9727 44.4531C40.7539 44.1979 40.4714 43.9974 40.125 43.8516C39.7786 43.6875 39.3867 43.569 38.9492 43.4961C38.5117 43.4049 38.0833 43.3411 37.6641 43.3047C37.2448 43.2682 36.8529 43.25 36.4883 43.25C36.1237 43.25 35.832 43.25 35.6133 43.25C34.0456 43.25 32.6146 42.9766 31.3203 42.4297C30.0443 41.8828 28.9414 41.1263 28.0117 40.1602C27.1003 39.1758 26.3893 38.0182 25.8789 36.6875C25.3685 35.3385 25.1133 33.8802 25.1133 32.3125C25.1133 30.1615 25.5417 28.2383 26.3984 26.543C27.2734 24.8294 28.431 23.3802 29.8711 22.1953C31.3294 20.9922 32.9974 20.0716 34.875 19.4336C36.7526 18.7956 38.694 18.4766 40.6992 18.4766C41.5924 18.4766 42.513 18.513 43.4609 18.5859C44.4089 18.6406 45.3477 18.75 46.2773 18.9141C47.2253 19.0781 48.1458 19.2878 49.0391 19.543C49.9323 19.7982 50.7799 20.1172 51.582 20.5L50.543 31.6016C49.3034 31.1823 48 30.8359 46.6328 30.5625C45.2839 30.2708 43.9622 30.125 42.668 30.125C42.431 30.125 42.1211 30.1341 41.7383 30.1523C41.3737 30.1523 40.9818 30.1797 40.5625 30.2344C40.1615 30.2708 39.7513 30.3346 39.332 30.4258C38.9128 30.5169 38.5391 30.6445 38.2109 30.8086C37.8828 30.9544 37.6185 31.1549 37.418 31.4102C37.2174 31.6654 37.1263 31.9661 37.1445 32.3125C37.1628 32.7135 37.3086 33.0417 37.582 33.2969C37.8737 33.5339 38.2383 33.7253 38.6758 33.8711C39.1315 33.9987 39.6237 34.0898 40.1523 34.1445C40.6992 34.1992 41.237 34.2357 41.7656 34.2539C42.2943 34.2539 42.7865 34.2539 43.2422 34.2539C43.6979 34.2357 44.0716 34.2448 44.3633 34.2812C45.8216 34.3724 47.1341 34.6823 48.3008 35.2109C49.4674 35.7396 50.4518 36.4414 51.2539 37.3164C52.0742 38.1914 52.694 39.2396 53.1133 40.4609C53.5508 41.6641 53.7695 42.9948 53.7695 44.4531ZM81.4141 19.5703C81.3047 21.2839 81.2044 22.9792 81.1133 24.6562C81.0221 26.3333 80.9036 28.0286 80.7578 29.7422L69.1641 30.3438L68.8906 33.7891H77.0391L76.4375 42.2656L68.2344 42.5391L67.9609 46.5312H74.7422H79.5547C79.4453 48.5365 79.3268 50.5326 79.1992 52.5195C79.0898 54.4883 78.9896 56.4661 78.8984 58.4531L55.3281 59L56.2031 19.5703H81.4141ZM116.852 56.6484L103.289 58.3984L101.648 52.2188H95.4141L94.0469 58.3984L80.1016 57.0312L90.9844 20.6094L106.188 19.8438L116.852 56.6484ZM100.664 43.8516L98.5859 34.3359L96.5625 43.8516H100.664ZM145.426 44.4531C145.426 46.9505 144.988 49.138 144.113 51.0156C143.257 52.875 142.072 54.4245 140.559 55.6641C139.064 56.9036 137.305 57.8333 135.281 58.4531C133.276 59.0729 131.116 59.3828 128.801 59.3828C127.908 59.3828 126.923 59.2643 125.848 59.0273C124.79 58.7904 123.715 58.4987 122.621 58.1523C121.527 57.7878 120.47 57.4049 119.449 57.0039C118.447 56.5846 117.553 56.1927 116.77 55.8281L117.973 44.5625C119.522 45.4922 121.236 46.2031 123.113 46.6953C125.009 47.1693 126.868 47.4062 128.691 47.4062C129.038 47.4062 129.457 47.3971 129.949 47.3789C130.441 47.3424 130.906 47.2604 131.344 47.1328C131.799 46.987 132.182 46.7773 132.492 46.5039C132.802 46.2305 132.957 45.8385 132.957 45.3281C132.957 44.9818 132.848 44.6901 132.629 44.4531C132.41 44.1979 132.128 43.9974 131.781 43.8516C131.435 43.6875 131.043 43.569 130.605 43.4961C130.168 43.4049 129.74 43.3411 129.32 43.3047C128.901 43.2682 128.509 43.25 128.145 43.25C127.78 43.25 127.488 43.25 127.27 43.25C125.702 43.25 124.271 42.9766 122.977 42.4297C121.701 41.8828 120.598 41.1263 119.668 40.1602C118.757 39.1758 118.046 38.0182 117.535 36.6875C117.025 35.3385 116.77 33.8802 116.77 32.3125C116.77 30.1615 117.198 28.2383 118.055 26.543C118.93 24.8294 120.087 23.3802 121.527 22.1953C122.986 20.9922 124.654 20.0716 126.531 19.4336C128.409 18.7956 130.35 18.4766 132.355 18.4766C133.249 18.4766 134.169 18.513 135.117 18.5859C136.065 18.6406 137.004 18.75 137.934 18.9141C138.882 19.0781 139.802 19.2878 140.695 19.543C141.589 19.7982 142.436 20.1172 143.238 20.5L142.199 31.6016C140.96 31.1823 139.656 30.8359 138.289 30.5625C136.94 30.2708 135.618 30.125 134.324 30.125C134.087 30.125 133.777 30.1341 133.395 30.1523C133.03 30.1523 132.638 30.1797 132.219 30.2344C131.818 30.2708 131.408 30.3346 130.988 30.4258C130.569 30.5169 130.195 30.6445 129.867 30.8086C129.539 30.9544 129.275 31.1549 129.074 31.4102C128.874 31.6654 128.783 31.9661 128.801 32.3125C128.819 32.7135 128.965 33.0417 129.238 33.2969C129.53 33.5339 129.895 33.7253 130.332 33.8711C130.788 33.9987 131.28 34.0898 131.809 34.1445C132.355 34.1992 132.893 34.2357 133.422 34.2539C133.951 34.2539 134.443 34.2539 134.898 34.2539C135.354 34.2357 135.728 34.2448 136.02 34.2812C137.478 34.3724 138.79 34.6823 139.957 35.2109C141.124 35.7396 142.108 36.4414 142.91 37.3164C143.73 38.1914 144.35 39.2396 144.77 40.4609C145.207 41.6641 145.426 42.9948 145.426 44.4531ZM180.973 39.6953C180.973 41.3542 180.781 42.9583 180.398 44.5078C180.016 46.0391 179.46 47.4792 178.73 48.8281C178.02 50.1771 177.145 51.4167 176.105 52.5469C175.085 53.6589 173.927 54.6159 172.633 55.418C171.357 56.2201 169.962 56.849 168.449 57.3047C166.936 57.7422 165.332 57.9609 163.637 57.9609C161.996 57.9609 160.428 57.7513 158.934 57.332C157.457 56.9128 156.072 56.3294 154.777 55.582C153.483 54.8164 152.307 53.9049 151.25 52.8477C150.211 51.7721 149.318 50.5872 148.57 49.293C147.841 47.9805 147.267 46.5768 146.848 45.082C146.447 43.5872 146.246 42.0286 146.246 40.4062C146.246 38.8203 146.438 37.2708 146.82 35.7578C147.203 34.2266 147.75 32.7865 148.461 31.4375C149.19 30.0885 150.065 28.849 151.086 27.7188C152.107 26.5885 153.246 25.6133 154.504 24.793C155.78 23.9727 157.156 23.3346 158.633 22.8789C160.109 22.4232 161.668 22.1953 163.309 22.1953C165.952 22.1953 168.358 22.6055 170.527 23.4258C172.715 24.2461 174.574 25.4219 176.105 26.9531C177.655 28.4661 178.849 30.3073 179.688 32.4766C180.544 34.6276 180.973 37.0339 180.973 39.6953ZM168.832 40.4062C168.832 39.6224 168.714 38.8659 168.477 38.1367C168.258 37.3893 167.93 36.7331 167.492 36.168C167.055 35.5846 166.508 35.1198 165.852 34.7734C165.214 34.4089 164.475 34.2266 163.637 34.2266C162.78 34.2266 162.014 34.3815 161.34 34.6914C160.665 35.0013 160.082 35.4297 159.59 35.9766C159.116 36.5052 158.751 37.1341 158.496 37.8633C158.241 38.5742 158.113 39.3307 158.113 40.1328C158.113 40.8984 158.223 41.6641 158.441 42.4297C158.66 43.1953 158.988 43.888 159.426 44.5078C159.863 45.1276 160.401 45.6289 161.039 46.0117C161.695 46.3945 162.452 46.5859 163.309 46.5859C164.165 46.5859 164.931 46.4219 165.605 46.0938C166.298 45.7474 166.882 45.2917 167.355 44.7266C167.829 44.1432 168.194 43.4779 168.449 42.7305C168.704 41.9831 168.832 41.2083 168.832 40.4062ZM220.074 19.7891L218.105 56.8672L203.777 58.1797L196.121 38.3281L194.918 58.5625H182.613L183.598 19.7891L197.27 19.1328L206.73 38.8203L207.168 20.2266L220.074 19.7891ZM252.367 19.6797L250.781 58.5625L238.859 58.0156L239.516 32.1484L235.141 35.1562L231.039 25.8047L239.953 19.1328L252.367 19.6797Z" fill="#FDEC2D" />
</svg>
