<svg width="28" height="29" viewBox="0 0 28 29" fill="none" xmlns="http://www.w3.org/2000/svg">
	<g filter="url(#filter0_d_1048_393)">
		<path d="M12.7686 3.14523C13.2742 2.12765 14.7258 2.12766 15.2314 3.14523L17.8114 8.33791C18.0116 8.74088 18.3963 9.02038 18.8414 9.08627L24.5772 9.93537C25.7012 10.1018 26.1498 11.4823 25.3382 12.2776L21.197 16.336C20.8756 16.6509 20.7287 17.1031 20.8035 17.5468L21.7685 23.2643C21.9575 24.3847 20.7832 25.2379 19.776 24.7119L14.6366 22.0274C14.2378 21.8191 13.7622 21.8191 13.3634 22.0274L8.22396 24.7119C7.21682 25.2379 6.04245 24.3847 6.23154 23.2643L7.19646 17.5468C7.27134 17.1031 7.12439 16.6509 6.80302 16.336L2.66175 12.2776C1.85021 11.4823 2.29878 10.1018 3.42279 9.93537L9.15859 9.08627C9.6037 9.02038 9.9884 8.74087 10.1886 8.33791L12.7686 3.14523Z" fill="#B8FA2C" />
		<path d="M14.3183 22.6368L14.6366 22.0274L14.3183 22.6368L19.4577 25.3212C20.9685 26.1103 22.73 24.8305 22.4464 23.1499L21.4815 17.4324C21.444 17.2106 21.5175 16.9845 21.6782 16.827L25.8194 12.7686C27.0367 11.5757 26.3639 9.50487 24.6779 9.25529L18.9421 8.40618C18.7195 8.37324 18.5272 8.23348 18.4271 8.03201L15.8471 2.83932C15.0887 1.31296 12.9113 1.31295 12.1529 2.83932L9.57292 8.032C9.47282 8.23349 9.28046 8.37324 9.05791 8.40618L3.32211 9.25528C1.6361 9.50487 0.963247 11.5757 2.18056 12.7686L6.32183 16.827C6.48251 16.9845 6.55598 17.2106 6.51854 17.4324L5.55363 23.1499C5.26999 24.8305 7.03154 26.1103 8.54226 25.3212L13.6817 22.6368C13.8811 22.5326 14.1189 22.5326 14.3183 22.6368Z" stroke="black" stroke-width="1.375" />
	</g>
	<path d="M14 7.66687L12.3961 11.5263C12.2073 11.9806 11.7901 12.2994 11.3022 12.3623L7 12.9169" stroke="white" stroke-width="2.75" stroke-linecap="round" />
	<defs>
		<filter id="filter0_d_1048_393" x="0.871094" y="1.00708" width="26.2578" height="27.9921" filterUnits="userSpaceOnUse" color-interpolation-filters="sRGB">
			<feFlood flood-opacity="0" result="BackgroundImageFix" />
			<feColorMatrix in="SourceAlpha" type="matrix" values="0 0 0 0 0 0 0 0 0 0 0 0 0 0 0 0 0 0 127 0" result="hardAlpha" />
			<feOffset dy="2.75" />
			<feComposite in2="hardAlpha" operator="out" />
			<feColorMatrix type="matrix" values="0 0 0 0 0 0 0 0 0 0 0 0 0 0 0 0 0 0 1 0" />
			<feBlend mode="normal" in2="BackgroundImageFix" result="effect1_dropShadow_1048_393" />
			<feBlend mode="normal" in="SourceGraphic" in2="effect1_dropShadow_1048_393" result="shape" />
		</filter>
	</defs>
</svg>
