<svg width="40" height="40" viewBox="0 0 40 40" fill="none" xmlns="http://www.w3.org/2000/svg">
	<path d="M40 0L1 1.5L3 10L0 37.5L38.5 39.5L40 0Z" fill="#FDEC2D" />
	<path d="M12.3992 19.3642C12.4385 19.3442 12.4778 19.3252 12.5161 19.3073C13.1817 18.9936 13.8561 18.6999 14.5296 18.4062C14.5659 18.4062 14.6268 18.3632 14.6612 18.3492C14.7132 18.3262 14.7652 18.3043 14.8173 18.2813C14.9174 18.2373 15.0175 18.1944 15.1167 18.1504C15.317 18.0635 15.5163 17.9766 15.7165 17.8897L16.9152 17.3672C17.7144 17.0196 18.5145 16.6709 19.3137 16.3233C20.1128 15.9756 20.9129 15.627 21.7121 15.2793C22.5112 14.9316 23.3113 14.583 24.1105 14.2354C24.9096 13.8877 25.7097 13.5391 26.5089 13.1914C26.6866 13.1135 26.879 12.9976 27.0694 12.9636C27.2295 12.9347 27.3856 12.8787 27.5466 12.8477C27.8519 12.7888 28.1886 12.7648 28.4812 12.8937C28.5823 12.9387 28.6756 13.0016 28.7531 13.0805C29.1242 13.4541 29.0722 14.0675 28.9937 14.593C28.4468 18.2553 27.9 21.9186 27.3522 25.581C27.2776 26.0835 27.1755 26.6349 26.7857 26.9526C26.4558 27.2213 25.9866 27.2513 25.5791 27.1374C25.1717 27.0225 24.8124 26.7818 24.46 26.545C22.9981 25.56 21.5353 24.575 20.0735 23.59C19.726 23.3562 19.3392 23.0505 19.3431 22.6259C19.3451 22.3702 19.4953 22.1424 19.6484 21.9396C20.9188 20.2533 22.7517 19.0945 24.1154 17.4861C24.3078 17.2593 24.459 16.8497 24.1949 16.7189C24.0378 16.6409 23.8572 16.7468 23.7138 16.8477C21.9113 18.1214 20.1099 19.3962 18.3074 20.6699C17.7193 21.0855 17.1028 21.513 16.3939 21.6149C15.7597 21.7068 15.1216 21.527 14.508 21.3432C13.9936 21.1894 13.4801 21.0315 12.9686 20.8687C12.6967 20.7828 12.4159 20.6899 12.2058 20.4951C11.9957 20.3003 11.875 19.9726 12.0016 19.7128C12.0811 19.55 12.2353 19.4471 12.3973 19.3632L12.3992 19.3642Z" fill="#000122" />
</svg>
