<svg width="621" height="389" viewBox="0 0 621 389" fill="none" xmlns="http://www.w3.org/2000/svg">
<path d="M0.518557 0L0.518539 387.481M39.2361 0L39.2361 387.481M77.9537 0L77.9537 387.481M116.671 0L116.671 387.481M155.389 0L155.389 387.481M194.107 0L194.106 387.481M232.824 0L232.824 387.481M271.542 0L271.542 387.481M310.259 0L310.259 387.481M348.977 0L348.977 387.481M387.694 0V387.481M426.412 0V387.481M465.13 0V387.481M503.847 0V387.481M542.565 0V387.481M581.282 0V387.481M620 0V387.481M619.481 0.518948L0 0.518912M619.481 39.2671L0 39.267M619.481 78.0152L0 78.0151M619.481 116.763L0 116.763M619.481 155.511L0 155.511M619.481 194.259L0 194.259M619.481 233.008L0 233.008M619.481 271.756L0 271.756M619.481 310.504L0 310.504M619.481 349.252L0 349.252M619.481 388L0 388" stroke="url(#paint0_radial_68_28145)" stroke-width="0.6" stroke-miterlimit="10"/>
<defs>
<radialGradient id="paint0_radial_68_28145" cx="0" cy="0" r="1" gradientUnits="userSpaceOnUse" gradientTransform="translate(306.43 194) rotate(-90) scale(188 365.907)">
<stop offset="0.15" stop-color="#8E54F3" stop-opacity="0.4"/>
<stop offset="1" stop-color="#2F3342" stop-opacity="0"/>
</radialGradient>
</defs>
</svg>
