<svg width="482" height="287" viewBox="0 0 482 287" fill="none" xmlns="http://www.w3.org/2000/svg">
<path d="M0.927161 0.0654297L0.927147 285.912M30.9614 0.0654297L30.9614 285.912M60.9956 0.0654297L60.9956 285.912M91.0298 0.0654297L91.0298 285.912M121.064 0.0654297L121.064 285.912M151.098 0.0654297L151.098 285.912M181.133 0.0654297L181.133 285.912M211.167 0.0654297L211.167 285.912M241.201 0.0654297L241.201 285.912M271.235 0.0654297L271.235 285.912M301.269 0.0654297V285.912M331.304 0.0654297V285.912M361.338 0.0654297V285.912M391.372 0.0654297V285.912M421.406 0.0654297V285.912M451.441 0.0654297V285.912M481.475 0.0654297V285.912M481.073 0.44826L0.524902 0.448233M481.073 29.0329L0.524902 29.0329M481.073 57.6176L0.524902 57.6176M481.073 86.2023L0.524902 86.2022M481.073 114.787L0.524902 114.787M481.073 143.372L0.524902 143.372M481.073 171.956L0.524902 171.956M481.073 200.541L0.524902 200.541M481.073 229.126L0.524902 229.126M481.073 257.71L0.524902 257.71M481.073 286.295L0.524902 286.295" stroke="url(#paint0_radial_68_28595)" stroke-width="0.6"/>
<defs>
<radialGradient id="paint0_radial_68_28595" cx="0" cy="0" r="1" gradientUnits="userSpaceOnUse" gradientTransform="translate(241 143.18) rotate(90) scale(137.582 305.914)">
<stop/>
<stop offset="1" stop-opacity="0"/>
</radialGradient>
</defs>
</svg>
