<svg width="1440" height="938" viewBox="0 0 1440 938" fill="none" xmlns="http://www.w3.org/2000/svg">
<g filter="url(#filter0_d_68_28114)">
<path d="M0 790V0C123.261 84.3086 400.429 143 720 143C1039.57 143 1316.74 84.3086 1440 0V790C1316.74 874.309 1039.57 933 720 933C400.429 933 123.261 874.309 0 790Z" fill="#8C53EF"/>
<path d="M286.621 891.94C162.386 866.811 62.6772 831.232 1.2 789.366V2.26468C63.1696 43.9981 162.696 79.3225 286.146 104.292C410.88 129.521 560.145 144.2 720 144.2C879.855 144.2 1029.12 129.521 1153.85 104.292C1277.3 79.3225 1376.83 43.9981 1438.8 2.26466V789.366C1377.32 831.232 1277.61 866.811 1153.38 891.94C1028.82 917.133 879.716 931.8 720 931.8C560.284 931.8 411.179 917.133 286.621 891.94Z" stroke="black" stroke-width="2.4"/>
</g>
<defs>
<filter id="filter0_d_68_28114" x="0" y="0" width="1440" height="937.8" filterUnits="userSpaceOnUse" color-interpolation-filters="sRGB">
<feFlood flood-opacity="0" result="BackgroundImageFix"/>
<feColorMatrix in="SourceAlpha" type="matrix" values="0 0 0 0 0 0 0 0 0 0 0 0 0 0 0 0 0 0 127 0" result="hardAlpha"/>
<feOffset dy="4.8"/>
<feComposite in2="hardAlpha" operator="out"/>
<feColorMatrix type="matrix" values="0 0 0 0 0 0 0 0 0 0 0 0 0 0 0 0 0 0 1 0"/>
<feBlend mode="normal" in2="BackgroundImageFix" result="effect1_dropShadow_68_28114"/>
<feBlend mode="normal" in="SourceGraphic" in2="effect1_dropShadow_68_28114" result="shape"/>
</filter>
</defs>
</svg>
