<svg width="1440" height="144" viewBox="0 0 1440 144" fill="none" xmlns="http://www.w3.org/2000/svg">
	<g filter="url(#filter0_d_533_7361)">
		<path fill-rule="evenodd" clip-rule="evenodd" d="M733.918 117.515C316.123 47.6337 -106.445 -197.659 -487.128 -665.951L-176.746 -918.266C154.545 -510.733 495.466 -327.926 799.906 -277.005C1105.75 -225.849 1396.36 -304.082 1633.47 -457.264L1850.53 -121.281C1540.68 78.8995 1150.31 187.162 733.918 117.515Z" fill="#8C53EF" />
		<path d="M734.116 116.331C316.938 46.5534 -105.102 -198.273 -485.44 -665.777L-176.92 -916.578C154.282 -509.515 495.16 -326.76 799.708 -275.821C1105.45 -224.682 1395.97 -302.711 1633.11 -455.605L1848.87 -121.638C1539.4 77.9853 1149.73 185.847 734.116 116.331Z" stroke="black" stroke-width="2.4" />
	</g>
	<defs>
		<filter id="filter0_d_533_7361" x="-487.128" y="-918.266" width="2337.66" height="1061.72" filterUnits="userSpaceOnUse" color-interpolation-filters="sRGB">
			<feFlood flood-opacity="0" result="BackgroundImageFix" />
			<feColorMatrix in="SourceAlpha" type="matrix" values="0 0 0 0 0 0 0 0 0 0 0 0 0 0 0 0 0 0 127 0" result="hardAlpha" />
			<feOffset dy="4.8" />
			<feComposite in2="hardAlpha" operator="out" />
			<feColorMatrix type="matrix" values="0 0 0 0 0 0 0 0 0 0 0 0 0 0 0 0 0 0 1 0" />
			<feBlend mode="normal" in2="BackgroundImageFix" result="effect1_dropShadow_533_7361" />
			<feBlend mode="normal" in="SourceGraphic" in2="effect1_dropShadow_533_7361" result="shape" />
		</filter>
	</defs>
</svg>
