<svg width="168" height="96" viewBox="0 0 168 96" fill="none" xmlns="http://www.w3.org/2000/svg">
<g filter="url(#filter0_d_68_28250)">
<mask id="path-1-outside-1_68_28250" maskUnits="userSpaceOnUse" x="-4.7741" y="-3.9081" width="176.769" height="97.5734" fill="black">
<rect fill="white" x="-4.7741" y="-3.9081" width="176.769" height="97.5734"/>
<path d="M56.9487 29.8936L61.0955 73.6229L44.0474 78.5792L34.5575 57.8929L36.2616 78.983L19.2782 84.1808L1.10613 44.8566L15.7221 39.5168L25.4537 63.7616L22.7854 37.6241L34.5577 34.4698L46.0605 58.5636L41.6814 32.561L56.9487 29.8936ZM100.317 40.3374C100.808 42.1687 101.071 43.9962 101.107 45.8199C101.137 47.6235 100.949 49.3777 100.543 51.0825C100.157 52.7819 99.5582 54.4092 98.7455 55.9642C97.9475 57.4936 96.9527 58.8925 95.7612 60.1608C94.5898 61.4237 93.2364 62.5304 91.7009 63.481C90.1601 64.4116 88.4539 65.1275 86.5825 65.629C84.7713 66.1143 82.9787 66.3466 81.2046 66.3259C79.4506 66.2998 77.7486 66.0657 76.0988 65.6234C74.4436 65.1611 72.876 64.5027 71.3961 63.6483C69.9309 62.7683 68.5944 61.7245 67.3865 60.5168C66.1933 59.2836 65.1443 57.904 64.2393 56.3779C63.3544 54.8464 62.672 53.1851 62.1921 51.3941C61.723 49.6434 61.476 47.8763 61.451 46.0928C61.4207 44.2892 61.5984 42.5377 61.9842 40.8383C62.3902 39.1334 62.9894 37.5062 63.782 35.9566C64.5746 34.407 65.5439 32.9934 66.6897 31.7158C67.8557 30.4328 69.1863 29.3214 70.6815 28.3815C72.1767 27.4417 73.8299 26.7291 75.641 26.2438C78.5589 25.462 81.3365 25.203 83.9739 25.4669C86.6313 25.7254 89.0317 26.4734 91.175 27.7108C93.333 28.9228 95.1957 30.602 96.7631 32.7487C98.3451 34.8698 99.5298 37.3994 100.317 40.3374ZM87.1251 44.7134C86.8932 43.8481 86.5387 43.048 86.0614 42.3131C85.5988 41.5528 85.0425 40.9254 84.3924 40.431C83.7368 39.9164 82.9956 39.5651 82.1688 39.3768C81.3566 39.1631 80.4877 39.1802 79.562 39.4283C78.6162 39.6817 77.8168 40.0792 77.1639 40.6208C76.511 41.1624 75.9938 41.8079 75.6122 42.5571C75.2454 43.2809 75.0289 44.083 74.9629 44.9634C74.8915 45.8238 74.9744 46.6966 75.2116 47.5821C75.4381 48.4272 75.7853 49.2401 76.2532 50.0206C76.7212 50.801 77.2883 51.4687 77.9546 52.0235C78.6209 52.5782 79.3628 52.9726 80.1804 53.2064C81.018 53.4349 81.9098 53.4224 82.8556 53.169C83.8014 52.9156 84.598 52.508 85.2456 51.9463C85.9078 51.359 86.4169 50.6834 86.773 49.9194C87.1237 49.1352 87.3293 48.2929 87.39 47.3923C87.4506 46.4918 87.3623 45.5988 87.1251 44.7134ZM137.594 6.79665L146.388 48.3101L130.959 53.9972L116.635 34.3474L121.292 57.0403L107.709 60.6799L97.3267 17.5862L112.225 12.8177L128.493 31.7525L123.476 11.0972L137.594 6.79665ZM154.439 0.600635L160.473 33.0187L149.304 36.0113L139.648 4.5638L154.439 0.600635ZM163.447 42.1863C163.684 43.0717 163.734 43.9426 163.597 44.799C163.459 45.6553 163.175 46.4434 162.742 47.1633C162.335 47.8978 161.792 48.5285 161.114 49.0554C160.441 49.6024 159.672 49.9918 158.806 50.2237C157.921 50.4609 157.05 50.511 156.194 50.3738C155.343 50.2567 154.547 49.9845 153.807 49.5573C153.093 49.1449 152.462 48.6021 151.915 47.9291C151.388 47.2507 151.006 46.4687 150.769 45.5833C150.537 44.718 150.477 43.8498 150.589 42.9787C150.72 42.1022 150.993 41.3068 151.405 40.5923C151.832 39.8524 152.382 39.2089 153.055 38.6619C153.728 38.1149 154.508 37.7228 155.393 37.4855C156.258 37.2537 157.119 37.2063 157.976 37.3435C158.832 37.4808 159.62 37.7657 160.34 38.1983C161.074 38.6053 161.718 39.1555 162.27 39.8486C162.823 40.5418 163.215 41.321 163.447 42.1863Z"/>
</mask>
<path d="M56.9487 29.8936L61.0955 73.6229L44.0474 78.5792L34.5575 57.8929L36.2616 78.983L19.2782 84.1808L1.10613 44.8566L15.7221 39.5168L25.4537 63.7616L22.7854 37.6241L34.5577 34.4698L46.0605 58.5636L41.6814 32.561L56.9487 29.8936ZM100.317 40.3374C100.808 42.1687 101.071 43.9962 101.107 45.8199C101.137 47.6235 100.949 49.3777 100.543 51.0825C100.157 52.7819 99.5582 54.4092 98.7455 55.9642C97.9475 57.4936 96.9527 58.8925 95.7612 60.1608C94.5898 61.4237 93.2364 62.5304 91.7009 63.481C90.1601 64.4116 88.4539 65.1275 86.5825 65.629C84.7713 66.1143 82.9787 66.3466 81.2046 66.3259C79.4506 66.2998 77.7486 66.0657 76.0988 65.6234C74.4436 65.1611 72.876 64.5027 71.3961 63.6483C69.9309 62.7683 68.5944 61.7245 67.3865 60.5168C66.1933 59.2836 65.1443 57.904 64.2393 56.3779C63.3544 54.8464 62.672 53.1851 62.1921 51.3941C61.723 49.6434 61.476 47.8763 61.451 46.0928C61.4207 44.2892 61.5984 42.5377 61.9842 40.8383C62.3902 39.1334 62.9894 37.5062 63.782 35.9566C64.5746 34.407 65.5439 32.9934 66.6897 31.7158C67.8557 30.4328 69.1863 29.3214 70.6815 28.3815C72.1767 27.4417 73.8299 26.7291 75.641 26.2438C78.5589 25.462 81.3365 25.203 83.9739 25.4669C86.6313 25.7254 89.0317 26.4734 91.175 27.7108C93.333 28.9228 95.1957 30.602 96.7631 32.7487C98.3451 34.8698 99.5298 37.3994 100.317 40.3374ZM87.1251 44.7134C86.8932 43.8481 86.5387 43.048 86.0614 42.3131C85.5988 41.5528 85.0425 40.9254 84.3924 40.431C83.7368 39.9164 82.9956 39.5651 82.1688 39.3768C81.3566 39.1631 80.4877 39.1802 79.562 39.4283C78.6162 39.6817 77.8168 40.0792 77.1639 40.6208C76.511 41.1624 75.9938 41.8079 75.6122 42.5571C75.2454 43.2809 75.0289 44.083 74.9629 44.9634C74.8915 45.8238 74.9744 46.6966 75.2116 47.5821C75.4381 48.4272 75.7853 49.2401 76.2532 50.0206C76.7212 50.801 77.2883 51.4687 77.9546 52.0235C78.6209 52.5782 79.3628 52.9726 80.1804 53.2064C81.018 53.4349 81.9098 53.4224 82.8556 53.169C83.8014 52.9156 84.598 52.508 85.2456 51.9463C85.9078 51.359 86.4169 50.6834 86.773 49.9194C87.1237 49.1352 87.3293 48.2929 87.39 47.3923C87.4506 46.4918 87.3623 45.5988 87.1251 44.7134ZM137.594 6.79665L146.388 48.3101L130.959 53.9972L116.635 34.3474L121.292 57.0403L107.709 60.6799L97.3267 17.5862L112.225 12.8177L128.493 31.7525L123.476 11.0972L137.594 6.79665ZM154.439 0.600635L160.473 33.0187L149.304 36.0113L139.648 4.5638L154.439 0.600635ZM163.447 42.1863C163.684 43.0717 163.734 43.9426 163.597 44.799C163.459 45.6553 163.175 46.4434 162.742 47.1633C162.335 47.8978 161.792 48.5285 161.114 49.0554C160.441 49.6024 159.672 49.9918 158.806 50.2237C157.921 50.4609 157.05 50.511 156.194 50.3738C155.343 50.2567 154.547 49.9845 153.807 49.5573C153.093 49.1449 152.462 48.6021 151.915 47.9291C151.388 47.2507 151.006 46.4687 150.769 45.5833C150.537 44.718 150.477 43.8498 150.589 42.9787C150.72 42.1022 150.993 41.3068 151.405 40.5923C151.832 39.8524 152.382 39.2089 153.055 38.6619C153.728 38.1149 154.508 37.7228 155.393 37.4855C156.258 37.2537 157.119 37.2063 157.976 37.3435C158.832 37.4808 159.62 37.7657 160.34 38.1983C161.074 38.6053 161.718 39.1555 162.27 39.8486C162.823 40.5418 163.215 41.321 163.447 42.1863Z" fill="#B8FA2C"/>
<path d="M56.9487 29.8936L60.1026 29.5945L59.7791 26.1831L56.4035 26.7729L56.9487 29.8936ZM61.0955 73.6229L61.9799 76.6649L64.4968 75.9332L64.2493 73.3238L61.0955 73.6229ZM44.0474 78.5792L41.1679 79.9001L42.3075 82.3841L44.9317 81.6212L44.0474 78.5792ZM34.5575 57.8929L37.437 56.572L31.3998 58.1481L34.5575 57.8929ZM36.2616 78.983L37.1887 82.0123L39.6245 81.2669L39.4193 78.7279L36.2616 78.983ZM19.2782 84.1808L16.4024 85.5097L17.562 88.019L20.2053 87.2101L19.2782 84.1808ZM1.10613 44.8566L0.0190059 41.881L-3.21315 43.0618L-1.76966 46.1855L1.10613 44.8566ZM15.7221 39.5168L18.6621 38.3367L17.5185 35.4876L14.635 36.5411L15.7221 39.5168ZM25.4537 63.7616L22.5137 64.9417L28.6054 63.4399L25.4537 63.7616ZM22.7854 37.6241L21.9655 34.5641L19.3599 35.2623L19.6338 37.9459L22.7854 37.6241ZM34.5577 34.4698L37.4166 33.1049L36.2818 30.728L33.7377 31.4097L34.5577 34.4698ZM46.0605 58.5636L43.2017 59.9285L49.1846 58.0375L46.0605 58.5636ZM41.6814 32.561L41.1361 29.4403L38.0344 29.9822L38.5574 33.0871L41.6814 32.561ZM53.7949 30.1927L57.9416 73.922L64.2493 73.3238L60.1026 29.5945L53.7949 30.1927ZM60.2111 70.5808L43.163 75.5371L44.9317 81.6212L61.9799 76.6649L60.2111 70.5808ZM46.9268 77.2582L37.437 56.572L31.6781 59.2139L41.1679 79.9001L46.9268 77.2582ZM31.3998 58.1481L33.1039 79.2382L39.4193 78.7279L37.7152 57.6378L31.3998 58.1481ZM35.3345 75.9537L18.3511 81.1515L20.2053 87.2101L37.1887 82.0123L35.3345 75.9537ZM22.154 82.8518L3.98192 43.5277L-1.76966 46.1855L16.4024 85.5097L22.154 82.8518ZM2.19326 47.8322L16.8092 42.4924L14.635 36.5411L0.0190059 41.881L2.19326 47.8322ZM12.7821 40.6968L22.5137 64.9417L28.3937 62.5816L18.6621 38.3367L12.7821 40.6968ZM28.6054 63.4399L25.9371 37.3024L19.6338 37.9459L22.3021 64.0834L28.6054 63.4399ZM23.6054 40.6842L35.3776 37.5298L33.7377 31.4097L21.9655 34.5641L23.6054 40.6842ZM31.6988 35.8347L43.2017 59.9285L48.9194 57.1987L37.4166 33.1049L31.6988 35.8347ZM49.1846 58.0375L44.8054 32.0349L38.5574 33.0871L42.9365 59.0897L49.1846 58.0375ZM42.2266 35.6817L57.4939 33.0144L56.4035 26.7729L41.1361 29.4403L42.2266 35.6817ZM101.107 45.8199L104.274 45.7666L104.274 45.7578L101.107 45.8199ZM100.543 51.0825L97.4614 50.3487L97.4576 50.3649L97.4539 50.3812L100.543 51.0825ZM98.7455 55.9642L95.9378 54.4967L95.9368 54.4987L98.7455 55.9642ZM95.7612 60.1608L93.4523 57.9916L93.4454 57.999L93.4385 58.0064L95.7612 60.1608ZM91.7009 63.481L93.3386 66.1929L93.3536 66.1838L93.3686 66.1746L91.7009 63.481ZM81.2046 66.3259L81.1575 69.4936L81.1676 69.4937L81.2046 66.3259ZM76.0988 65.6234L75.2465 68.6746L75.2625 68.6791L75.2786 68.6834L76.0988 65.6234ZM71.3961 63.6483L69.765 66.3641L69.7884 66.3782L69.8121 66.3918L71.3961 63.6483ZM67.3865 60.5168L65.1097 62.7197L65.128 62.7386L65.1466 62.7571L67.3865 60.5168ZM64.2393 56.3779L61.4962 57.9627L61.5052 57.9783L61.5144 57.9938L64.2393 56.3779ZM61.451 46.0928L64.6187 46.0485L64.6186 46.0395L61.451 46.0928ZM61.9842 40.8383L58.9024 40.1045L58.8985 40.1207L58.8948 40.1369L61.9842 40.8383ZM66.6897 31.7158L64.3453 29.5851L64.3383 29.5928L64.3314 29.6006L66.6897 31.7158ZM83.9739 25.4669L83.6584 28.6192L83.6671 28.62L83.9739 25.4669ZM91.175 27.7108L89.591 30.4544L89.6073 30.4638L89.6238 30.4731L91.175 27.7108ZM96.7631 32.7487L94.2045 34.6168L94.214 34.6298L94.2236 34.6428L96.7631 32.7487ZM86.0614 42.3131L83.3548 43.9596L83.3791 43.9996L83.4046 44.0388L86.0614 42.3131ZM84.3924 40.431L82.4363 42.923L82.4554 42.9379L82.4746 42.9526L84.3924 40.431ZM82.1688 39.3768L81.3624 42.4405L81.4138 42.454L81.4656 42.4658L82.1688 39.3768ZM75.6122 42.5571L72.7892 41.1195L72.7865 41.1249L75.6122 42.5571ZM74.9629 44.9634L78.12 45.2256L78.1211 45.213L78.122 45.2004L74.9629 44.9634ZM77.9546 52.0235L79.9817 49.5889L77.9546 52.0235ZM80.1804 53.2064L79.3091 56.2523L79.3279 56.2576L79.3467 56.2628L80.1804 53.2064ZM85.2456 51.9463L87.3215 54.3393L87.3346 54.328L87.3474 54.3166L85.2456 51.9463ZM86.773 49.9194L89.6445 51.2576L89.6549 51.2352L89.665 51.2127L86.773 49.9194ZM97.257 41.1574C97.684 42.751 97.9087 44.3241 97.9392 45.8819L104.274 45.7578C104.233 43.6682 103.931 41.5864 103.377 39.5175L97.257 41.1574ZM97.9391 45.8732C97.9651 47.4197 97.8042 48.9091 97.4614 50.3487L103.625 51.8163C104.094 49.8463 104.309 47.8273 104.274 45.7666L97.9391 45.8732ZM97.4539 50.3812C97.129 51.8123 96.6249 53.1822 95.9378 54.4967L101.553 57.4316C102.492 55.6361 103.186 53.7516 103.633 51.7839L97.4539 50.3812ZM95.9368 54.4987C95.2737 55.7697 94.4476 56.9322 93.4523 57.9916L98.0701 62.33C99.4578 60.8529 100.621 59.2176 101.554 57.4296L95.9368 54.4987ZM93.4385 58.0064C92.4695 59.0511 91.3389 59.9792 90.0333 60.7875L93.3686 66.1746C95.1338 65.0817 96.7101 63.7962 98.0839 62.3152L93.4385 58.0064ZM90.0633 60.7692C88.796 61.5345 87.3683 62.1387 85.7625 62.5689L87.4024 68.689C89.5396 68.1164 91.5242 67.2886 93.3386 66.1929L90.0633 60.7692ZM85.7625 62.5689C84.2149 62.9836 82.7105 63.1752 81.2415 63.1581L81.1676 69.4937C83.247 69.5179 85.3278 69.2449 87.4024 68.689L85.7625 62.5689ZM81.2517 63.1582C79.7517 63.1359 78.3098 62.9362 76.919 62.5634L75.2786 68.6834C77.1875 69.1951 79.1494 69.4637 81.1575 69.4935L81.2517 63.1582ZM76.9511 62.5722C75.5502 62.1809 74.2286 61.6255 72.9801 60.9047L69.8121 66.3918C71.5234 67.3798 73.3369 68.1412 75.2465 68.6746L76.9511 62.5722ZM73.0272 60.9324C71.7835 60.1855 70.6514 59.3013 69.6264 58.2765L65.1466 62.7571C66.5374 64.1477 68.0784 65.3512 69.765 66.3641L73.0272 60.9324ZM69.6633 58.314C68.6476 57.2642 67.7475 56.0829 66.9642 54.762L61.5144 57.9938C62.541 59.7251 63.7391 61.303 65.1097 62.7197L69.6633 58.314ZM66.9823 54.793C66.2427 53.5128 65.6638 52.1104 65.2522 50.5742L59.1321 52.2141C59.6802 54.2599 60.4661 56.1799 61.4962 57.9627L66.9823 54.793ZM65.2522 50.5742C64.8498 49.0724 64.64 47.5657 64.6187 46.0485L58.2833 46.1371C58.312 48.1868 58.5963 50.2144 59.1321 52.2141L65.2522 50.5742ZM64.6186 46.0395C64.5924 44.4808 64.746 42.983 65.0736 41.5396L58.8948 40.1369C58.4509 42.0924 58.249 44.0977 58.2835 46.1461L64.6186 46.0395ZM65.0661 41.5721C65.4139 40.1114 65.9258 38.7223 66.6025 37.3993L60.9616 34.514C60.0531 36.2902 59.3664 38.1555 58.9024 40.1045L65.0661 41.5721ZM66.6025 37.3993C67.2725 36.0893 68.0872 34.9024 69.0481 33.831L64.3314 29.6006C63.0005 31.0844 61.8768 32.7247 60.9616 34.514L66.6025 37.3993ZM69.0342 33.8465C70.0031 32.7803 71.1112 31.8533 72.3675 31.0637L68.9956 25.6994C67.2615 26.7894 65.7084 28.0853 64.3453 29.5851L69.0342 33.8465ZM72.3675 31.0637C73.5784 30.3025 74.9369 29.7123 76.4609 29.3039L74.8211 23.1838C72.7229 23.746 70.775 24.5809 68.9956 25.6994L72.3675 31.0637ZM76.4609 29.3039C79.0602 28.6074 81.4513 28.3983 83.6584 28.6192L84.2893 22.3147C81.2217 22.0077 78.0576 22.3165 74.8211 23.1838L76.4609 29.3039ZM83.6671 28.62C85.9105 28.8383 87.8695 29.4605 89.591 30.4544L92.759 24.9673C90.1939 23.4863 87.3521 22.6126 84.2806 22.3138L83.6671 28.62ZM89.6238 30.4731C91.3571 31.4465 92.8848 32.8094 94.2045 34.6168L99.3217 30.8806C97.5066 28.3947 95.309 26.399 92.7262 24.9486L89.6238 30.4731ZM94.2236 34.6428C95.5325 36.3977 96.5583 38.5498 97.257 41.1574L103.377 39.5175C102.501 36.249 101.158 33.342 99.3025 30.8546L94.2236 34.6428ZM90.1851 43.8934C89.8692 42.7142 89.3806 41.6075 88.7182 40.5875L83.4046 44.0388C83.6967 44.4885 83.9173 44.9819 84.065 45.5333L90.1851 43.8934ZM88.7679 40.6667C88.118 39.5983 87.3027 38.6643 86.3101 37.9094L82.4746 42.9526C82.7822 43.1865 83.0797 43.5073 83.3548 43.9596L88.7679 40.6667ZM86.3484 37.939C85.3179 37.1301 84.1471 36.5781 82.8719 36.2878L81.4656 42.4658C81.8442 42.552 82.1558 42.7028 82.4363 42.923L86.3484 37.939ZM82.9751 36.3132C81.5582 35.9403 80.124 35.9979 78.7421 36.3682L80.3819 42.4883C80.8514 42.3625 81.155 42.3859 81.3624 42.4405L82.9751 36.3132ZM78.7421 36.3682C77.423 36.7216 76.1959 37.3077 75.1413 38.1825L79.1866 43.0591C79.4378 42.8507 79.8094 42.6417 80.3819 42.4883L78.7421 36.3682ZM75.1413 38.1825C74.1593 38.9972 73.3684 39.9822 72.7892 41.1195L78.4353 43.9948C78.6192 43.6336 78.8628 43.3276 79.1866 43.0591L75.1413 38.1825ZM72.7865 41.1249C72.2147 42.2529 71.8983 43.4665 71.8038 44.7265L78.122 45.2004C78.1596 44.6996 78.276 44.3089 78.438 43.9894L72.7865 41.1249ZM71.8058 44.7013C71.7023 45.9472 71.8258 47.1861 72.1516 48.402L78.2717 46.7621C78.123 46.2072 78.0806 45.7003 78.12 45.2256L71.8058 44.7013ZM72.1516 48.402C72.4572 49.5427 72.9229 50.6268 73.5362 51.6496L78.9703 48.3915C78.6476 47.8533 78.4189 47.3118 78.2717 46.7621L72.1516 48.402ZM73.5362 51.6496C74.1781 52.7202 74.9742 53.6643 75.9275 54.458L79.9817 49.5889C79.6024 49.2731 79.2643 48.8819 78.9703 48.3915L73.5362 51.6496ZM75.9275 54.458C76.9255 55.289 78.0595 55.8948 79.3091 56.2523L81.0517 50.1606C80.6662 50.0503 80.3163 49.8675 79.9817 49.5889L75.9275 54.458ZM79.3467 56.2628C80.792 56.657 82.2586 56.6087 83.6755 56.2291L82.0357 50.109C81.561 50.2361 81.2441 50.2128 81.014 50.1501L79.3467 56.2628ZM83.6755 56.2291C85.019 55.8691 86.2629 55.2577 87.3215 54.3393L83.1696 49.5533C82.9332 49.7583 82.5838 49.9621 82.0357 50.109L83.6755 56.2291ZM87.3474 54.3166C88.3176 53.4563 89.0961 52.4343 89.6445 51.2576L83.9015 48.5812C83.7378 48.9325 83.498 49.2618 83.1437 49.576L87.3474 54.3166ZM89.665 51.2127C90.176 50.07 90.4663 48.8598 90.5508 47.6052L84.2291 47.1795C84.1923 47.726 84.0713 48.2005 83.881 48.6261L89.665 51.2127ZM90.5508 47.6052C90.6352 46.3517 90.5111 45.1099 90.1851 43.8934L84.065 45.5333C84.2136 46.0877 84.266 46.6318 84.2291 47.1795L90.5508 47.6052ZM137.594 6.79665L140.693 6.14012L139.977 2.75904L136.671 3.76614L137.594 6.79665ZM146.388 48.3101L147.483 51.2826L150.055 50.3347L149.487 47.6536L146.388 48.3101ZM130.959 53.9972L128.399 55.8633L129.809 57.7974L132.055 56.9697L130.959 53.9972ZM116.635 34.3474L119.195 32.4812L113.532 34.9842L116.635 34.3474ZM121.292 57.0403L122.112 60.1003L124.996 59.3277L124.396 56.4034L121.292 57.0403ZM107.709 60.6799L104.629 61.4219L105.39 64.581L108.529 63.74L107.709 60.6799ZM97.3267 17.5862L96.361 14.569L93.5573 15.4663L94.2468 18.3282L97.3267 17.5862ZM112.225 12.8177L114.628 10.7532L113.26 9.16029L111.259 9.80046L112.225 12.8177ZM128.493 31.7525L126.09 33.817L131.571 31.0048L128.493 31.7525ZM123.476 11.0972L122.553 8.06668L119.691 8.93829L120.397 11.8449L123.476 11.0972ZM134.494 7.45319L143.289 48.9666L149.487 47.6536L140.693 6.14012L134.494 7.45319ZM145.292 45.3376L129.863 51.0247L132.055 56.9697L147.483 51.2826L145.292 45.3376ZM133.519 52.131L119.195 32.4812L114.075 36.2135L128.399 55.8633L133.519 52.131ZM113.532 34.9842L118.189 57.6772L124.396 56.4034L119.739 33.7105L113.532 34.9842ZM120.472 53.9802L106.889 57.6199L108.529 63.74L122.112 60.1003L120.472 53.9802ZM110.789 59.9379L100.407 16.8442L94.2468 18.3282L104.629 61.4219L110.789 59.9379ZM98.2924 20.6034L113.191 15.8349L111.259 9.80046L96.361 14.569L98.2924 20.6034ZM109.822 14.8821L126.09 33.817L130.896 29.6881L114.628 10.7532L109.822 14.8821ZM131.571 31.0048L126.554 10.3495L120.397 11.8449L125.414 32.5003L131.571 31.0048ZM124.399 14.1277L138.517 9.82717L136.671 3.76614L122.553 8.06668L124.399 14.1277ZM154.439 0.600635L157.554 0.0209762L156.927 -3.34576L153.619 -2.45942L154.439 0.600635ZM160.473 33.0187L161.292 36.0787L164.123 35.3202L163.587 32.439L160.473 33.0187ZM149.304 36.0113L146.276 36.9411L147.172 39.8622L150.124 39.0713L149.304 36.0113ZM139.648 4.5638L138.828 1.50375L135.656 2.35384L136.62 5.49367L139.648 4.5638ZM162.742 47.1633L160.027 45.5314L159.998 45.579L159.971 45.6276L162.742 47.1633ZM161.114 49.0554L159.171 46.5533L159.143 46.5748L159.116 46.597L161.114 49.0554ZM156.194 50.3738L156.695 47.2457L156.66 47.2401L156.625 47.2353L156.194 50.3738ZM153.807 49.5573L152.223 52.3009L153.807 49.5573ZM151.915 47.9291L149.413 49.8722L149.434 49.8999L149.457 49.9272L151.915 47.9291ZM150.589 42.9787L147.456 42.5076L147.451 42.5417L147.446 42.5758L150.589 42.9787ZM151.405 40.5923L148.661 39.0083L151.405 40.5923ZM160.34 38.1983L158.708 40.9136L158.756 40.9422L158.804 40.9692L160.34 38.1983ZM151.325 1.18029L157.358 33.5983L163.587 32.439L157.554 0.0209762L151.325 1.18029ZM159.653 29.9586L148.484 32.9512L150.124 39.0713L161.292 36.0787L159.653 29.9586ZM152.332 35.0814L142.677 3.63393L136.62 5.49367L146.276 36.9411L152.332 35.0814ZM140.468 7.62385L155.259 3.66069L153.619 -2.45942L138.828 1.50375L140.468 7.62385ZM160.387 43.0062C160.515 43.486 160.531 43.9066 160.469 44.2978L166.725 45.3001C166.937 43.9787 166.853 42.6575 166.507 41.3664L160.387 43.0062ZM160.469 44.2978C160.393 44.7677 160.244 45.17 160.027 45.5314L165.457 48.7951C166.105 47.7169 166.526 46.543 166.725 45.3001L160.469 44.2978ZM159.971 45.6276C159.777 45.9787 159.518 46.2832 159.171 46.5533L163.057 51.5575C164.066 50.7739 164.893 49.8169 165.513 48.6989L159.971 45.6276ZM159.116 46.597C158.8 46.8534 158.435 47.0433 157.986 47.1636L159.626 53.2837C160.908 52.9404 162.081 52.3514 163.112 51.5138L159.116 46.597ZM157.986 47.1636C157.507 47.2922 157.086 47.3083 156.695 47.2457L155.692 53.5019C157.014 53.7136 158.335 53.6297 159.626 53.2837L157.986 47.1636ZM156.625 47.2353C156.178 47.1738 155.774 47.0349 155.391 46.8138L152.223 52.3009C153.32 52.9341 154.507 53.3396 155.762 53.5122L156.625 47.2353ZM155.391 46.8138C155.028 46.6042 154.69 46.3199 154.373 45.931L149.457 49.9272C150.235 50.8843 151.157 51.6855 152.223 52.3009L155.391 46.8138ZM154.417 45.9859C154.166 45.6629 153.964 45.2687 153.829 44.7634L147.709 46.4032C148.048 47.6688 148.61 48.8384 149.413 49.8722L154.417 45.9859ZM153.829 44.7634C153.702 44.2882 153.673 43.8353 153.731 43.3816L147.446 42.5758C147.281 43.8643 147.372 45.1477 147.709 46.4032L153.829 44.7634ZM153.721 43.4498C153.799 42.936 153.949 42.5226 154.149 42.1763L148.661 39.0083C148.036 40.0909 147.642 41.2685 147.456 42.5076L153.721 43.4498ZM154.149 42.1763C154.38 41.776 154.676 41.4275 155.053 41.1203L151.057 36.2035C150.089 36.9903 149.285 37.9288 148.661 39.0083L154.149 42.1763ZM155.053 41.1203C155.361 40.8704 155.733 40.6741 156.213 40.5456L154.573 34.4255C153.282 34.7714 152.096 35.3594 151.057 36.2035L155.053 41.1203ZM156.213 40.5456C156.662 40.4252 157.073 40.4073 157.474 40.4717L158.477 34.2154C157.165 34.0054 155.855 34.0821 154.573 34.4255L156.213 40.5456ZM157.474 40.4717C157.944 40.5469 158.347 40.6964 158.708 40.9136L161.972 35.4829C160.893 34.8349 159.72 34.4146 158.477 34.2154L157.474 40.4717ZM158.804 40.9692C159.156 41.164 159.485 41.4363 159.793 41.823L164.748 37.8742C163.951 36.8747 162.993 36.0467 161.875 35.4273L158.804 40.9692ZM159.793 41.823C160.071 42.1717 160.266 42.5571 160.387 43.0062L166.507 41.3664C166.163 40.0849 165.575 38.9118 164.748 37.8742L159.793 41.823Z" fill="black" mask="url(#path-1-outside-1_68_28250)"/>
</g>
<defs>
<filter id="filter0_d_68_28250" x="0.313477" y="0.600586" width="166.824" height="95.0245" filterUnits="userSpaceOnUse" color-interpolation-filters="sRGB">
<feFlood flood-opacity="0" result="BackgroundImageFix"/>
<feColorMatrix in="SourceAlpha" type="matrix" values="0 0 0 0 0 0 0 0 0 0 0 0 0 0 0 0 0 0 127 0" result="hardAlpha"/>
<feOffset dy="6.336"/>
<feComposite in2="hardAlpha" operator="out"/>
<feColorMatrix type="matrix" values="0 0 0 0 0 0 0 0 0 0 0 0 0 0 0 0 0 0 1 0"/>
<feBlend mode="normal" in2="BackgroundImageFix" result="effect1_dropShadow_68_28250"/>
<feBlend mode="normal" in="SourceGraphic" in2="effect1_dropShadow_68_28250" result="shape"/>
</filter>
</defs>
</svg>
